<?xml version="1.0" encoding="utf-8"?>
<!-- Generator: Adobe Illustrator 18.0.0, SVG Export Plug-In . SVG Version: 6.00 Build 0)  -->
<!DOCTYPE svg PUBLIC "-//W3C//DTD SVG 1.1//EN" "http://www.w3.org/Graphics/SVG/1.1/DTD/svg11.dtd">
<svg version="1.1" id="图形" xmlns="http://www.w3.org/2000/svg" xmlns:xlink="http://www.w3.org/1999/xlink" x="0px" y="0px"
	 viewBox="15.167 -16.333 1000.636 1000.678" enable-background="new 15.167 -16.333 1000.636 1000.678" xml:space="preserve">
<g>
	<path fill-rule="evenodd" clip-rule="evenodd" fill="#272536" d="M899.711,532.632h-28.795h-57.59H381.362H237.347V244.683
		c0-47.719,38.666-86.385,86.384-86.385h57.59v57.59h143.974V100.667H381.362h-86.426c-63.611,0-115.179,51.569-115.179,115.18
		v316.785h-28.795c-15.892,0-28.795,12.902-28.795,28.794c0,15.893,12.902,28.795,28.795,28.795h28.795v57.59
		c0,80.282,47.268,149.013,115.179,181.453c0,14.008,0,77.742,0,77.742h57.59v-60.498c9.503,1.352,18.924,2.908,28.795,2.908h287.99
		c9.871,0,19.292-1.516,28.795-2.908v60.498h57.589v-77.742c67.912-32.44,115.18-101.171,115.18-181.453v-57.59h28.795
		c15.892,0,28.795-12.902,28.795-28.795C928.506,545.534,915.603,532.632,899.711,532.632L899.711,532.632z M813.285,636.301
		c0,85.893-69.632,155.525-155.525,155.525H392.872c-85.893,0-155.525-69.632-155.525-155.525v-46.08h143.974h431.964V636.301
		L813.285,636.301z"/>
	<polygon fill-rule="evenodd" clip-rule="evenodd" fill="#272536" points="381.362,273.478 410.157,273.478 410.157,331.067 
		381.362,331.067 381.362,273.478 	"/>
	<polygon fill-rule="evenodd" clip-rule="evenodd" fill="#272536" points="438.952,273.478 467.747,273.478 467.747,331.067 
		438.952,331.067 438.952,273.478 	"/>
	<polygon fill-rule="evenodd" clip-rule="evenodd" fill="#272536" points="496.541,273.478 525.336,273.478 525.336,331.067 
		496.541,331.067 496.541,273.478 	"/>
	<polygon fill-rule="evenodd" clip-rule="evenodd" fill="#272536" points="381.362,359.862 410.157,359.862 410.157,417.452 
		381.362,417.452 381.362,359.862 	"/>
	<polygon fill-rule="evenodd" clip-rule="evenodd" fill="#272536" points="438.952,359.862 467.747,359.862 467.747,417.452 
		438.952,417.452 438.952,359.862 	"/>
	<polygon fill-rule="evenodd" clip-rule="evenodd" fill="#272536" points="496.541,359.862 525.336,359.862 525.336,417.452 
		496.541,417.452 496.541,359.862 	"/>
</g>
</svg>
