<?xml version="1.0" encoding="utf-8"?>
<!-- Generator: Adobe Illustrator 18.0.0, SVG Export Plug-In . SVG Version: 6.00 Build 0)  -->
<!DOCTYPE svg PUBLIC "-//W3C//DTD SVG 1.1//EN" "http://www.w3.org/Graphics/SVG/1.1/DTD/svg11.dtd">
<svg version="1.1" id="图形" xmlns="http://www.w3.org/2000/svg" xmlns:xlink="http://www.w3.org/1999/xlink" x="0px" y="0px"
	 viewBox="15.167 -16.333 1000.636 1000.678" enable-background="new 15.167 -16.333 1000.636 1000.678" xml:space="preserve">
<g>
	<path fill-rule="evenodd" clip-rule="evenodd" fill="#272536" d="M413.628,500.394c-46.278,0-85.353-30.82-85.353-67.289
		c0-33.443,41.563-63.871,87.203-63.871c79.132,0,87.659,45.626,87.659,65.238C503.137,479.462,449.727,500.394,413.628,500.394
		L413.628,500.394 M415.373,407.727c-27.249,0-47.165,17.398-47.165,26.439c0,11.808,17.834,28.955,45.803,28.955
		c24.195,0,48.861-14.108,48.861-27.948C462.872,410.413,429.652,407.727,415.373,407.727L415.373,407.727 M525.175,888.245
		c-139.444,0-230.079-93.401-233.884-97.378c-5.221-5.431-6.318-14.564-2.628-21.538l25.189-47.785l-43.005,28.831
		c-5.178,3.44-11.454,2.716-15.928-1.752c-2.118-2.135-21.425-22.705-45.436-92.068c-24.718-71.128-18.756-118.35-18.519-120.318
		c0.862-6.063,4.317-11.091,9.18-13.153l47.635-20.29l-44.808-15.308c-6.668-2.267-10.947-9.943-10.124-18.134
		c5.809-57.365,33.82-116.619,76.866-162.561c28.525-30.448,115.272-123.124,255.462-123.124
		c140.149,0,226.939,92.677,255.466,123.124c43.083,45.986,71.058,105.244,76.863,162.582c0.785,8.17-3.49,15.846-10.121,18.113
		l-44.808,15.308l47.634,20.29c4.866,2.058,8.357,7.114,9.18,13.153c0.238,1.967,6.162,49.191-18.52,120.318
		c-24.014,69.366-43.316,89.933-45.433,92.039c-4.474,4.497-10.788,5.221-15.93,1.781l-43.863-27.194l26.048,46.148
		c3.688,6.975,2.593,16.102-2.627,21.538C755.255,794.845,664.621,888.245,525.175,888.245L525.175,888.245 M338.202,767.413
		c23.877,21.844,91.688,75.7,188.663,75.7c96.973,0,162.329-50.582,186.204-72.425l-46.779-88.346
		c-3.184-6.335-5.703-20.851,1.883-27.922c8.768-8.173,18.69-5.222,27.104-0.603l76.288,38.063
		c6.143-10.183,12.761-16.292,25.309-54.103c14.257-42.963,16.087-66.28,15.941-81.291l-74.668-35.691
		c-5.339-2.394-12.795-9.934-12.795-19.176c0-9.382,8.112-18.968,13.599-20.902l69.768-28.152
		c-7.24-43.781-29.106-82.606-61.246-118.412c-24.759-27.589-100.014-111.507-220.608-111.507
		c-120.631,0-195.887,83.918-220.608,111.507c-32.104,35.782-54.006,77.068-61.284,120.868l69.807,24.877
		c5.481,1.935,16.02,11.515,16.02,22.539c0,12.927-11.515,20.057-16.853,22.451l-73.07,31.598
		c-0.109,14.964,1.683,38.285,15.981,81.291c12.505,37.745,17.452,42.213,23.67,52.466l72.564-40.75
		c5.191-3.667,23.025-8.602,31.424-1.928c10.831,8.606,5.644,22.628,2.427,28.963L338.202,767.413L338.202,767.413 M635.148,500.394
		c-36.059,0-89.464-20.932-89.464-65.922c0-19.613,8.522-65.238,87.617-65.238c45.676,0,87.243,30.429,87.243,63.871
		C720.544,470.211,682.222,500.394,635.148,500.394L635.148,500.394 M633.981,408.635c-14.047,0-46.706,2.644-46.706,27.003
		c0,13.617,24.27,27.498,48.045,27.498c27.547,0,44.415-16.868,44.415-28.488C679.735,425.752,660.792,408.635,633.981,408.635
		L633.981,408.635 M564.918,613.002h-80.201c-11.918,0-27.453-10.505-33.223-21.028c-6.523-11.892-4.776-27.083,0.518-40.048
		c5.142-12.591,18.097-34.324,23.679-39.837c4.903-4.947,18.918-11.257,29.014-2.797c7.519,6.299,5.663,20.432,0.936,27.667
		c-9.972,15.261-12.191,21.107-13.843,25.174c-1.147,2.825-2.388,8.763-0.731,11.748c0.489,0.934,2.854,3.782,8.888,3.782h47.269
		c6.037,0,7.582-2.871,8.071-3.803c1.66-2.964,1.155-8.819,0.086-11.706c-2.805-7.574-4.409-13.139-10.603-24.377
		c-3.359-6.094-5.678-22.058,3.321-27.868c13.638-8.804,24.217,1.373,29.119,6.273c5.547,5.513,13.423,23.738,17.95,36.563
		c3.242,9.204,6.077,29.794-0.412,41.685C588.985,605,576.837,613.002,564.918,613.002L564.918,613.002 M524.409,759.374
		c-44.242,0-74.42-22.46-86.79-41.708c-8.111-12.62-8.336-23.374-7.053-30.161c1.321-6.972,5.434-16.835,17.727-24.214
		c12.146-7.357,47.297-15.584,76.116-15.584c28.816,0,63.972,8.227,76.115,15.605c12.259,7.383,16.405,17.222,17.726,24.194
		c1.284,6.81,1.059,17.541-7.088,30.182C598.791,736.914,568.654,759.374,524.409,759.374L524.409,759.374 M522.965,684.081
		c-21.921,0-38.25,6.656-43.986,10.116c-3.29,1.988-4.287,3.776-4.348,4.306c-0.122,0.549,0.21,2.369,2.175,5.434
		c5.915,9.19,16.043,18.428,46.779,18.428c30.704,0,41.482-9.238,47.398-18.428c1.963-3.065,2.294-4.885,2.173-5.434
		c-0.09-0.529-1.085-2.318-4.346-4.283C563.043,690.737,544.883,684.081,522.965,684.081L522.965,684.081 M522.965,684.081
		L522.965,684.081z"/>
</g>
</svg>
