<?xml version="1.0" encoding="utf-8"?>
<!-- Generator: Adobe Illustrator 18.0.0, SVG Export Plug-In . SVG Version: 6.00 Build 0)  -->
<!DOCTYPE svg PUBLIC "-//W3C//DTD SVG 1.1//EN" "http://www.w3.org/Graphics/SVG/1.1/DTD/svg11.dtd">
<svg version="1.1" id="图形" xmlns="http://www.w3.org/2000/svg" xmlns:xlink="http://www.w3.org/1999/xlink" x="0px" y="0px"
	 viewBox="15.167 -16.333 1000.636 1000.678" enable-background="new 15.167 -16.333 1000.636 1000.678" xml:space="preserve">
<g>
	<path fill-rule="evenodd" clip-rule="evenodd" fill="#272536" d="M762.312,237.5h-44.84c-29.269,0-82.041,18.722-103.077,44.839
		h-53.857v-22.42c0-37.132-30.127-67.257-67.258-67.257c-37.132,0-67.257,30.126-67.257,67.257v22.42h-67.258
		c-12.348,0-22.419,10.027-22.419,22.419c0,12.391,10.071,22.419,22.419,22.419h67.258v12.002
		c-26.803,15.506-44.839,44.485-44.839,77.674c0,8.722,1.251,17.151,3.575,25.125c-81.779,40.153-138.09,124.25-138.09,221.487
		c0,136.18,110.432,246.612,246.612,246.612c136.178,0,246.611-110.432,246.611-246.612c0-97.237-56.312-181.334-138.087-221.486
		c2.322-7.973,3.573-16.403,3.573-25.125c0-33.19-18.036-62.168-44.838-77.675v-12.002h53.856
		c21.036,26.116,73.808,44.838,103.078,44.838h44.839c37.131,0,67.257-30.125,67.257-67.257
		C829.568,267.626,799.443,237.5,762.312,237.5L762.312,237.5z M493.28,237.5c12.348,0,22.42,10.026,22.42,22.419
		c0,12.394-10.072,22.42-22.42,22.42c-12.347,0-22.419-10.027-22.419-22.42C470.86,247.527,480.933,237.5,493.28,237.5L493.28,237.5
		z M448.442,372.015h89.677c12.348,0,22.419,10.028,22.419,22.42c0,12.391-10.072,22.419-22.419,22.419h-89.677
		c-12.347,0-22.419-10.028-22.419-22.419C426.023,382.043,436.093,372.015,448.442,372.015L448.442,372.015z M612.074,500.369
		c0.049,0.036,0.097,0.072,0.147,0.106c3.728,2.726,7.36,5.577,10.889,8.545c0.094,0.079,0.186,0.158,0.279,0.236
		c2.548,2.151,5.041,4.363,7.478,6.637c0.124,0.115,0.249,0.23,0.372,0.346c0.783,0.735,1.561,1.475,2.332,2.221
		c0.101,0.098,0.202,0.199,0.304,0.296c2.331,2.266,4.609,4.587,6.828,6.963c0.214,0.228,0.425,0.456,0.638,0.685
		c0.684,0.74,1.367,1.482,2.041,2.231c0.056,0.063,0.112,0.126,0.166,0.188c1.352,1.509,2.682,3.039,3.989,4.588
		c0.21,0.248,0.42,0.494,0.629,0.743c0.597,0.715,1.189,1.436,1.778,2.159c0.268,0.33,0.532,0.662,0.797,0.994
		c1.838,2.288,3.623,4.616,5.36,6.985c0.303,0.415,0.607,0.828,0.908,1.244c0.495,0.687,0.989,1.377,1.475,2.069
		c0.314,0.447,0.622,0.896,0.932,1.346c0.801,1.16,1.59,2.327,2.366,3.503c0.336,0.509,0.676,1.018,1.008,1.531
		c0.426,0.656,0.842,1.317,1.258,1.978c0.344,0.541,0.683,1.084,1.019,1.63c0.399,0.646,0.797,1.291,1.188,1.942
		c0.422,0.701,0.837,1.408,1.25,2.116c0.543,0.925,1.078,1.856,1.605,2.791c0.374,0.661,0.746,1.321,1.111,1.986
		c0.338,0.617,0.673,1.234,1.005,1.852c0.366,0.683,0.726,1.37,1.084,2.057c0.298,0.573,0.601,1.145,0.894,1.721
		c0.583,1.145,1.155,2.297,1.716,3.453c0.267,0.549,0.526,1.104,0.788,1.655c0.362,0.763,0.719,1.529,1.072,2.299
		c0.261,0.57,0.523,1.141,0.779,1.715c0.405,0.901,0.798,1.806,1.188,2.714c0.237,0.553,0.476,1.107,0.708,1.661
		c0.461,1.1,0.913,2.204,1.354,3.314c0.211,0.529,0.416,1.062,0.623,1.592c0.337,0.873,0.668,1.745,0.994,2.622
		c0.189,0.509,0.382,1.017,0.567,1.528c0.471,1.296,0.931,2.598,1.376,3.906c0.127,0.374,0.247,0.751,0.371,1.124
		c0.342,1.028,0.678,2.057,1.003,3.091c0.16,0.507,0.318,1.016,0.474,1.524c0.312,1.019,0.615,2.044,0.915,3.071
		c0.114,0.398,0.232,0.793,0.346,1.192c0.387,1.372,0.758,2.749,1.118,4.133c0.11,0.425,0.214,0.851,0.322,1.276
		c0.263,1.047,0.521,2.098,0.769,3.151c0.109,0.474,0.22,0.946,0.329,1.418c0.297,1.303,0.584,2.613,0.855,3.926
		c0.029,0.148,0.063,0.293,0.095,0.442c0.293,1.442,0.567,2.891,0.832,4.346c0.081,0.448,0.159,0.899,0.237,1.348
		c0.195,1.111,0.379,2.224,0.553,3.34c0.066,0.416,0.135,0.83,0.196,1.244c0.223,1.474,0.431,2.952,0.621,4.438
		c0.035,0.278,0.066,0.558,0.1,0.836c0.154,1.246,0.296,2.492,0.428,3.744c0.047,0.453,0.093,0.91,0.137,1.365
		c0.121,1.241,0.233,2.483,0.33,3.729c0.023,0.297,0.052,0.594,0.075,0.892c0.115,1.517,0.21,3.04,0.29,4.566
		c0.019,0.387,0.035,0.778,0.054,1.167c0.056,1.195,0.101,2.393,0.136,3.593c0.013,0.445,0.027,0.886,0.036,1.33
		c0.036,1.549,0.06,3.101,0.06,4.66c0,111.441-90.334,201.775-201.773,201.775c-111.44,0-201.774-90.334-201.774-201.775
		c0-1.559,0.023-3.112,0.059-4.66c0.011-0.444,0.024-0.885,0.037-1.33c0.036-1.2,0.081-2.397,0.137-3.593
		c0.018-0.389,0.034-0.78,0.054-1.167c0.08-1.526,0.176-3.049,0.29-4.566c0.022-0.299,0.05-0.596,0.074-0.893
		c0.1-1.245,0.209-2.486,0.331-3.723c0.045-0.459,0.091-0.917,0.139-1.374c0.131-1.25,0.274-2.495,0.428-3.738
		c0.034-0.279,0.065-0.56,0.1-0.838c0.19-1.485,0.399-2.964,0.621-4.438c0.062-0.414,0.129-0.827,0.194-1.24
		c0.175-1.117,0.359-2.232,0.554-3.343c0.078-0.45,0.156-0.903,0.237-1.351c0.264-1.453,0.537-2.902,0.833-4.343
		c0.031-0.148,0.063-0.293,0.095-0.442c0.271-1.314,0.558-2.623,0.855-3.927c0.107-0.473,0.218-0.944,0.329-1.416
		c0.249-1.055,0.506-2.106,0.77-3.154c0.107-0.424,0.212-0.85,0.322-1.274c0.358-1.384,0.731-2.762,1.118-4.135
		c0.113-0.399,0.231-0.792,0.346-1.187c0.297-1.029,0.602-2.055,0.915-3.077c0.156-0.508,0.313-1.015,0.472-1.519
		c0.325-1.034,0.661-2.064,1.003-3.092c0.125-0.373,0.246-0.752,0.372-1.126c0.446-1.309,0.906-2.612,1.377-3.908
		c0.185-0.509,0.375-1.016,0.564-1.522c0.328-0.878,0.661-1.756,0.999-2.628c0.206-0.53,0.41-1.06,0.622-1.588
		c0.444-1.113,0.896-2.224,1.36-3.328c0.229-0.548,0.464-1.092,0.699-1.638c0.391-0.912,0.788-1.821,1.192-2.727
		c0.255-0.571,0.515-1.14,0.776-1.707c0.353-0.772,0.713-1.538,1.075-2.304c0.262-0.552,0.52-1.106,0.786-1.654
		c0.563-1.159,1.135-2.314,1.719-3.459c0.291-0.572,0.591-1.14,0.888-1.71c0.361-0.69,0.723-1.381,1.091-2.067
		c0.331-0.617,0.662-1.23,1-1.845c0.37-0.671,0.746-1.34,1.122-2.006c0.519-0.92,1.046-1.837,1.578-2.748
		c0.421-0.717,0.841-1.436,1.27-2.148c0.389-0.647,0.786-1.289,1.183-1.932c0.339-0.549,0.681-1.097,1.027-1.644
		c0.414-0.656,0.83-1.314,1.251-1.965c0.339-0.525,0.686-1.044,1.03-1.566c0.767-1.161,1.546-2.316,2.337-3.462
		c0.314-0.453,0.627-0.91,0.944-1.362c0.485-0.689,0.976-1.376,1.469-2.061c0.303-0.419,0.608-0.836,0.915-1.254
		c1.734-2.365,3.518-4.69,5.351-6.975c0.269-0.335,0.536-0.669,0.806-1.002c0.587-0.721,1.178-1.44,1.773-2.152
		c0.213-0.255,0.428-0.507,0.642-0.758c1.297-1.538,2.616-3.057,3.957-4.554c0.063-0.071,0.126-0.142,0.188-0.213
		c0.67-0.745,1.348-1.482,2.027-2.217c0.22-0.236,0.44-0.473,0.66-0.708c2.211-2.365,4.476-4.675,6.797-6.932
		c0.111-0.106,0.22-0.215,0.33-0.321c0.766-0.741,1.538-1.476,2.317-2.205c0.132-0.124,0.265-0.247,0.397-0.371
		c2.428-2.263,4.91-4.466,7.447-6.609c0.1-0.086,0.202-0.171,0.302-0.255c3.523-2.964,7.149-5.809,10.87-8.529
		c0.056-0.041,0.113-0.083,0.169-0.124c10.403-7.588,21.559-14.205,33.335-19.719c0.001,0,0.002,0,0.002-0.001
		c25.946-12.149,54.898-18.949,85.442-18.949C537.694,461.692,578.748,476.054,612.074,500.369L612.074,500.369z M762.312,327.177
		c-37.089,2.014-112.097-10.028-112.097-22.419c0-12.393,74.965-22.419,112.097-22.419c24.52,0,22.419,10.027,22.419,22.419
		C784.731,317.149,788.233,325.776,762.312,327.177L762.312,327.177z"/>
</g>
</svg>
