<?xml version="1.0" encoding="utf-8"?>
<!-- Generator: Adobe Illustrator 18.0.0, SVG Export Plug-In . SVG Version: 6.00 Build 0)  -->
<!DOCTYPE svg PUBLIC "-//W3C//DTD SVG 1.1//EN" "http://www.w3.org/Graphics/SVG/1.1/DTD/svg11.dtd">
<svg version="1.1" id="图形" xmlns="http://www.w3.org/2000/svg" xmlns:xlink="http://www.w3.org/1999/xlink" x="0px" y="0px"
	 viewBox="15.167 -16.333 1000.636 1000.678" enable-background="new 15.167 -16.333 1000.636 1000.678" xml:space="preserve">
<g>
	<path fill-rule="evenodd" clip-rule="evenodd" fill="#272536" d="M749.036,857.493h-45.269c-49.985,0-90.408-40.511-90.408-90.451
		V495.688c0-33.398,18.323-62.257,45.227-77.911v-35.175c0-37.446,30.418-67.863,67.86-67.863c37.533,0,67.818,30.418,67.818,67.863
		v35.175c26.859,15.655,45.269,44.513,45.269,77.911v271.354C839.533,816.981,799.067,857.493,749.036,857.493L749.036,857.493
		L749.036,857.493 M754.373,382.602c0-12.541-16.543-33.351-29.039-33.351c-12.449,0-29.037,20.854-29.037,33.351v22.634h58.119
		v-22.634H754.373L754.373,382.602 M811.427,495.688c0-24.948-20.232-63.458-45.27-63.458h-78.534
		c-24.902,0-45.18,38.51-45.18,63.458v271.354c0,25.038,20.278,59.189,45.18,59.189h78.534c25.038,0,45.27-34.198,45.27-59.189
		V495.688L811.427,495.688L811.427,495.688 M726.447,767.042c-12.497,0-20.456-10.14-20.456-22.633v-45.185
		c0-12.451,7.96-22.679,20.456-22.679c12.54,0,20.456,10.184,20.456,22.679v45.185C746.903,756.903,738.987,767.042,726.447,767.042
		L726.447,767.042L726.447,767.042 M477.681,857.493H251.555c-49.941,0-90.453-40.511-90.453-90.451V495.688
		c0-86.406,65.995-158.356,146.928-176.368c-3.692-8.314-5.914-17.431-5.914-27.17c0-29.437,24.193-57.942,49.541-63.323v-49.005
		c-37.932,1.644-81.826,16.675-108.286,40.555l-0.354-0.446c-3.692,2.581-7.871,4.449-12.718,4.449
		c-12.496,0-22.594-4.758-22.594-17.254c0-9.74,7.249-11.427,15.876-14.631c23.929-19.343,51.63-34.109,82.493-41.27
		c4.003-3.379,8.849-5.558,14.365-5.558h90.493c12.496,0,21.525,3.692,21.525,16.186c0,10.007-6.538,12.853-15.522,15.83
		l-1.467,0.136l-33.571,1.243v49.765c26.19,9.426,45.224,33.885,45.224,63.323c0,9.694-2.178,18.811-5.871,27.17
		c80.934,17.965,146.929,89.963,146.929,176.325v271.353C568.135,816.981,527.579,857.493,477.681,857.493L477.681,857.493
		L477.681,857.493 M364.64,264.178c-12.538,0-28.682,6.984-29.08,27.971c-0.225,12.452,8.804,27.974,29.08,27.974
		c17.833,0.044,26.905-15.522,26.905-27.93C391.544,279.653,380.961,261.511,364.64,264.178L364.64,264.178L364.64,264.178
		 M539.051,676.544V495.688c0-74.974-76.888-151.777-151.818-151.777h-45.228c-74.976,0-151.819,76.847-151.819,151.777v271.354
		c0,25.038,36.333,60.255,61.325,60.255h226.127c24.993,0,61.37-35.265,61.37-60.255v-90.498H539.051L539.051,676.544
		 M427.077,759.525H302.116c-24.992,0-45.179-12.716-45.179-37.755V586.094c0-24.991,20.232-37.754,45.179-37.754h124.962
		c24.992,0,45.224,12.763,45.224,37.754v135.675c0,25.039-14.896,37.755-39.888,37.755L427.077,759.525L427.077,759.525
		 M421.608,586.094H307.586c-12.498,0-22.591,10.141-22.591,22.591c0,12.538,10.094,22.682,22.591,22.682h113.975
		c12.54,0,22.637-10.144,22.637-22.682c0-12.45-21.923-22.591-34.418-22.591H421.608L421.608,586.094 M419.471,676.544H308.698
		c-12.54,0-22.634,10.184-22.634,22.679c0,12.409,10.094,26.819,22.634,26.819h110.773c12.541,0,22.638-14.367,22.638-26.819
		c0-12.45-19.789-22.679-32.286-22.679H419.471L419.471,676.544 M419.471,676.544L419.471,676.544z"/>
</g>
</svg>
