<?xml version="1.0" encoding="utf-8"?>
<!-- Generator: Adobe Illustrator 18.0.0, SVG Export Plug-In . SVG Version: 6.00 Build 0)  -->
<!DOCTYPE svg PUBLIC "-//W3C//DTD SVG 1.1//EN" "http://www.w3.org/Graphics/SVG/1.1/DTD/svg11.dtd">
<svg version="1.1" id="图形" xmlns="http://www.w3.org/2000/svg" xmlns:xlink="http://www.w3.org/1999/xlink" x="0px" y="0px"
	 viewBox="15.167 -16.333 1000.636 1000.678" enable-background="new 15.167 -16.333 1000.636 1000.678" xml:space="preserve">
<g>
	<path fill="#23AD23" d="M531.818,919.034c-56.757,0-111.835-11.124-163.704-33.063c-50.082-21.183-95.052-51.5-133.662-90.11
		s-68.928-83.581-90.11-133.662c-21.938-51.869-33.062-106.947-33.062-163.704s11.124-111.834,33.062-163.703
		c21.183-50.082,51.5-95.052,90.11-133.662c38.61-38.61,83.581-68.928,133.662-90.111c51.869-21.938,106.947-33.063,163.704-33.063
		s111.835,11.124,163.703,33.063c50.082,21.183,95.052,51.5,133.662,90.111c38.61,38.61,68.928,83.581,90.11,133.662
		c21.938,51.869,33.063,106.946,33.063,163.703s-11.124,111.835-33.063,163.704c-21.183,50.081-51.5,95.052-90.11,133.662
		s-83.58,68.928-133.662,90.11C643.653,907.91,588.575,919.034,531.818,919.034z M531.818,147.957
		c-193.288,0-350.539,157.251-350.539,350.539c0,193.288,157.251,350.539,350.539,350.539
		c193.287,0,350.538-157.251,350.538-350.539C882.356,305.208,725.105,147.957,531.818,147.957z"/>
</g>
<g>
	<path fill="#23AD23" d="M450.817,767.839c-10.909,0-21.196-5.086-27.819-13.762l-142-186c-11.73-15.364-8.784-37.328,6.581-49.058
		c15.364-11.729,37.328-8.784,49.058,6.581l113.956,149.266l280.242-373.049c11.609-15.456,33.553-18.571,49.005-6.961
		c15.455,11.61,18.572,33.55,6.962,49.005l-308,409.999c-6.582,8.763-16.889,13.936-27.848,13.979
		C450.909,767.839,450.862,767.839,450.817,767.839z"/>
</g>
</svg>
