<?xml version="1.0" encoding="utf-8"?>
<!-- Generator: Adobe Illustrator 18.0.0, SVG Export Plug-In . SVG Version: 6.00 Build 0)  -->
<!DOCTYPE svg PUBLIC "-//W3C//DTD SVG 1.1//EN" "http://www.w3.org/Graphics/SVG/1.1/DTD/svg11.dtd">
<svg version="1.1" id="图形" xmlns="http://www.w3.org/2000/svg" xmlns:xlink="http://www.w3.org/1999/xlink" x="0px" y="0px"
	 viewBox="15.167 -16.333 1000.636 1000.678" enable-background="new 15.167 -16.333 1000.636 1000.678" xml:space="preserve">
<g>
	<path fill-rule="evenodd" clip-rule="evenodd" fill="#33B5FF" d="M960.073,427.438c0,61.573-49.762,111.496-111.147,111.496
		c-61.384,0-111.145-49.923-111.145-111.496l0,0l0,0l0,0c0,61.573-49.766,111.496-111.148,111.496
		c-61.387,0-111.149-49.923-111.149-111.496l0,0l0,0l0,0l0,0c0,61.573-49.762,111.496-111.147,111.496
		c-61.384,0-111.148-49.923-111.148-111.496l0,0l0,0l0,0l0,0c0,61.573-49.759,111.496-111.143,111.496
		c-61.389,0-111.151-49.923-111.151-111.496l0,0l0,0l0,0l78.153-209.058h732.873L960.073,427.438L960.073,427.438L960.073,427.438
		L960.073,427.438z M821.141,176.57H209.833c-23.021,0-41.68-18.717-41.68-41.811c0-23.093,18.658-41.81,41.68-41.81h611.308
		c23.018,0,41.676,18.717,41.676,41.81C862.817,157.854,844.158,176.57,821.141,176.57L821.141,176.57z M195.939,580.065v-0.026
		c3.989-0.363,7.907-0.965,11.804-1.631c0.84-0.148,1.705-0.213,2.537-0.368c1.8-0.339,3.533-0.844,5.309-1.249
		c7.546-1.728,14.939-3.874,22.029-6.663v0.024l0,0v205.704h555.733V570.152l0,0v-0.024c7.08,2.782,14.465,4.928,22.002,6.655
		c1.783,0.406,3.528,0.917,5.335,1.257c0.832,0.153,1.694,0.22,2.534,0.366c3.895,0.668,7.816,1.27,11.808,1.633v0.026
		c4.579,0.43,9.207,0.681,13.895,0.681c9.506,0,18.765-0.992,27.786-2.655v281.391c0,23.089-18.658,41.812-41.682,41.812H195.939
		c-23.02,0-41.678-18.723-41.678-41.812V578.091c9.021,1.663,18.281,2.655,27.787,2.655
		C186.733,580.746,191.36,580.495,195.939,580.065L195.939,580.065z"/>
</g>
</svg>
