<?xml version="1.0" encoding="utf-8"?>
<!-- Generator: Adobe Illustrator 18.0.0, SVG Export Plug-In . SVG Version: 6.00 Build 0)  -->
<!DOCTYPE svg PUBLIC "-//W3C//DTD SVG 1.1//EN" "http://www.w3.org/Graphics/SVG/1.1/DTD/svg11.dtd">
<svg version="1.1" id="图形" xmlns="http://www.w3.org/2000/svg" xmlns:xlink="http://www.w3.org/1999/xlink" x="0px" y="0px"
	 viewBox="15.167 -16.333 1000.636 1000.678" enable-background="new 15.167 -16.333 1000.636 1000.678" xml:space="preserve">
<g>
	<path fill-rule="evenodd" clip-rule="evenodd" fill="#272536" d="M797.604,786.221H255.64c-16.086,0-29.741-11.488-32.549-27.316
		l-78.496-445.721c-2.429-13.663,4.08-27.446,16.081-34.339c12.125-6.89,27.187-5.486,37.779,3.446l165.422,140.791l135.048-208.952
		c12.127-18.887,43.269-18.887,55.395,0l135.042,208.823l165.295-140.791c10.596-9.061,25.788-10.334,37.784-3.446
		c12.126,6.895,18.505,20.678,16.079,34.339L830.153,759.03C827.345,774.735,813.684,786.221,797.604,786.221L797.604,786.221
		 M283.341,720.228h486.563l57.825-328.164L703.534,497.75c-7.278,6.126-16.725,8.807-26.172,7.535
		c-9.44-1.409-17.741-6.767-22.974-14.678L526.62,292.889L398.854,490.606c-5.238,8.039-13.534,13.401-22.979,14.678
		c-9.569,1.401-19.015-1.409-26.166-7.535L225.516,392.064L283.341,720.228L283.341,720.228 M283.341,720.228L283.341,720.228z
		 M797.604,892.929H255.64c-18.255,0-33.061-14.805-33.061-33.059s14.806-33.059,33.061-33.059h541.965
		c18.253,0,33.061,14.805,33.061,33.059S815.857,892.929,797.604,892.929L797.604,892.929 M797.604,892.929L797.604,892.929z
		 M133.072,215.454L133.072,215.454z M80.162,215.454L80.162,215.454z M528.182,131.258L528.182,131.258z M475.274,131.258
		L475.274,131.258z M920.473,212.44L920.473,212.44z M867.564,212.44L867.564,212.44z"/>
</g>
</svg>
