<?xml version="1.0" encoding="utf-8"?>
<!-- Generator: Adobe Illustrator 18.0.0, SVG Export Plug-In . SVG Version: 6.00 Build 0)  -->
<!DOCTYPE svg PUBLIC "-//W3C//DTD SVG 1.1//EN" "http://www.w3.org/Graphics/SVG/1.1/DTD/svg11.dtd">
<svg version="1.1" id="图形" xmlns="http://www.w3.org/2000/svg" xmlns:xlink="http://www.w3.org/1999/xlink" x="0px" y="0px"
	 viewBox="0 0 500 500" enable-background="new 0 0 500 500" xml:space="preserve">
<g>
	<path fill="#FFFFFF" d="M406.1,384.7H135.3c-8,0-14.9-5.7-16.3-13.6L79.8,148.3c-1.2-6.8,2-13.7,8-17.2c6.1-3.4,13.6-2.7,18.9,1.7
		l82.7,70.3l67.5-104.4c6.1-9.4,21.6-9.4,27.7,0L352,203.2l82.6-70.3c5.3-4.5,12.9-5.2,18.9-1.7c6.1,3.4,9.2,10.3,8,17.2
		l-39.2,222.8C421,378.9,414.2,384.7,406.1,384.7L406.1,384.7 M149.2,351.7h243.1l28.9-164l-62.1,52.8c-3.6,3.1-8.4,4.4-13.1,3.8
		c-4.7-0.7-8.9-3.4-11.5-7.3l-63.8-98.8L206.9,237c-2.6,4-6.8,6.7-11.5,7.3c-4.8,0.7-9.5-0.7-13.1-3.8l-62.1-52.8L149.2,351.7
		L149.2,351.7 M149.2,351.7L149.2,351.7z M406.1,438H135.3c-9.1,0-16.5-7.4-16.5-16.5c0-9.1,7.4-16.5,16.5-16.5h270.8
		c9.1,0,16.5,7.4,16.5,16.5C422.7,430.6,415.3,438,406.1,438L406.1,438 M406.1,438L406.1,438z M74.1,99.5L74.1,99.5z M47.7,99.5
		L47.7,99.5z M271.5,57.4L271.5,57.4z M245.1,57.4L245.1,57.4z M467.5,98L467.5,98z M441.1,98L441.1,98z"/>
</g>
</svg>
