<?xml version="1.0" encoding="utf-8"?>
<!-- Generator: Adobe Illustrator 18.0.0, SVG Export Plug-In . SVG Version: 6.00 Build 0)  -->
<!DOCTYPE svg PUBLIC "-//W3C//DTD SVG 1.1//EN" "http://www.w3.org/Graphics/SVG/1.1/DTD/svg11.dtd">
<svg version="1.1" id="图形" xmlns="http://www.w3.org/2000/svg" xmlns:xlink="http://www.w3.org/1999/xlink" x="0px" y="0px"
	 viewBox="0 0 500 500" enable-background="new 0 0 500 500" xml:space="preserve">
<g>
	<path fill="#FFFFFF" d="M457.1,258h-14.4H414H198.2h-72V114.1c0-23.8,19.3-43.2,43.2-43.2h28.8v28.8h71.9V42.1h-71.9H155
		c-31.8,0-57.6,25.8-57.6,57.6V258H83c-7.9,0-14.4,6.4-14.4,14.4c0,7.9,6.4,14.4,14.4,14.4h14.4v28.8c0,40.1,23.6,74.5,57.6,90.7
		c0,7,0,38.8,0,38.8h28.8v-30.2c4.7,0.7,9.5,1.5,14.4,1.5H342c4.9,0,9.6-0.8,14.4-1.5V445h28.8v-38.8c33.9-16.2,57.6-50.6,57.6-90.7
		v-28.8h14.4c7.9,0,14.4-6.4,14.4-14.4C471.5,264.4,465.1,258,457.1,258L457.1,258z M414,309.8c0,42.9-34.8,77.7-77.7,77.7H203.9
		c-42.9,0-77.7-34.8-77.7-77.7v-23h71.9H414L414,309.8L414,309.8z"/>
	<polygon fill="#FFFFFF" points="198.2,128.5 212.5,128.5 212.5,157.2 198.2,157.2 	"/>
	<polygon fill="#FFFFFF" points="226.9,128.5 241.3,128.5 241.3,157.2 226.9,157.2 	"/>
	<polygon fill="#FFFFFF" points="255.7,128.5 270.1,128.5 270.1,157.2 255.7,157.2 	"/>
	<polygon fill="#FFFFFF" points="198.2,171.6 212.5,171.6 212.5,200.4 198.2,200.4 	"/>
	<polygon fill="#FFFFFF" points="226.9,171.6 241.3,171.6 241.3,200.4 226.9,200.4 	"/>
	<polygon fill="#FFFFFF" points="255.7,171.6 270.1,171.6 270.1,200.4 255.7,200.4 	"/>
</g>
</svg>
