<?xml version="1.0" encoding="utf-8"?>
<!-- Generator: Adobe Illustrator 18.0.0, SVG Export Plug-In . SVG Version: 6.00 Build 0)  -->
<!DOCTYPE svg PUBLIC "-//W3C//DTD SVG 1.1//EN" "http://www.w3.org/Graphics/SVG/1.1/DTD/svg11.dtd">
<svg version="1.1" id="图形" xmlns="http://www.w3.org/2000/svg" xmlns:xlink="http://www.w3.org/1999/xlink" x="0px" y="0px"
	 viewBox="0 0 500 500" enable-background="new 0 0 500 500" xml:space="preserve">
<g>
	<path fill="#FFFFFF" d="M270.2,447.9c-97.9,0-174.6-50.5-174.6-114.9c0-64.5,76.7-114.9,174.6-114.9S444.7,268.5,444.7,333
		C444.7,397.4,368.1,447.9,270.2,447.9L270.2,447.9z M270.2,252c-76.2,0-140.6,37.1-140.6,80.9s64.4,80.9,140.6,80.9
		s140.6-37.1,140.6-80.9S346.4,252,270.2,252L270.2,252z"/>
	<path fill="#FFFFFF" d="M270.2,395.8c-67.4,0-118.2-27-118.2-62.8c0-35.8,50.8-62.8,118.2-62.8s118.2,27,118.2,62.8
		C388.4,368.8,337.6,395.8,270.2,395.8L270.2,395.8z M270.2,298.5c-54.9,0-89.9,20.4-89.9,34.5c0,14.1,35,34.5,89.9,34.5
		s89.9-20.4,89.9-34.5C360.1,318.9,325,298.5,270.2,298.5L270.2,298.5z"/>
	<path fill="#FFFFFF" d="M393,231.9c-5.1,0-10.1-2.3-13.5-6.6c-5.7-7.4-4.4-18.1,3-23.8c12.8-9.9,28.1-26.3,28.1-47.8
		c0-43.9-64.4-81-140.6-81s-140.6,37.1-140.6,81c0,21.6,15.3,37.9,28.1,47.8c7.4,5.7,8.8,16.4,3,23.8c-5.7,7.4-16.4,8.8-23.8,3.1
		c-26.6-20.6-41.3-47.1-41.3-74.7c0-64.5,76.7-115,174.6-115s174.6,50.5,174.6,115c0,27.6-14.7,54.2-41.3,74.7
		C400.3,230.7,396.7,231.9,393,231.9L393,231.9z"/>
</g>
</svg>
