<?xml version="1.0" encoding="utf-8"?>
<!-- Generator: Adobe Illustrator 18.0.0, SVG Export Plug-In . SVG Version: 6.00 Build 0)  -->
<!DOCTYPE svg PUBLIC "-//W3C//DTD SVG 1.1//EN" "http://www.w3.org/Graphics/SVG/1.1/DTD/svg11.dtd">
<svg version="1.1" id="图形" xmlns="http://www.w3.org/2000/svg" xmlns:xlink="http://www.w3.org/1999/xlink" x="0px" y="0px"
	 viewBox="0 0 500 500" enable-background="new 0 0 500 500" xml:space="preserve">
<g>
	<path fill="#FFFFFF" d="M214.3,241.9c-23.1,0-42.6-15.4-42.6-33.6c0-16.7,20.8-31.9,43.6-31.9c39.5,0,43.8,22.8,43.8,32.6
		C259,231.4,232.3,241.9,214.3,241.9L214.3,241.9 M215.1,195.6c-13.6,0-23.6,8.7-23.6,13.2c0,5.9,8.9,14.5,22.9,14.5
		c12.1,0,24.4-7,24.4-14C238.9,196.9,222.3,195.6,215.1,195.6L215.1,195.6 M270,435.6c-69.7,0-115-46.7-116.9-48.7
		c-2.6-2.7-3.2-7.3-1.3-10.8l12.6-23.9l-21.5,14.4c-2.6,1.7-5.7,1.4-8-0.9c-1.1-1.1-10.7-11.3-22.7-46c-12.4-35.5-9.4-59.1-9.3-60.1
		c0.4-3,2.2-5.5,4.6-6.6l23.8-10.1l-22.4-7.6c-3.3-1.1-5.5-5-5.1-9.1c2.9-28.7,16.9-58.3,38.4-81.2C156.6,129.9,200,83.6,270,83.6
		c70,0,113.4,46.3,127.6,61.5c21.5,23,35.5,52.6,38.4,81.2c0.4,4.1-1.7,7.9-5.1,9.1l-22.4,7.6l23.8,10.1c2.4,1,4.2,3.6,4.6,6.6
		c0.1,1,3.1,24.6-9.3,60.1c-12,34.7-21.6,44.9-22.7,46c-2.2,2.2-5.4,2.6-8,0.9l-21.9-13.6l13,23.1c1.8,3.5,1.3,8-1.3,10.8
		C385,389,339.7,435.6,270,435.6L270,435.6 M176.6,375.3c11.9,10.9,45.8,37.8,94.3,37.8c48.5,0,81.1-25.3,93-36.2l-23.4-44.1
		c-1.6-3.2-2.8-10.4,0.9-14c4.4-4.1,9.3-2.6,13.5-0.3l38.1,19c3.1-5.1,6.4-8.1,12.6-27c7.1-21.5,8-33.1,8-40.6L376.4,252
		c-2.7-1.2-6.4-5-6.4-9.6c0-4.7,4.1-9.5,6.8-10.4l34.9-14.1c-3.6-21.9-14.5-41.3-30.6-59.2c-12.4-13.8-50-55.7-110.2-55.7
		c-60.3,0-97.9,41.9-110.2,55.7c-16,17.9-27,38.5-30.6,60.4l34.9,12.4c2.7,1,8,5.8,8,11.3c0,6.5-5.8,10-8.4,11.2L128,269.9
		c-0.1,7.5,0.8,19.1,8,40.6c6.2,18.9,8.7,21.1,11.8,26.2l36.3-20.4c2.6-1.8,11.5-4.3,15.7-1c5.4,4.3,2.8,11.3,1.2,14.5L176.6,375.3
		L176.6,375.3 M325,241.9c-18,0-44.7-10.5-44.7-32.9c0-9.8,4.3-32.6,43.8-32.6c22.8,0,43.6,15.2,43.6,31.9
		C367.6,226.8,348.5,241.9,325,241.9L325,241.9 M324.4,196c-7,0-23.3,1.3-23.3,13.5c0,6.8,12.1,13.7,24,13.7
		c13.8,0,22.2-8.4,22.2-14.2C347.2,204.6,337.8,196,324.4,196L324.4,196 M289.9,298.1h-40.1c-6,0-13.7-5.2-16.6-10.5
		c-3.3-5.9-2.4-13.5,0.3-20c2.6-6.3,9-17.2,11.8-19.9c2.4-2.5,9.5-5.6,14.5-1.4c3.8,3.1,2.8,10.2,0.5,13.8c-5,7.6-6.1,10.5-6.9,12.6
		c-0.6,1.4-1.2,4.4-0.4,5.9c0.2,0.5,1.4,1.9,4.4,1.9H281c3,0,3.8-1.4,4-1.9c0.8-1.5,0.6-4.4,0-5.8c-1.4-3.8-2.2-6.6-5.3-12.2
		c-1.7-3-2.8-11,1.7-13.9c6.8-4.4,12.1,0.7,14.5,3.1c2.8,2.8,6.7,11.9,9,18.3c1.6,4.6,3,14.9-0.2,20.8
		C301.9,294.1,295.8,298.1,289.9,298.1L289.9,298.1 M269.6,371.3c-22.1,0-37.2-11.2-43.4-20.8c-4.1-6.3-4.2-11.7-3.5-15.1
		c0.7-3.5,2.7-8.4,8.9-12.1c6.1-3.7,23.6-7.8,38-7.8c14.4,0,32,4.1,38,7.8c6.1,3.7,8.2,8.6,8.9,12.1c0.6,3.4,0.5,8.8-3.5,15.1
		C306.8,360,291.7,371.3,269.6,371.3L269.6,371.3 M268.9,333.6c-11,0-19.1,3.3-22,5.1c-1.6,1-2.1,1.9-2.2,2.2
		c-0.1,0.3,0.1,1.2,1.1,2.7c3,4.6,8,9.2,23.4,9.2c15.3,0,20.7-4.6,23.7-9.2c1-1.5,1.1-2.4,1.1-2.7c0-0.3-0.5-1.2-2.2-2.1
		C288.9,337,279.9,333.6,268.9,333.6L268.9,333.6 M268.9,333.6L268.9,333.6z"/>
</g>
</svg>
