<?xml version="1.0" encoding="utf-8"?>
<!-- Generator: Adobe Illustrator 18.0.0, SVG Export Plug-In . SVG Version: 6.00 Build 0)  -->
<!DOCTYPE svg PUBLIC "-//W3C//DTD SVG 1.1//EN" "http://www.w3.org/Graphics/SVG/1.1/DTD/svg11.dtd">
<svg version="1.1" id="图形" xmlns="http://www.w3.org/2000/svg" xmlns:xlink="http://www.w3.org/1999/xlink" x="0px" y="0px"
	 viewBox="0 0 500 500" enable-background="new 0 0 500 500" xml:space="preserve">
<g>
	<path fill="#FFFFFF" d="M388.5,110.5h-22.4c-14.6,0-41,9.4-51.5,22.4h-26.9v-11.2c0-18.6-15.1-33.6-33.6-33.6
		c-18.6,0-33.6,15.1-33.6,33.6v11.2h-33.6c-6.2,0-11.2,5-11.2,11.2c0,6.2,5,11.2,11.2,11.2h33.6v6c-13.4,7.7-22.4,22.2-22.4,38.8
		c0,4.4,0.6,8.6,1.8,12.6c-40.9,20.1-69,62.1-69,110.7c0,68,55.2,123.2,123.2,123.2c68,0,123.2-55.2,123.2-123.2
		c0-48.6-28.1-90.6-69-110.7c1.2-4,1.8-8.2,1.8-12.6c0-16.6-9-31.1-22.4-38.8v-6h26.9c10.5,13,36.9,22.4,51.5,22.4h22.4
		c18.6,0,33.6-15.1,33.6-33.6C422.1,125.6,407,110.5,388.5,110.5L388.5,110.5z M254.1,110.5c6.2,0,11.2,5,11.2,11.2
		c0,6.2-5,11.2-11.2,11.2c-6.2,0-11.2-5-11.2-11.2C242.9,115.5,247.9,110.5,254.1,110.5L254.1,110.5z M231.7,177.7h44.8
		c6.2,0,11.2,5,11.2,11.2c0,6.2-5,11.2-11.2,11.2h-44.8c-6.2,0-11.2-5-11.2-11.2C220.5,182.7,225.5,177.7,231.7,177.7L231.7,177.7z
		 M313.4,241.8C313.5,241.9,313.5,241.9,313.4,241.8c1.9,1.4,3.8,2.8,5.5,4.3c0,0,0.1,0.1,0.1,0.1c1.3,1.1,2.5,2.2,3.7,3.3
		c0.1,0.1,0.1,0.1,0.2,0.2c0.4,0.4,0.8,0.7,1.2,1.1c0.1,0,0.1,0.1,0.2,0.1c1.2,1.1,2.3,2.3,3.4,3.5c0.1,0.1,0.2,0.2,0.3,0.3
		c0.3,0.4,0.7,0.7,1,1.1c0,0,0.1,0.1,0.1,0.1c0.7,0.8,1.3,1.5,2,2.3c0.1,0.1,0.2,0.2,0.3,0.4c0.3,0.4,0.6,0.7,0.9,1.1
		c0.1,0.2,0.3,0.3,0.4,0.5c0.9,1.1,1.8,2.3,2.7,3.5c0.2,0.2,0.3,0.4,0.5,0.6c0.2,0.3,0.5,0.7,0.7,1c0.2,0.2,0.3,0.4,0.5,0.7
		c0.4,0.6,0.8,1.2,1.2,1.8c0.2,0.3,0.3,0.5,0.5,0.8c0.2,0.3,0.4,0.7,0.6,1c0.2,0.3,0.3,0.5,0.5,0.8c0.2,0.3,0.4,0.6,0.6,1
		c0.2,0.4,0.4,0.7,0.6,1.1c0.3,0.5,0.5,0.9,0.8,1.4c0.2,0.3,0.4,0.7,0.6,1c0.2,0.3,0.3,0.6,0.5,0.9c0.2,0.3,0.4,0.7,0.5,1
		c0.1,0.3,0.3,0.6,0.4,0.9c0.3,0.6,0.6,1.1,0.9,1.7c0.1,0.3,0.3,0.6,0.4,0.8c0.2,0.4,0.4,0.8,0.5,1.1c0.1,0.3,0.3,0.6,0.4,0.9
		c0.2,0.5,0.4,0.9,0.6,1.4c0.1,0.3,0.2,0.6,0.4,0.8c0.2,0.5,0.5,1.1,0.7,1.7c0.1,0.3,0.2,0.5,0.3,0.8c0.2,0.4,0.3,0.9,0.5,1.3
		c0.1,0.3,0.2,0.5,0.3,0.8c0.2,0.6,0.5,1.3,0.7,2c0.1,0.2,0.1,0.4,0.2,0.6c0.2,0.5,0.3,1,0.5,1.5c0.1,0.3,0.2,0.5,0.2,0.8
		c0.2,0.5,0.3,1,0.5,1.5c0.1,0.2,0.1,0.4,0.2,0.6c0.2,0.7,0.4,1.4,0.6,2.1c0.1,0.2,0.1,0.4,0.2,0.6c0.1,0.5,0.3,1,0.4,1.6
		c0.1,0.2,0.1,0.5,0.2,0.7c0.1,0.7,0.3,1.3,0.4,2c0,0.1,0,0.1,0,0.2c0.1,0.7,0.3,1.4,0.4,2.2c0,0.2,0.1,0.4,0.1,0.7
		c0.1,0.6,0.2,1.1,0.3,1.7c0,0.2,0.1,0.4,0.1,0.6c0.1,0.7,0.2,1.5,0.3,2.2c0,0.1,0,0.3,0,0.4c0.1,0.6,0.1,1.2,0.2,1.9
		c0,0.2,0,0.5,0.1,0.7c0.1,0.6,0.1,1.2,0.2,1.9c0,0.1,0,0.3,0,0.4c0.1,0.8,0.1,1.5,0.1,2.3c0,0.2,0,0.4,0,0.6c0,0.6,0.1,1.2,0.1,1.8
		c0,0.2,0,0.4,0,0.7c0,0.8,0,1.5,0,2.3c0,55.7-45.1,100.8-100.8,100.8c-55.7,0-100.8-45.1-100.8-100.8c0-0.8,0-1.6,0-2.3
		c0-0.2,0-0.4,0-0.7c0-0.6,0-1.2,0.1-1.8c0-0.2,0-0.4,0-0.6c0-0.8,0.1-1.5,0.1-2.3c0-0.1,0-0.3,0-0.4c0-0.6,0.1-1.2,0.2-1.9
		c0-0.2,0-0.5,0.1-0.7c0.1-0.6,0.1-1.2,0.2-1.9c0-0.1,0-0.3,0-0.4c0.1-0.7,0.2-1.5,0.3-2.2c0-0.2,0.1-0.4,0.1-0.6
		c0.1-0.6,0.2-1.1,0.3-1.7c0-0.2,0.1-0.5,0.1-0.7c0.1-0.7,0.3-1.5,0.4-2.2c0-0.1,0-0.1,0-0.2c0.1-0.7,0.3-1.3,0.4-2
		c0.1-0.2,0.1-0.5,0.2-0.7c0.1-0.5,0.3-1.1,0.4-1.6c0.1-0.2,0.1-0.4,0.2-0.6c0.2-0.7,0.4-1.4,0.6-2.1c0.1-0.2,0.1-0.4,0.2-0.6
		c0.1-0.5,0.3-1,0.5-1.5c0.1-0.3,0.2-0.5,0.2-0.8c0.2-0.5,0.3-1,0.5-1.5c0.1-0.2,0.1-0.4,0.2-0.6c0.2-0.7,0.5-1.3,0.7-2
		c0.1-0.3,0.2-0.5,0.3-0.8c0.2-0.4,0.3-0.9,0.5-1.3c0.1-0.3,0.2-0.5,0.3-0.8c0.2-0.6,0.4-1.1,0.7-1.7c0.1-0.3,0.2-0.5,0.3-0.8
		c0.2-0.5,0.4-0.9,0.6-1.4c0.1-0.3,0.3-0.6,0.4-0.9c0.2-0.4,0.4-0.8,0.5-1.2c0.1-0.3,0.3-0.6,0.4-0.8c0.3-0.6,0.6-1.2,0.9-1.7
		c0.1-0.3,0.3-0.6,0.4-0.9c0.2-0.3,0.4-0.7,0.5-1c0.2-0.3,0.3-0.6,0.5-0.9c0.2-0.3,0.4-0.7,0.6-1c0.3-0.5,0.5-0.9,0.8-1.4
		c0.2-0.4,0.4-0.7,0.6-1.1c0.2-0.3,0.4-0.6,0.6-1c0.2-0.3,0.3-0.5,0.5-0.8c0.2-0.3,0.4-0.7,0.6-1c0.2-0.3,0.3-0.5,0.5-0.8
		c0.4-0.6,0.8-1.2,1.2-1.7c0.2-0.2,0.3-0.5,0.5-0.7c0.2-0.3,0.5-0.7,0.7-1c0.2-0.2,0.3-0.4,0.5-0.6c0.9-1.2,1.8-2.3,2.7-3.5
		c0.1-0.2,0.3-0.3,0.4-0.5c0.3-0.4,0.6-0.7,0.9-1.1c0.1-0.1,0.2-0.3,0.3-0.4c0.6-0.8,1.3-1.5,2-2.3c0,0,0.1-0.1,0.1-0.1
		c0.3-0.4,0.7-0.7,1-1.1c0.1-0.1,0.2-0.2,0.3-0.4c1.1-1.2,2.2-2.3,3.4-3.5c0.1-0.1,0.1-0.1,0.2-0.2c0.4-0.4,0.8-0.7,1.2-1.1
		c0.1-0.1,0.1-0.1,0.2-0.2c1.2-1.1,2.5-2.2,3.7-3.3c0,0,0.1-0.1,0.2-0.1c1.8-1.5,3.6-2.9,5.4-4.3c0,0,0.1,0,0.1-0.1
		c5.2-3.8,10.8-7.1,16.7-9.9c0,0,0,0,0,0c13-6.1,27.4-9.5,42.7-9.5C276.3,222.5,296.8,229.7,313.4,241.8L313.4,241.8z M388.5,155.3
		c-18.5,1-56-5-56-11.2c0-6.2,37.5-11.2,56-11.2c12.3,0,11.2,5,11.2,11.2C399.7,150.3,401.4,154.6,388.5,155.3L388.5,155.3z"/>
</g>
</svg>
