<?xml version="1.0" encoding="utf-8"?>
<!-- Generator: Adobe Illustrator 18.0.0, SVG Export Plug-In . SVG Version: 6.00 Build 0)  -->
<!DOCTYPE svg PUBLIC "-//W3C//DTD SVG 1.1//EN" "http://www.w3.org/Graphics/SVG/1.1/DTD/svg11.dtd">
<svg version="1.1" id="图形" xmlns="http://www.w3.org/2000/svg" xmlns:xlink="http://www.w3.org/1999/xlink" x="0px" y="0px"
	 viewBox="0 0 500 500" enable-background="new 0 0 500 500" xml:space="preserve">
<g>
	<path fill="#FFFFFF" d="M381.9,420.3h-22.6c-25,0-45.2-20.2-45.2-45.2V239.5c0-16.7,9.2-31.1,22.6-38.9V183
		c0-18.7,15.2-33.9,33.9-33.9c18.8,0,33.9,15.2,33.9,33.9v17.6c13.4,7.8,22.6,22.2,22.6,38.9v135.6
		C427.1,400,406.9,420.3,381.9,420.3L381.9,420.3L381.9,420.3 M384.5,183c0-6.3-8.3-16.7-14.5-16.7c-6.2,0-14.5,10.4-14.5,16.7v11.3
		h29L384.5,183L384.5,183L384.5,183 M413,239.5c0-12.5-10.1-31.7-22.6-31.7h-39.2c-12.4,0-22.6,19.2-22.6,31.7v135.6
		c0,12.5,10.1,29.6,22.6,29.6h39.2c12.5,0,22.6-17.1,22.6-29.6V239.5L413,239.5L413,239.5 M370.6,375.1c-6.2,0-10.2-5.1-10.2-11.3
		v-22.6c0-6.2,4-11.3,10.2-11.3c6.3,0,10.2,5.1,10.2,11.3v22.6C380.8,370,376.8,375.1,370.6,375.1L370.6,375.1L370.6,375.1
		 M246.3,420.3h-113c-25,0-45.2-20.2-45.2-45.2V239.5c0-43.2,33-79.1,73.4-88.1c-1.8-4.2-3-8.7-3-13.6c0-14.7,12.1-29,24.8-31.6
		V81.7c-19,0.8-40.9,8.3-54.1,20.3l-0.2-0.2c-1.8,1.3-3.9,2.2-6.4,2.2c-6.2,0-11.3-2.4-11.3-8.6c0-4.9,3.6-5.7,7.9-7.3
		c12-9.7,25.8-17,41.2-20.6c2-1.7,4.4-2.8,7.2-2.8h45.2c6.2,0,10.8,1.8,10.8,8.1c0,5-3.3,6.4-7.8,7.9l-0.7,0.1l-16.8,0.6v24.9
		c13.1,4.7,22.6,16.9,22.6,31.6c0,4.8-1.1,9.4-2.9,13.6c40.4,9,73.4,45,73.4,88.1v135.6C291.5,400,271.2,420.3,246.3,420.3
		L246.3,420.3L246.3,420.3 M189.8,123.8c-6.3,0-14.3,3.5-14.5,14c-0.1,6.2,4.4,14,14.5,14c8.9,0,13.4-7.8,13.4-14
		C203.2,131.6,198,122.5,189.8,123.8L189.8,123.8L189.8,123.8 M276.9,329.9v-90.4c0-37.5-38.4-75.8-75.9-75.8h-22.6
		c-37.5,0-75.9,38.4-75.9,75.8v135.6c0,12.5,18.2,30.1,30.6,30.1h113c12.5,0,30.7-17.6,30.7-30.1L276.9,329.9L276.9,329.9
		L276.9,329.9 M221,371.3h-62.4c-12.5,0-22.6-6.4-22.6-18.9v-67.8c0-12.5,10.1-18.9,22.6-18.9H221c12.5,0,22.6,6.4,22.6,18.9v67.8
		c0,12.5-7.4,18.9-19.9,18.9L221,371.3L221,371.3 M218.3,284.7h-57c-6.2,0-11.3,5.1-11.3,11.3c0,6.3,5,11.3,11.3,11.3h56.9
		c6.3,0,11.3-5.1,11.3-11.3c0-6.2-11-11.3-17.2-11.3H218.3L218.3,284.7 M217.2,329.9h-55.3c-6.3,0-11.3,5.1-11.3,11.3
		c0,6.2,5,13.4,11.3,13.4h55.3c6.3,0,11.3-7.2,11.3-13.4c0-6.2-9.9-11.3-16.1-11.3H217.2L217.2,329.9 M217.2,329.9L217.2,329.9z"/>
</g>
</svg>
