<?xml version="1.0" encoding="utf-8"?>
<!-- Generator: Adobe Illustrator 18.0.0, SVG Export Plug-In . SVG Version: 6.00 Build 0)  -->
<!DOCTYPE svg PUBLIC "-//W3C//DTD SVG 1.1//EN" "http://www.w3.org/Graphics/SVG/1.1/DTD/svg11.dtd">
<svg version="1.1" id="图形" xmlns="http://www.w3.org/2000/svg" xmlns:xlink="http://www.w3.org/1999/xlink" x="0px" y="0px"
	 viewBox="15.167 -16.333 1000.636 1000.678" enable-background="new 15.167 -16.333 1000.636 1000.678" xml:space="preserve">
<g>
	<path fill-rule="evenodd" clip-rule="evenodd" fill="#272536" d="M525.526,912.814c-195.904,0-349.359-101.048-349.359-230.048
		c0-129.001,153.454-230.049,349.359-230.049s349.359,101.048,349.359,230.049C874.885,811.766,721.431,912.814,525.526,912.814
		L525.526,912.814z M525.526,520.761c-152.491,0-281.314,74.191-281.314,162.004s128.823,162.004,281.314,162.004
		S806.84,770.578,806.84,682.765S678.017,520.761,525.526,520.761L525.526,520.761z"/>
	<path fill-rule="evenodd" clip-rule="evenodd" fill="#272536" d="M525.526,808.477c-134.859,0-236.561-54.046-236.561-125.712
		c0-71.655,101.702-125.69,236.561-125.69s236.561,54.035,236.561,125.69C762.087,754.431,660.385,808.477,525.526,808.477
		L525.526,808.477z M525.526,613.779c-109.797,0-179.857,40.855-179.857,68.986c0,28.136,70.06,69.007,179.857,69.007
		s179.857-40.872,179.857-69.007C705.383,654.634,635.323,613.779,525.526,613.779L525.526,613.779z"/>
	<path fill-rule="evenodd" clip-rule="evenodd" fill="#272536" d="M771.412,480.426c-10.179,0-20.234-4.541-26.935-13.212
		c-11.495-14.868-8.76-36.232,6.103-47.728c25.672-19.841,56.26-52.562,56.26-95.759c0-87.819-128.823-162.016-281.314-162.016
		s-281.314,74.196-281.314,162.016c0,43.197,30.588,75.918,56.26,95.759c14.863,11.495,17.599,32.86,6.102,47.728
		c-11.495,14.868-32.87,17.593-47.722,6.108c-53.314-41.222-82.685-94.348-82.685-149.595c0-129.006,153.454-230.06,349.359-230.06
		s349.359,101.054,349.359,230.06c0,55.247-29.37,108.374-82.685,149.595C786.008,478.105,778.677,480.426,771.412,480.426
		L771.412,480.426z"/>
</g>
</svg>
