<?xml version="1.0" encoding="utf-8"?>
<!-- Generator: Adobe Illustrator 18.0.0, SVG Export Plug-In . SVG Version: 6.00 Build 0)  -->
<!DOCTYPE svg PUBLIC "-//W3C//DTD SVG 1.1//EN" "http://www.w3.org/Graphics/SVG/1.1/DTD/svg11.dtd">
<svg version="1.1" id="图形" xmlns="http://www.w3.org/2000/svg" xmlns:xlink="http://www.w3.org/1999/xlink" x="0px" y="0px"
	 viewBox="15.167 -16.333 1000.636 1000.678" enable-background="new 15.167 -16.333 1000.636 1000.678" xml:space="preserve">
<g>
	<path fill-rule="evenodd" clip-rule="evenodd" fill="#272536" d="M789.817,115.669H248.153
		c-74.791,0-135.419,60.63-135.419,135.416v541.643c0,74.786,60.628,135.41,135.419,135.41h541.664
		c74.79,0,135.419-60.624,135.419-135.41l-0.001-541.643C925.235,176.298,864.607,115.669,789.817,115.669L789.817,115.669z
		 M760.587,573.641h-193.31l-0.001,176.001c0,27.293-22.123,49.431-49.423,49.431c-27.3-0.011-49.427-22.138-49.423-49.431V573.641
		h-193.32c-28.567,0-51.738-23.169-51.738-51.738c-0.004-28.579,23.162-51.743,51.743-51.743l193.316,0.004V291.983
		c-0.005-27.293,22.123-49.425,49.423-49.421c27.299,0,49.416,22.122,49.426,49.421l-0.001,178.183l193.309,0.004
		c28.57-0.011,51.732,23.154,51.736,51.733C812.325,550.471,789.169,573.641,760.587,573.641L760.587,573.641z"/>
</g>
</svg>
