<?xml version="1.0" encoding="utf-8"?>
<!-- Generator: Adobe Illustrator 18.0.0, SVG Export Plug-In . SVG Version: 6.00 Build 0)  -->
<!DOCTYPE svg PUBLIC "-//W3C//DTD SVG 1.1//EN" "http://www.w3.org/Graphics/SVG/1.1/DTD/svg11.dtd">
<svg version="1.1" id="图形" xmlns="http://www.w3.org/2000/svg" xmlns:xlink="http://www.w3.org/1999/xlink" x="0px" y="0px"
	 viewBox="15.167 -16.333 1000.636 1000.678" enable-background="new 15.167 -16.333 1000.636 1000.678" xml:space="preserve">
<g>
	<path fill-rule="evenodd" clip-rule="evenodd" fill="#B2B2B2" d="M924.07,456.068c0,56.587-45.732,102.467-102.146,102.467
		c-56.413,0-102.144-45.88-102.144-102.467l0,0l0,0l0,0c0,56.587-45.736,102.467-102.147,102.467
		c-56.416,0-102.148-45.88-102.148-102.467l0,0l0,0l0,0l0,0c0,56.587-45.732,102.467-102.146,102.467
		c-56.413,0-102.147-45.88-102.147-102.467l0,0l0,0l0,0l0,0c0,56.587-45.729,102.467-102.142,102.467
		c-56.418,0-102.15-45.88-102.15-102.467l0,0l0,0l0,0l71.824-192.128h673.524L924.07,456.068L924.07,456.068L924.07,456.068
		L924.07,456.068z M796.389,225.516H234.586c-21.157,0-38.304-17.201-38.304-38.425c0-21.223,17.147-38.424,38.304-38.424h561.803
		c21.154,0,38.301,17.201,38.301,38.424C834.69,208.315,817.542,225.516,796.389,225.516L796.389,225.516z M221.817,596.335v-0.024
		c3.666-0.334,7.267-0.887,10.848-1.499c0.772-0.136,1.567-0.196,2.332-0.338c1.654-0.312,3.247-0.776,4.879-1.148
		c6.935-1.588,13.729-3.56,20.245-6.123v0.022l0,0v189.046H770.85V587.225l0,0v-0.022c6.507,2.557,13.294,4.529,20.22,6.116
		c1.639,0.373,3.242,0.843,4.903,1.155c0.765,0.141,1.557,0.202,2.329,0.336c3.58,0.614,7.183,1.167,10.852,1.501v0.024
		c4.208,0.395,8.461,0.626,12.77,0.626c8.736,0,17.245-0.912,25.536-2.44v258.604c0,21.219-17.147,38.426-38.307,38.426H221.817
		c-21.156,0-38.303-17.207-38.303-38.426V594.521c8.29,1.528,16.8,2.44,25.537,2.44C213.356,596.961,217.609,596.73,221.817,596.335
		L221.817,596.335z"/>
</g>
</svg>
