<?xml version="1.0" encoding="utf-8"?>
<!-- Generator: Adobe Illustrator 18.0.0, SVG Export Plug-In . SVG Version: 6.00 Build 0)  -->
<!DOCTYPE svg PUBLIC "-//W3C//DTD SVG 1.1//EN" "http://www.w3.org/Graphics/SVG/1.1/DTD/svg11.dtd">
<svg version="1.1" id="图形" xmlns="http://www.w3.org/2000/svg" xmlns:xlink="http://www.w3.org/1999/xlink" x="0px" y="0px"
	 viewBox="15.167 -16.333 1000.636 1000.678" enable-background="new 15.167 -16.333 1000.636 1000.678" xml:space="preserve">
<path fill="none" stroke="#C4C4C4" stroke-width="40" stroke-linecap="round" stroke-linejoin="round" stroke-miterlimit="10" d="
	M515.476,56.988c-247.885,0-448.837,175.901-448.837,392.891c0,124.004,65.787,234.418,168.314,306.419v198.734l196.639-119.374
	c27.199,4.507,55.189,7.094,83.884,7.094c247.885,0,448.854-175.884,448.854-392.873S763.343,56.988,515.476,56.988z
	 M291.058,506.018c-30.983,0-56.105-25.139-56.105-56.122c0-31.019,25.121-56.122,56.105-56.122s56.105,25.121,56.105,56.122
	C347.162,480.879,322.041,506.018,291.058,506.018z M515.476,506.018c-30.983,0-56.105-25.139-56.105-56.122
	c0-31.019,25.121-56.122,56.105-56.122s56.105,25.121,56.105,56.122C571.581,480.879,546.459,506.018,515.476,506.018z
	 M739.894,506.018c-31.001,0-56.122-25.139-56.122-56.122c0-31.019,25.121-56.122,56.122-56.122
	c30.983,0,56.105,25.121,56.105,56.122C795.999,480.879,770.878,506.018,739.894,506.018z"/>
</svg>
