<?xml version="1.0" encoding="utf-8"?>
<!-- Generator: Adobe Illustrator 18.0.0, SVG Export Plug-In . SVG Version: 6.00 Build 0)  -->
<!DOCTYPE svg PUBLIC "-//W3C//DTD SVG 1.1//EN" "http://www.w3.org/Graphics/SVG/1.1/DTD/svg11.dtd">
<svg version="1.1" id="图形" xmlns="http://www.w3.org/2000/svg" xmlns:xlink="http://www.w3.org/1999/xlink" x="0px" y="0px"
	 viewBox="15.167 -16.333 1000.636 1000.678" enable-background="new 15.167 -16.333 1000.636 1000.678" xml:space="preserve">
<path fill="#C4C4C4" d="M863.057,379.245l-0.992-0.26c-25.214-6.624-27.403-20.049-300.421-20.054
	c20.411-61.315,34.267-71.853,34.267-137.071c0-48.213-22.222-85.546-34.267-102.802c-18.828-26.977-28.316-34.262-68.534-34.262
	c-23.296,0-30.247,20.651-37.677,37.558c-27.301,62.198-61.091,135.61-109.646,199.933c-20.133,26.668-34.741,48.153-44.299,65.412
	l-102.893,0c-26.441,0-47.947,15.142-47.947,33.759v412.209c0,18.62,21.505,33.773,47.947,33.773h109.719
	c2.109,0,4.18-0.107,6.217-0.293c20.159,3.367,53.174,9.69,104.431,21.5l0.14,0.033c8.428,1.898,84.566,18.534,161.021,18.534
	h157.051c29.957,0,48.45-9.029,59.879-29.26c2.967-4.262,25.243-37.374,48.968-103.085c22.857-63.292,51.406-170.287,57.645-320.623
	c0.133-3.558,0.655-12.032,0.655-18.409C904.321,415.172,895.719,392.097,863.057,379.245z M219.186,456.234h68.304l-0.199,342.672
	h-68.105V456.234z M835.381,447.245l-0.191,4.16c-5.879,141.643-32.408,241.424-53.63,300.191
	c-20.215,55.987-38.772,84.257-40.604,86.982c-1.046,0.063-2.301,0.104-3.78,0.104H580.125c-70.338,0-142.9-16.17-145.774-16.818
	c-32.393-7.464-58.015-12.861-78.095-16.764v-373.83c2.553-6.346,11.762-24.679,44.233-67.69
	c48.381-64.094,82.415-134.291,110.331-196.996c8.451,14.116,16.559,33.37,16.559,55.28c0,34.308-3.61,43.493-14.323,70.759
	c-4.566,11.621-10.251,26.084-16.435,44.664c-6.958,20.899-3.446,43.866,9.436,61.731s33.565,28.451,55.589,28.451
	c228.451,0.003,257.563,9.698,269.995,13.838c1.329,0.442,2.633,0.872,3.964,1.299C835.531,444.274,835.447,445.876,835.381,447.245
	z"/>
</svg>
