<?xml version="1.0" encoding="utf-8"?>
<!-- Generator: Adobe Illustrator 18.0.0, SVG Export Plug-In . SVG Version: 6.00 Build 0)  -->
<!DOCTYPE svg PUBLIC "-//W3C//DTD SVG 1.1//EN" "http://www.w3.org/Graphics/SVG/1.1/DTD/svg11.dtd">
<svg version="1.1" id="图形" xmlns="http://www.w3.org/2000/svg" xmlns:xlink="http://www.w3.org/1999/xlink" x="0px" y="0px"
	 viewBox="0 0 500 500" enable-background="new 0 0 500 500" xml:space="preserve">
<g>
	<path fill="#FFDE28" d="M372.516,311.369c-25.927,0-48.946,12.449-63.409,31.696l-124.574-62.5
		c1.969-6.912,3.023-14.209,3.023-21.754c0-8.264-1.266-16.231-3.612-23.721l124.103-62.264
		c14.383,20.064,37.897,33.139,64.468,33.139c43.779,0,79.269-35.489,79.269-79.268c0-43.779-35.489-79.268-79.269-79.268
		s-79.269,35.49-79.269,79.269c0,3.029,0.176,6.016,0.507,8.957l-130.891,65.67c-14.213-13.497-33.426-21.782-54.574-21.782
		c-43.779,0-79.269,35.489-79.269,79.268c0,43.779,35.488,79.268,79.269,79.268c21.918,0,41.758-8.896,56.107-23.275l129.59,65.015
		c-0.483,3.538-0.739,7.147-0.739,10.817c0,43.779,35.489,79.268,79.268,79.268s79.268-35.489,79.268-79.268
		C451.782,346.858,416.296,311.369,372.516,311.369L372.516,311.369L372.516,311.369z"/>
</g>
</svg>
