<?xml version="1.0" encoding="utf-8"?>
<!-- Generator: Adobe Illustrator 18.0.0, SVG Export Plug-In . SVG Version: 6.00 Build 0)  -->
<!DOCTYPE svg PUBLIC "-//W3C//DTD SVG 1.1//EN" "http://www.w3.org/Graphics/SVG/1.1/DTD/svg11.dtd">
<svg version="1.1" id="图形" xmlns="http://www.w3.org/2000/svg" xmlns:xlink="http://www.w3.org/1999/xlink" x="0px" y="0px"
	 viewBox="0 0 500 500" enable-background="new 0 0 500 500" xml:space="preserve">
<path fill="#E34659" d="M468.385,202.54c-2.64-8.154-9.679-14.138-18.186-15.37l-128.534-22.586L264.174,48.898
	c-3.754-7.685-11.616-12.554-20.181-12.554c-8.565,0-16.426,4.869-20.239,12.554l-57.433,115.687L37.788,187.933
	c-8.506,1.232-15.546,7.216-18.186,15.37c-2.699,8.154-0.469,17.13,5.691,23.114l93.042,85.944L93.988,437.257
	c-1.467,8.448,1.995,17.071,8.976,22.058c3.93,2.875,8.565,4.341,13.258,4.341c3.579,0,7.216-0.88,10.501-2.581l117.271-57.315
	l116.566,57.315c3.285,1.701,6.922,2.581,10.501,2.581c4.634,0,9.328-1.467,13.2-4.341c6.922-4.987,10.501-13.61,9.034-22.058
	L369.77,312.36l93.042-86.765C468.914,219.67,471.084,210.694,468.385,202.54L468.385,202.54z"/>
</svg>
