<?xml version="1.0" encoding="utf-8"?>
<!-- Generator: Adobe Illustrator 18.0.0, SVG Export Plug-In . SVG Version: 6.00 Build 0)  -->
<!DOCTYPE svg PUBLIC "-//W3C//DTD SVG 1.1//EN" "http://www.w3.org/Graphics/SVG/1.1/DTD/svg11.dtd">
<svg version="1.1" id="图形" xmlns="http://www.w3.org/2000/svg" xmlns:xlink="http://www.w3.org/1999/xlink" x="0px" y="0px"
	 viewBox="0 0 500 500" enable-background="new 0 0 500 500" xml:space="preserve">
<g>
	<path fill="#E80000" d="M250.001,459.669c-1.818,0-4.547-0.909-6.365-1.818C235.455,454.217,31.83,350.584,31.83,195.138
		c0-69.087,56.36-125.447,125.448-125.447c35.451,0,69.087,15.453,92.723,40.907c23.634-26.363,57.269-40.907,92.721-40.907
		c69.088,0,125.447,56.36,125.447,125.447c0,155.445-203.625,259.078-211.806,262.713
		C254.546,458.761,251.818,459.669,250.001,459.669L250.001,459.669 M157.278,97.87c-53.633,0-97.268,43.635-97.268,97.268
		c0,123.629,156.355,216.352,189.991,234.533C283.634,411.49,439.99,318.767,439.99,195.138c0-53.633-43.632-97.268-97.267-97.268
		c-32.727,0-62.723,16.362-80.906,43.635c-5.453,8.181-18.181,8.181-23.634,0C220.001,114.233,190.004,97.87,157.278,97.87
		L157.278,97.87"/>
	<path fill="#E80000" d="M249.202,431.475c-1.614,0-4.038-0.807-5.653-1.615c-7.266-3.228-188.122-95.273-188.122-233.337
		c0-61.362,50.058-111.421,111.42-111.421c31.488,0,61.362,13.725,82.356,36.334c20.991-23.416,50.866-36.334,82.353-36.334
		c61.362,0,111.42,50.059,111.42,111.421c0,138.064-180.856,230.108-188.122,233.337
		C253.239,430.667,250.816,431.475,249.202,431.475L249.202,431.475"/>
</g>
</svg>
