<?xml version="1.0" encoding="utf-8"?>
<!-- Generator: Adobe Illustrator 18.0.0, SVG Export Plug-In . SVG Version: 6.00 Build 0)  -->
<!DOCTYPE svg PUBLIC "-//W3C//DTD SVG 1.1//EN" "http://www.w3.org/Graphics/SVG/1.1/DTD/svg11.dtd">
<svg version="1.1" id="图层_1" xmlns="http://www.w3.org/2000/svg" xmlns:xlink="http://www.w3.org/1999/xlink" x="0px" y="0px"
	 viewBox="0 0 500 500" enable-background="new 0 0 500 500" xml:space="preserve">
<g>
	<g transform="scale(0.1953125, 0.1953125)">
		<path fill="#DC0000" d="M2359.088,693.856c0-48.807-39.183-88.333-87.989-88.333H643.294l-46.057-216.88
			c-1.719-8.593-4.812-16.498-8.936-24.06c-11.342-35.746-44.682-61.524-83.865-61.524H283.775
			c-48.463,0-87.989,39.183-87.989,88.333c0,48.807,39.526,88.333,87.989,88.333h152.607l281.841,1326.371
			c8.249,39.183,40.901,66.68,79.053,69.773c7.905,2.406,16.498,3.781,25.091,3.781h1146.956c48.463,0,87.646-39.183,87.646-88.333
			c0-48.807-39.526-88.333-87.646-88.333H876.329l-48.119-225.817h1189.919c20.966,0,40.214-7.218,55.337-19.591
			c14.436-9.968,26.122-24.403,32.652-41.932l241.627-664.045c3.094-8.249,4.812-16.498,5.156-24.747
			C2356.682,716.541,2359.088,705.542,2359.088,693.856L2359.088,693.856L2359.088,693.856L2359.088,693.856z M1960.042,1300.502
			H790.745L680.759,782.189h1467.979L1960.042,1300.502L1960.042,1300.502L1960.042,1300.502z M790.058,2154.961
			c0-97.613,79.053-176.322,176.322-176.322s176.322,79.053,176.322,176.322c0,97.614-79.053,176.323-176.322,176.323
			S790.058,2252.574,790.058,2154.961L790.058,2154.961L790.058,2154.961z M1627.676,2154.961
			c0-97.613,79.053-176.322,176.323-176.322c97.269,0,176.322,79.053,176.322,176.322c0,97.614-79.053,176.323-176.322,176.323
			C1706.385,2331.627,1627.676,2252.574,1627.676,2154.961L1627.676,2154.961z"/>
	</g>
</g>
</svg>
