<?xml version="1.0" encoding="utf-8"?>
<!-- Generator: Adobe Illustrator 18.0.0, SVG Export Plug-In . SVG Version: 6.00 Build 0)  -->
<!DOCTYPE svg PUBLIC "-//W3C//DTD SVG 1.1//EN" "http://www.w3.org/Graphics/SVG/1.1/DTD/svg11.dtd">
<svg version="1.1" id="图形" xmlns="http://www.w3.org/2000/svg" xmlns:xlink="http://www.w3.org/1999/xlink" x="0px" y="0px"
	 viewBox="0 0 500 500" enable-background="new 0 0 500 500" xml:space="preserve">
<path fill="#FFFFFF" d="M428.943,112.861h-55.873c-3.02-27.181-15.101-51.342-36.241-70.973
	c-22.651-22.651-54.363-34.731-87.584-34.731c-63.423,0-116.275,46.812-123.826,105.705H69.547
	c-34.731,0-61.913,25.671-61.913,58.893v231.04c0,31.712,27.181,57.383,61.913,57.383h360.906c33.221,0,61.913-25.671,61.913-58.893
	v-229.53C490.856,138.533,463.675,112.861,428.943,112.861L428.943,112.861z M249.245,34.338c48.322,0,87.584,33.221,93.624,77.013
	H155.62C161.661,69.07,200.923,34.338,249.245,34.338L249.245,34.338z M428.943,432.996H69.547
	c-18.121,0-31.711-13.591-31.711-30.202V297.09c15.101,12.08,34.731,19.631,55.873,19.631h314.094
	c21.141,0,40.772-7.55,55.873-19.631v105.705C462.165,417.895,447.064,432.996,428.943,432.996L428.943,432.996z M445.554,271.418
	c-10.57,10.57-24.161,15.101-39.262,15.101H92.197c-15.101,0-28.692-6.04-39.262-15.101c-10.57-10.57-16.611-22.651-16.611-36.241
	v-63.423c0-16.611,15.101-30.202,31.712-30.202h360.906c18.121,0,31.712,13.591,31.712,30.202v63.423
	C462.165,248.768,456.124,262.358,445.554,271.418L445.554,271.418z"/>
<path fill="#FFFFFF" d="M264.412,168.734c-28.691,0-51.342,21.141-51.342,48.322s22.651,48.322,51.342,48.322
	c28.691,0,51.342-21.141,51.342-48.322C315.754,189.875,293.103,168.734,264.412,168.734L264.412,168.734z M264.412,238.197
	c-12.08,0-21.141-9.06-21.141-21.141c0-12.081,9.06-21.141,21.141-21.141s21.141,9.06,21.141,21.141
	C285.553,229.137,276.492,238.197,264.412,238.197L264.412,238.197z"/>
</svg>
