<?xml version="1.0" encoding="utf-8"?>
<!-- Generator: Adobe Illustrator 18.0.0, SVG Export Plug-In . SVG Version: 6.00 Build 0)  -->
<!DOCTYPE svg PUBLIC "-//W3C//DTD SVG 1.1//EN" "http://www.w3.org/Graphics/SVG/1.1/DTD/svg11.dtd">
<svg version="1.1" id="图形" xmlns="http://www.w3.org/2000/svg" xmlns:xlink="http://www.w3.org/1999/xlink" x="0px" y="0px"
	 viewBox="0 0 500 500" enable-background="new 0 0 500 500" xml:space="preserve">
<path fill="#FFFFFF" d="M451.365,40.254H48.636c-18.534,0-33.561,15.01-33.561,33.561v268.469c0,18.535,15.026,33.561,33.561,33.561
	H216.44v50.341h-83.902c-9.258,0-16.781,7.521-16.781,16.78v16.778h268.486v-16.778c0-9.259-7.521-16.78-16.781-16.78H283.56
	v-50.341h167.804c18.534,0,33.561-15.026,33.561-33.561V73.815c0-18.55-15.027-33.561-33.561-33.561L451.365,40.254z
	 M233.22,342.285c0-9.259,7.521-16.78,16.78-16.78c9.258,0,16.78,7.521,16.78,16.78c0,9.276-7.521,16.798-16.78,16.798
	C240.742,359.082,233.22,351.561,233.22,342.285z M48.635,308.724V73.815h402.729v234.909H48.635z"/>
</svg>
