<?xml version="1.0" encoding="utf-8"?>
<!-- Generator: Adobe Illustrator 18.0.0, SVG Export Plug-In . SVG Version: 6.00 Build 0)  -->
<!DOCTYPE svg PUBLIC "-//W3C//DTD SVG 1.1//EN" "http://www.w3.org/Graphics/SVG/1.1/DTD/svg11.dtd">
<svg version="1.1" id="图形" xmlns="http://www.w3.org/2000/svg" xmlns:xlink="http://www.w3.org/1999/xlink" x="0px" y="0px"
	 viewBox="0 0 500 500" enable-background="new 0 0 500 500" xml:space="preserve">
<path fill="#FFFFFF" d="M412.754,304.253c29.921,0,54.253-24.337,54.253-54.252c0-29.916-24.332-54.253-54.253-54.253h-9.405
	c-1.906-5.416-4.091-10.71-6.529-15.84l6.623-6.637c10.212-10.212,15.842-23.834,15.842-38.357c0-14.525-5.63-28.144-15.842-38.358
	c-10.213-10.218-23.84-15.846-38.358-15.846c-14.517,0-28.146,5.627-38.357,15.846l-6.624,6.63
	c-5.139-2.444-10.421-4.621-15.854-6.536v-9.403c0-29.916-24.329-54.253-54.25-54.253c-29.923,0-54.252,24.337-54.252,54.253v9.403
	c-5.431,1.915-10.716,4.092-15.854,6.529l-6.623-6.623c-10.214-10.218-23.842-15.846-38.36-15.846
	c-14.516,0-28.143,5.627-38.357,15.846c-10.211,10.214-15.84,23.834-15.84,38.358c0,14.523,5.63,28.146,15.84,38.357l6.624,6.623
	c-2.437,5.134-4.624,10.425-6.531,15.854h-9.403c-29.922,0-54.252,24.337-54.252,54.253c0,29.915,24.329,54.252,54.252,54.252h9.403
	c1.907,5.431,4.093,10.721,6.531,15.854l-6.624,6.623c-10.211,10.212-15.84,23.834-15.84,38.358c0,14.525,5.63,28.144,15.84,38.358
	c10.214,10.218,23.84,15.846,38.358,15.846c14.518,0,28.146-5.627,38.36-15.846l6.623-6.623c5.138,2.437,10.423,4.614,15.854,6.53
	v9.403c0,29.915,24.329,54.252,54.252,54.252c29.921,0,54.25-24.337,54.25-54.252v-9.403c5.432-1.915,10.715-4.092,15.854-6.536
	l6.624,6.629c10.212,10.218,23.84,15.846,38.358,15.846c14.516,0,28.144-5.627,38.357-15.846
	c10.212-10.214,15.842-23.834,15.842-38.358c0-14.523-5.63-28.146-15.842-38.358l-6.623-6.637c2.438-5.131,4.624-10.425,6.529-15.84
	L412.754,304.253L412.754,304.253L412.754,304.253z M384.264,345.909c5.099,5.092,7.892,11.9,7.892,19.178
	c0,7.278-2.794,14.085-7.892,19.178c-10.198,10.187-28.159,10.187-38.358,0l-20.886-20.894l-8.954,5.015
	c-9.034,5.054-18.808,9.085-29.073,12l-9.867,2.794v29.575c0,14.96-12.174,27.126-27.126,27.126
	c-14.953,0-27.126-12.166-27.126-27.126V383.18l-9.867-2.794c-10.281-2.923-20.066-6.954-29.073-11.994l-8.954-5.014l-20.887,20.887
	c-10.198,10.187-28.159,10.187-38.358,0c-5.099-5.093-7.892-11.9-7.892-19.178c0-7.278,2.794-14.086,7.892-19.178l20.888-20.888
	l-5.02-8.954c-5.035-8.999-9.06-18.781-11.987-29.077l-2.794-9.862H87.247c-14.953,0-27.127-12.167-27.127-27.126
	c0-14.96,12.174-27.127,27.127-27.127h29.576l2.794-9.862c2.927-10.296,6.952-20.078,11.987-29.072l5.02-8.958l-20.888-20.89
	c-5.099-5.092-7.892-11.9-7.892-19.178c0-7.279,2.794-14.086,7.892-19.178c10.199-10.187,28.161-10.187,38.358,0l20.887,20.887
	l8.954-5.015c9.007-5.04,18.793-9.071,29.073-11.994l9.867-2.794V87.246c0-14.961,12.173-27.126,27.126-27.126
	c14.952,0,27.126,12.165,27.126,27.126v29.575l9.867,2.794c10.266,2.916,20.039,6.947,29.073,12l8.954,5.015l20.886-20.894
	c10.199-10.187,28.16-10.187,38.358,0c5.099,5.092,7.892,11.899,7.892,19.178c0,7.278-2.794,14.086-7.892,19.178l-20.873,20.89
	l4.993,8.953c5.061,9.052,9.098,18.833,12,29.077l2.794,9.862h29.575c14.954,0,27.126,12.167,27.126,27.127
	c0,14.958-12.171,27.126-27.126,27.126h-29.575l-2.794,9.862c-2.903,10.244-6.94,20.025-12,29.077l-4.993,8.954L384.264,345.909z
	 M250.001,168.623c-44.876,0-81.379,36.504-81.379,81.379c0,44.873,36.503,81.377,81.379,81.377
	c44.873,0,81.377-36.504,81.377-81.377C331.378,205.127,294.873,168.623,250.001,168.623z M250.001,304.253
	c-29.923,0-54.252-24.337-54.252-54.252c0-29.916,24.329-54.253,54.252-54.253c29.921,0,54.25,24.337,54.25,54.253
	C304.25,279.916,279.921,304.253,250.001,304.253z"/>
</svg>
