<?xml version="1.0" encoding="utf-8"?>
<!-- Generator: Adobe Illustrator 18.0.0, SVG Export Plug-In . SVG Version: 6.00 Build 0)  -->
<!DOCTYPE svg PUBLIC "-//W3C//DTD SVG 1.1//EN" "http://www.w3.org/Graphics/SVG/1.1/DTD/svg11.dtd">
<svg version="1.1" id="图形" xmlns="http://www.w3.org/2000/svg" xmlns:xlink="http://www.w3.org/1999/xlink" x="0px" y="0px"
	 viewBox="0 0 500 500" enable-background="new 0 0 500 500" xml:space="preserve">
<g>
	<path fill="#FFFFFF" d="M417.019,397.75H83.058c-9.912,0-18.327-7.079-20.057-16.832L14.631,106.262
		c-1.497-8.419,2.514-16.912,9.909-21.16c7.471-4.246,16.753-3.381,23.28,2.124l101.934,86.756l83.217-128.757
		c7.473-11.638,26.663-11.638,34.134,0l83.214,128.678l101.856-86.756c6.53-5.584,15.891-6.368,23.283-2.124
		c7.472,4.249,11.403,12.742,9.908,21.16l-48.29,274.811C435.346,390.672,426.927,397.75,417.019,397.75L417.019,397.75
		 M100.127,357.085H399.95l35.632-202.216l-76.53,65.124c-4.484,3.775-10.306,5.427-16.128,4.643
		c-5.817-0.868-10.932-4.17-14.157-9.045L250.037,93.756l-78.73,121.834c-3.228,4.954-8.34,8.257-14.16,9.045
		c-5.896,0.863-11.717-0.868-16.124-4.643l-76.529-65.124L100.127,357.085L100.127,357.085 M417.019,463.504H83.058
		c-11.248,0-20.372-9.123-20.372-20.371c0-11.248,9.123-20.371,20.372-20.371H417.02c11.248,0,20.372,9.123,20.372,20.371
		C437.392,454.381,428.266,463.504,417.019,463.504L417.019,463.504"/>
</g>
</svg>
