<?xml version="1.0" encoding="utf-8"?>
<!-- Generator: Adobe Illustrator 18.0.0, SVG Export Plug-In . SVG Version: 6.00 Build 0)  -->
<!DOCTYPE svg PUBLIC "-//W3C//DTD SVG 1.1//EN" "http://www.w3.org/Graphics/SVG/1.1/DTD/svg11.dtd">
<svg version="1.1" id="图形" xmlns="http://www.w3.org/2000/svg" xmlns:xlink="http://www.w3.org/1999/xlink" x="0px" y="0px"
	 viewBox="15.167 -16.333 1000.636 1000.678" enable-background="new 15.167 -16.333 1000.636 1000.678" xml:space="preserve">
<path fill="#FFFFFF" d="M390.521,938.529h0.011c-34.015,0-65.216-7.966-92.759-23.703c-29.42-16.806-52.371-42.706-71.808-72.51
	c-2.592-4.665-2.851-5.183-5.466-9.969c-29.34-53.695,3.624-138.678,83.888-201.887c43.749-34.441,92.114-54.19,132.711-54.19
	c30.172,0,54.595,11.064,69.382,31.297c3.166,2.072,8.448,4.778,12.78,4.778c1.243,0,3.829,0,7.703-4.385
	c0.253-0.262,0.503-0.525,0.756-0.81c22.6-29.311,43.487-60.871,62.128-93.828c17.122-30.293,32.278-61.615,45.057-93.172
	c1.768-9.976,0.437-14.95-0.699-16.348c-0.818-1.004-3.251-1.66-3.273-1.66c-22.121-0.522-41.883-10.475-57.608-28.766
	c-29.596-34.44-42.179-94.986-33.645-161.969c13.073-102.69,69.394-180.127,131.009-180.127c0.196,0,1.549,0.022,1.755,0.022
	c2.925,0.066,5.783,0.349,8.589,0.786c37.823-1.68,72.614,6.198,102.854,23.462c139.968,79.969,142.914,331.315,6.722,572.203
	C685.495,813.643,524.716,938.529,390.521,938.529z M437.098,627.297c-28.931,0-66.733,16.171-101.141,43.257
	c-59.998,47.231-86.471,109.316-72.931,134.703c2.073,3.887,3.527,6.323,4.665,8.293c13.476,23.324,33.641,44.53,55.4,56.971
	c19.73,11.285,42.418,16.98,67.43,16.98c114.573,0,260.815-117.136,355.658-284.867c118.11-208.893,123.786-439.132,12.386-502.775
	c-22.35-12.745-48.715-18.377-77.535-16.654c-2.116,0.109-4.234-0.021-6.306-0.415c-1.157-0.239-2.336-0.435-3.537-0.48
	c-30.304,0-71.008,57.97-80.885,135.56c-6.538,51.291,1.986,99.284,21.716,122.245c9.253,10.76,17.1,10.934,19.674,11.001
	c2.216,0,26.114,0.742,42.178,20.581c12.255,15.127,15.825,35.62,10.608,60.871c-0.307,1.483-0.743,2.947-1.309,4.366
	c-13.817,34.375-30.272,68.532-48.913,101.511c-20.341,35.967-43.225,70.388-68.03,102.317c-1.101,1.42-2.335,2.707-3.668,3.843
	c-12.07,12.288-26.965,18.768-43.301,18.768c-25.907,0-46.007-16.761-48.214-18.683c-1.909-1.658-3.58-3.599-4.921-5.762
	C460.111,629.304,447.017,627.297,437.098,627.297z"/>
<path fill="#FFFFFF" d="M356.604,455.441c-12.19,0-23.016-8.709-25.296-21.126c-4.31-23.507,0.797-47.297,14.372-66.984
	c13.587-19.666,34.016-32.89,57.532-37.19c14.013-2.554,27.402,6.7,29.966,20.691c2.567,13.989-6.7,27.412-20.689,29.964
	c-9.985,1.834-18.662,7.443-24.423,15.802c-5.773,8.337-7.933,18.442-6.112,28.439c2.576,13.989-6.689,27.39-20.68,29.966
	C359.714,455.287,358.142,455.441,356.604,455.441z"/>
<path fill="#FFFFFF" d="M269.595,453.585c-12.19,0-23.014-8.686-25.285-21.104c-15.649-85.296,41.011-167.402,126.305-183.031
	c13.946-2.552,27.402,6.701,29.967,20.689c2.564,13.969-6.701,27.394-20.68,29.946c-57.358,10.52-95.465,65.74-84.945,123.096
	c2.565,13.991-6.701,27.413-20.691,29.967C272.706,453.433,271.136,453.585,269.595,453.585z"/>
<path fill="#FFFFFF" d="M169.929,481.696c-12.189,0-23.015-8.684-25.295-21.104c-13.009-70.955,2.389-142.719,43.367-202.083
	c40.967-59.366,102.603-99.22,173.558-112.228c13.957-2.553,27.391,6.7,29.966,20.69c2.565,13.99-6.7,27.391-20.69,29.967
	c-57.412,10.518-107.294,42.777-140.459,90.816c-33.153,48.059-45.616,106.138-35.096,163.561
	c2.565,13.969-6.688,27.391-20.679,29.968C173.028,481.567,171.468,481.696,169.929,481.696z"/>
</svg>
