<?xml version="1.0" encoding="utf-8"?>
<!-- Generator: Adobe Illustrator 18.0.0, SVG Export Plug-In . SVG Version: 6.00 Build 0)  -->
<!DOCTYPE svg PUBLIC "-//W3C//DTD SVG 1.1//EN" "http://www.w3.org/Graphics/SVG/1.1/DTD/svg11.dtd">
<svg version="1.1" id="图形" xmlns="http://www.w3.org/2000/svg" xmlns:xlink="http://www.w3.org/1999/xlink" x="0px" y="0px"
	 viewBox="15.167 -16.333 1000.636 1000.678" enable-background="new 15.167 -16.333 1000.636 1000.678" xml:space="preserve">
<path fill="#FFFFFF" d="M902.403,152.622l-65.234-64.756c-33.445-33.438-57.134-50.705-85.952-50.705h-0.751
	c-31.464,0-57.612,23.091-86.101,51.59L550.665,201.643l-9.674-9.674c-5.131-5.131-11.495-8.048-19.397-7.938
	c-7.278,0.068-14.21,3.057-19.267,8.286L130.362,577.832c-28.713,28.713-54.806,60.536-51.405,98.67
	c2.819,31.559,23.95,58.315,59.502,93.854l105.378,105.388c35.737,35.737,60.864,55.108,91.324,55.108
	c33.461,0,61.553-25.38,92.54-56.367l372.316-385.859c10.253-10.637,10.107-27.52-0.341-37.978l-15.498-15.495l113.729-113.618
	C965.159,254.28,973.92,224.149,902.403,152.622z M389.043,836.51c-19.849,19.849-41.776,40.147-53.879,40.147
	c-12.132,0-33.611-19.836-53.008-39.233L176.778,732.036c-21.924-21.924-42.42-44.42-43.834-60.35
	c-1.125-12.558,9.898-29.692,36.082-55.879l353.153-366.01l220.349,220.359L389.043,836.51z M745.792,396.768L589.137,240.115
	l113.547-113.098c10.916-10.913,36.453-35.659,48.374-35.659h0.091c10.575,0,31.045,18.165,47.701,34.824l65.234,64.304
	c8.549,8.562,34.589,34.602,33.965,44.566c-0.634,10.094-24.32,33.78-38.462,47.938L745.792,396.768z M770.935,134.494
	c-5.294-5.291-13.869-5.291-19.163,0l-99.59,99.577c-5.291,5.291-5.291,13.869,0,19.16c2.647,2.644,6.113,3.97,9.58,3.97
	c3.466,0,6.933-1.323,9.58-3.97l99.59-99.574C776.226,148.359,776.226,139.788,770.935,134.494z M809.251,172.813
	c-5.291-5.294-13.866-5.294-19.16,0L684.701,278.201c-5.291,5.294-5.291,13.869,0,19.163c2.647,2.644,6.113,3.97,9.58,3.97
	c3.466,0,6.933-1.323,9.58-3.97l105.388-105.391C814.545,186.679,814.545,178.104,809.251,172.813z M828.411,211.129L723.033,316.52
	c-5.291,5.294-5.291,13.869,0,19.16c2.647,2.647,6.113,3.97,9.58,3.97c3.466,0,6.933-1.32,9.58-3.97l105.375-105.388
	c5.294-5.294,5.294-13.869,0-19.163C842.277,205.838,833.702,205.838,828.411,211.129z"/>
</svg>
