<?xml version="1.0" encoding="utf-8"?>
<!-- Generator: Adobe Illustrator 18.0.0, SVG Export Plug-In . SVG Version: 6.00 Build 0)  -->
<!DOCTYPE svg PUBLIC "-//W3C//DTD SVG 1.1//EN" "http://www.w3.org/Graphics/SVG/1.1/DTD/svg11.dtd">
<svg version="1.1" id="图形" xmlns="http://www.w3.org/2000/svg" xmlns:xlink="http://www.w3.org/1999/xlink" x="0px" y="0px"
	 viewBox="0 0 500 500" enable-background="new 0 0 500 500" xml:space="preserve">
<g>
	<path fill="#FFFFFF" d="M443.7,401.7l-24.6-203.6c-2.2-15.4-16.4-27.5-32.4-27.5h-32.1c0-0.1,0-0.1,0-0.2
		c0-49.6-39.3-88.5-89.5-88.5c-50.2,0-89.5,38.9-89.5,88.5c0,0.1,0,0.1,0,0.2h-32.2c-15.9,0-30.1,12.1-32.4,27.8L86.6,401.4
		c-1.5,10.6,1.3,20.8,7.7,28.1c5.7,6.6,13.7,10.3,22.6,10.3h296.7c8.8,0,16.8-3.6,22.6-10.3C442.4,422.2,445.2,412,443.7,401.7
		L443.7,401.7L443.7,401.7z M198,170.4c0-37.1,29.5-66.2,67.1-66.2c37.6,0,67.1,29.1,67.1,66.2c0,0.1,0,0.1,0,0.2H198
		C198,170.5,198,170.4,198,170.4L198,170.4L198,170.4z M143.5,192.9h243.2c4.8,0,9.6,3.9,10.2,8.1l5.1,42.2l-136.9,45.9l-136.9-46
		l5.1-41.9C134,196.8,138.8,192.9,143.5,192.9L143.5,192.9L143.5,192.9z M419.1,414.9c-1.5,1.7-3.4,2.6-5.7,2.6H116.8
		c-2.3,0-4.2-0.9-5.7-2.5c-2.1-2.4-3-6.2-2.4-10.6l16.7-138.5l136.1,45.7c1.2,0.4,2.4,0.6,3.6,0.6s2.4-0.2,3.6-0.6l136.1-45.7
		l16.8,138.7C422.2,408.7,421.3,412.5,419.1,414.9L419.1,414.9L419.1,414.9z M242.8,249.5h44.7c6.2,0,11.2-5,11.2-11.2
		c0-6.2-5-11.2-11.2-11.2h-44.7c-6.2,0-11.2,5-11.2,11.2C231.6,244.5,236.6,249.5,242.8,249.5L242.8,249.5L242.8,249.5z"/>
</g>
</svg>
