<?xml version="1.0" encoding="utf-8"?>
<!-- Generator: Adobe Illustrator 18.0.0, SVG Export Plug-In . SVG Version: 6.00 Build 0)  -->
<!DOCTYPE svg PUBLIC "-//W3C//DTD SVG 1.1//EN" "http://www.w3.org/Graphics/SVG/1.1/DTD/svg11.dtd">
<svg version="1.1" id="图形" xmlns="http://www.w3.org/2000/svg" xmlns:xlink="http://www.w3.org/1999/xlink" x="0px" y="0px"
	 viewBox="0 0 500 500" enable-background="new 0 0 500 500" xml:space="preserve">
<g>
	<path fill="#FFFFFF" d="M395.5,451.7H128.2c-13.6,0-24.7-11.1-24.7-24.7V163c0-13.6,11.1-24.7,24.7-24.7h40.3
		c5.5,0,9.9,4.4,9.9,9.9c0,5.5-4.4,9.9-9.9,9.9h-40.3c-2.7,0-4.9,2.3-4.9,4.9v263.9c0,2.7,2.3,4.9,4.9,4.9h267.3
		c2.7,0,4.9-2.3,4.9-4.9V163c0-2.7-2.3-4.9-4.9-4.9h-38.9c-5.5,0-9.9-4.4-9.9-9.9s4.4-9.9,9.9-9.9h38.9c13.6,0,24.7,11.1,24.7,24.7
		v263.9C420.3,440.6,409.2,451.7,395.5,451.7L395.5,451.7z"/>
	<path fill="#FFFFFF" d="M353,215c-1.7,0-3.4-0.4-4.9-1.3l-87.8-50.7c-3.1-1.8-4.9-5-4.9-8.6c0-3.5,1.9-6.8,4.9-8.6L348,95.1
		c3.1-1.8,6.8-1.8,9.9,0c3.1,1.8,4.9,5,4.9,8.6v101.4c0,3.5-1.9,6.8-4.9,8.6C356.4,214.5,354.7,215,353,215L353,215z M285,154.4
		l58.1,33.6v-67.1L285,154.4L285,154.4z"/>
	<path fill="#FFFFFF" d="M170.8,215c-1.7,0-3.4-0.4-4.9-1.3c-3.1-1.8-4.9-5-4.9-8.6V103.7c0-3.5,1.9-6.8,4.9-8.6
		c3.1-1.8,6.8-1.8,9.9,0l87.8,50.7c3.1,1.8,4.9,5,4.9,8.6s-1.9,6.8-4.9,8.6l-87.8,50.7C174.2,214.5,172.5,215,170.8,215L170.8,215z
		 M180.7,120.8v67.1l58.1-33.6L180.7,120.8L180.7,120.8z"/>
	<path fill="#FFFFFF" d="M353,113.6H170.8c-5.5,0-9.9-4.4-9.9-9.9c0-5.5,4.4-9.9,9.9-9.9H353c5.5,0,9.9,4.4,9.9,9.9
		C362.9,109.1,358.5,113.6,353,113.6L353,113.6z"/>
	<polygon fill="#FFFFFF" points="251.4,271.9 272.4,271.9 272.4,292.9 251.4,292.9 	"/>
	<polygon fill="#FFFFFF" points="251.4,217.2 272.4,217.2 272.4,238.2 251.4,238.2 	"/>
</g>
</svg>
