<?xml version="1.0" encoding="utf-8"?>
<!-- Generator: Adobe Illustrator 18.0.0, SVG Export Plug-In . SVG Version: 6.00 Build 0)  -->
<!DOCTYPE svg PUBLIC "-//W3C//DTD SVG 1.1//EN" "http://www.w3.org/Graphics/SVG/1.1/DTD/svg11.dtd">
<svg version="1.1" id="图形" xmlns="http://www.w3.org/2000/svg" xmlns:xlink="http://www.w3.org/1999/xlink" x="0px" y="0px"
	 viewBox="0 0 500 500" enable-background="new 0 0 500 500" xml:space="preserve">
<g>
	<path fill="#FFFFFF" d="M142,273c-30.3,2-85.9,23.1-85.9,89.1v31.8v44.8c0,7.4,6,13.4,13.4,13.4h371.6c4.9,0,9.1-2.6,11.4-6.5
		c3.9-2.4,6.5-6.6,6.5-11.4v-35.8c0-0.8-0.1-1.5-0.2-2.2c0.1-0.7,0.2-1.5,0.2-2.2V125.3c0-7.4-6-13.4-13.4-13.4H266.5
		c-7.4,0-13.4,6-13.4,13.4v85c0,1.1,1.3,26.6-15.5,44.3C226,266.8,208.2,273,184.5,273L142,273L142,273z M432.2,138.7v241.7H83V362
		c0-57.6,57.4-62.1,59.9-62.2l41.6,0c31.5,0,56-9.1,72.9-27.1c24.7-26.4,22.7-61.9,22.6-63.4l0-70.7L432.2,138.7L432.2,138.7z
		 M83,425.2L83,425.2l0-17.9h349.2v17.9H83L83,425.2z M315.9,154.3c-6.8,0-12.3,5.5-12.3,12.3c0,6.8,5.5,12.3,12.3,12.3
		c6.8,0,12.3-5.5,12.3-12.3C328.2,159.8,322.7,154.3,315.9,154.3L315.9,154.3z M315.9,194.8c-6.8,0-12.3,5.5-12.3,12.3
		c0,6.8,5.5,12.3,12.3,12.3c6.8,0,12.3-5.5,12.3-12.3C328.2,200.3,322.7,194.8,315.9,194.8L315.9,194.8z M315.9,235.3
		c-6.8,0-12.3,5.5-12.3,12.3c0,6.8,5.5,12.3,12.3,12.3c6.8,0,12.3-5.5,12.3-12.3C328.2,240.8,322.7,235.3,315.9,235.3L315.9,235.3z"
		/>
</g>
</svg>
