<?xml version="1.0" encoding="utf-8"?>
<!-- Generator: Adobe Illustrator 18.0.0, SVG Export Plug-In . SVG Version: 6.00 Build 0)  -->
<!DOCTYPE svg PUBLIC "-//W3C//DTD SVG 1.1//EN" "http://www.w3.org/Graphics/SVG/1.1/DTD/svg11.dtd">
<svg version="1.1" id="图形" xmlns="http://www.w3.org/2000/svg" xmlns:xlink="http://www.w3.org/1999/xlink" x="0px" y="0px"
	 viewBox="15.167 -16.333 1000.636 1000.678" enable-background="new 15.167 -16.333 1000.636 1000.678" xml:space="preserve">
<g>
	<path fill-rule="evenodd" clip-rule="evenodd" fill="#272536" d="M268.987,562.678C208.39,566.65,97.152,608.907,97.152,740.944
		v63.624v89.588c0,14.839,12.038,26.877,26.878,26.877h743.615c9.731,0,18.164-5.216,22.889-12.949
		c7.734-4.724,12.95-13.158,12.95-22.885v-71.673c0-1.539-0.21-3.009-0.456-4.479c0.246-1.47,0.456-2.939,0.456-4.479V267.035
		c0-14.837-12.04-26.876-26.878-26.876h-358.37c-14.838,0-26.877,12.039-26.877,26.876v170.113
		c0.069,2.135,2.503,53.228-31.059,88.697c-23.116,24.444-58.867,36.833-106.234,36.833H268.987L268.987,562.678z M849.727,293.913
		v483.779h-698.82v-36.747c0-115.292,114.966-124.251,119.865-124.566l83.293,0.053c63.08,0,112.129-18.232,145.814-54.209
		c49.434-52.79,45.374-123.831,45.181-126.841l0.036-141.469H849.727L849.727,293.913z M150.906,867.279h0.001v-35.835h698.82
		v35.835H150.906L150.906,867.279z M617.119,325.25c-13.578,0-24.551,10.989-24.551,24.549c0,13.579,10.974,24.55,24.551,24.55
		c13.562,0,24.552-10.971,24.552-24.55C641.671,336.239,630.681,325.25,617.119,325.25L617.119,325.25z M617.119,406.265
		c-13.578,0-24.551,10.972-24.551,24.55c0,13.56,10.974,24.53,24.551,24.53c13.562,0,24.552-10.97,24.552-24.53
		C641.671,417.236,630.681,406.265,617.119,406.265L617.119,406.265z M617.119,487.262c-13.578,0-24.551,10.989-24.551,24.567
		c0,13.543,10.974,24.533,24.551,24.533c13.562,0,24.552-10.99,24.552-24.533C641.671,498.251,630.681,487.262,617.119,487.262
		L617.119,487.262z"/>
</g>
</svg>
