<?xml version="1.0" encoding="utf-8"?>
<!-- Generator: Adobe Illustrator 18.0.0, SVG Export Plug-In . SVG Version: 6.00 Build 0)  -->
<!DOCTYPE svg PUBLIC "-//W3C//DTD SVG 1.1//EN" "http://www.w3.org/Graphics/SVG/1.1/DTD/svg11.dtd">
<svg version="1.1" id="图形" xmlns="http://www.w3.org/2000/svg" xmlns:xlink="http://www.w3.org/1999/xlink" x="0px" y="0px"
	 viewBox="15.167 -16.333 1000.636 1000.678" enable-background="new 15.167 -16.333 1000.636 1000.678" xml:space="preserve">
<g>
	<path fill-rule="evenodd" clip-rule="evenodd" fill="#272536" d="M776.381,920.346H241.45c-27.301,0-49.514-22.211-49.514-49.515
		V342.672c0-27.303,22.213-49.515,49.514-49.515h80.671c10.937,0,19.806,8.869,19.806,19.807c0,10.937-8.869,19.806-19.806,19.806
		H241.45c-5.367,0-9.903,4.535-9.903,9.903v528.159c0,5.367,4.536,9.903,9.903,9.903h534.931c5.367,0,9.903-4.535,9.903-9.903
		v-528.16c0-5.367-4.535-9.903-9.903-9.903h-77.947c-10.938,0-19.807-8.868-19.807-19.806c0-10.938,8.869-19.806,19.807-19.806
		h77.947c27.301,0,49.515,22.211,49.515,49.515V870.83C825.896,898.134,803.682,920.346,776.381,920.346L776.381,920.346z"/>
	<path fill-rule="evenodd" clip-rule="evenodd" fill="#272536" d="M691.253,446.591c-3.419,0-6.838-0.885-9.904-2.655
		L505.591,342.462c-6.127-3.537-9.903-10.075-9.903-17.152c0-7.076,3.776-13.614,9.903-17.151L681.35,206.685
		c6.132-3.539,13.675-3.539,19.806,0c6.127,3.538,9.904,10.075,9.904,17.152v202.949c0,7.076-3.777,13.614-9.904,17.151
		C698.09,445.706,694.671,446.591,691.253,446.591L691.253,446.591z M555.106,325.31l116.341,67.169V258.141L555.106,325.31
		L555.106,325.31z"/>
	<path fill-rule="evenodd" clip-rule="evenodd" fill="#272536" d="M326.578,446.591c-3.419,0-6.837-0.885-9.903-2.655
		c-6.127-3.537-9.903-10.074-9.903-17.151V223.837c0-7.076,3.776-13.614,9.903-17.152c6.132-3.539,13.675-3.539,19.806,0
		L512.24,308.16c6.127,3.537,9.903,10.074,9.903,17.151c0,7.077-3.776,13.614-9.903,17.152L336.481,443.936
		C333.415,445.706,329.997,446.591,326.578,446.591L326.578,446.591z M346.384,258.141v134.338l116.341-67.169L346.384,258.141
		L346.384,258.141z"/>
	<path fill-rule="evenodd" clip-rule="evenodd" fill="#272536" d="M691.253,243.642H326.578c-10.938,0-19.806-8.868-19.806-19.806
		s8.868-19.806,19.806-19.806h364.675c10.937,0,19.806,8.868,19.806,19.806S702.19,243.642,691.253,243.642L691.253,243.642z"/>
	<polygon fill-rule="evenodd" clip-rule="evenodd" fill="#272536" points="487.895,560.558 529.936,560.558 529.936,602.599 
		487.895,602.599 487.895,560.558 	"/>
	<polygon fill-rule="evenodd" clip-rule="evenodd" fill="#272536" points="487.895,451.008 529.936,451.008 529.936,493.048 
		487.895,493.048 487.895,451.008 	"/>
</g>
</svg>
