<?xml version="1.0" encoding="utf-8"?>
<!-- Generator: Adobe Illustrator 18.0.0, SVG Export Plug-In . SVG Version: 6.00 Build 0)  -->
<!DOCTYPE svg PUBLIC "-//W3C//DTD SVG 1.1//EN" "http://www.w3.org/Graphics/SVG/1.1/DTD/svg11.dtd">
<svg version="1.1" id="图形" xmlns="http://www.w3.org/2000/svg" xmlns:xlink="http://www.w3.org/1999/xlink" x="0px" y="0px"
	 viewBox="15.167 -16.333 1000.636 1000.678" enable-background="new 15.167 -16.333 1000.636 1000.678" xml:space="preserve">
<g>
	<path fill-rule="evenodd" clip-rule="evenodd" fill="#272536" d="M803.127,538.919c-2.058-98.252-15.977-290.757-93.279-290.757
		c-75.727,0-90.971,182.239-93.31,290.87c-0.382,17.481,13.481,31.962,30.972,32.333c17.378,0.516,31.952-13.492,32.334-30.972
		c2.38-110.111,17.645-182.822,30.045-214.717c12.586,32.183,27.787,105.828,29.94,217.262
		c-44.079,47.678-113.513,110.088-207.541,156.75h-33.602c-99.379-49.318-171.227-116.176-214.752-164.685
		c2.698-107.035,17.504-177.902,29.793-209.327c12.389,31.9,27.653,104.616,30.034,214.717c0.371,17.48,14.687,31.498,32.333,30.972
		c17.492-0.371,31.354-14.852,30.973-32.333c-2.339-108.632-17.584-290.87-93.289-290.87c-79.18,0-91.874,201.97-93.425,297.755
		c-38.237,37.71-59.773,88.65-59.773,143.196c0,111.152,90.429,201.586,201.59,201.586c55.081,0,107.142-22.346,145.082-61.812
		h16.47c37.951,39.456,90.012,61.812,145.082,61.812c111.152,0,201.586-90.434,201.586-201.586
		C870.39,631.097,846.022,577.189,803.127,538.919L803.127,538.919z M668.805,827.372c-41.259,0-80.086-18.336-106.513-50.319
		c-6.02-7.277-14.966-11.492-24.407-11.492H493.09c-9.441,0-18.398,4.215-24.407,11.492
		c-26.417,31.983-65.243,50.319-106.513,50.319c-76.241,0-138.269-62.017-138.269-138.259c0-33.549,11.874-65.119,33.261-89.949
		c49.308,50.958,122.963,113.656,220.426,160.698c4.298,2.081,8.998,3.154,13.771,3.154h48.257c4.772,0,9.473-1.072,13.771-3.154
		c97.443-47.042,171.107-109.74,220.426-160.698c21.377,24.82,33.251,56.401,33.251,89.949
		C807.063,765.354,745.046,827.372,668.805,827.372L668.805,827.372z"/>
</g>
</svg>
