<?xml version="1.0" encoding="utf-8"?>
<!-- Generator: Adobe Illustrator 18.0.0, SVG Export Plug-In . SVG Version: 6.00 Build 0)  -->
<!DOCTYPE svg PUBLIC "-//W3C//DTD SVG 1.1//EN" "http://www.w3.org/Graphics/SVG/1.1/DTD/svg11.dtd">
<svg version="1.1" id="图形" xmlns="http://www.w3.org/2000/svg" xmlns:xlink="http://www.w3.org/1999/xlink" x="0px" y="0px"
	 viewBox="0 0 500 500" enable-background="new 0 0 500 500" xml:space="preserve">
<g>
	<path fill="#FFFFFF" d="M408.9,261.1c-1-49.1-8-145.3-46.6-145.3c-37.8,0-45.5,91.1-46.6,145.3c-0.2,8.7,6.7,16,15.5,16.2
		c8.7,0.3,16-6.7,16.2-15.5c1.2-55,8.8-91.3,15-107.3c6.3,16.1,13.9,52.9,15,108.6c-22,23.8-56.7,55-103.7,78.3h-16.8
		c-49.7-24.6-85.6-58-107.3-82.3c1.3-53.5,8.7-88.9,14.9-104.6c6.2,15.9,13.8,52.3,15,107.3c0.2,8.7,7.3,15.7,16.2,15.5
		c8.7-0.2,15.7-7.4,15.5-16.2c-1.2-54.3-8.8-145.3-46.6-145.3c-39.6,0-45.9,100.9-46.7,148.8c-19.1,18.8-29.9,44.3-29.9,71.5
		c0,55.5,45.2,100.7,100.7,100.7c27.5,0,53.5-11.2,72.5-30.9h8.2c19,19.7,45,30.9,72.5,30.9c55.5,0,100.7-45.2,100.7-100.7
		C442.5,307.2,430.3,280.2,408.9,261.1L408.9,261.1z M341.8,405.2c-20.6,0-40-9.2-53.2-25.1c-3-3.6-7.5-5.7-12.2-5.7H254
		c-4.7,0-9.2,2.1-12.2,5.7c-13.2,16-32.6,25.1-53.2,25.1c-38.1,0-69.1-31-69.1-69.1c0-16.8,5.9-32.5,16.6-44.9
		c24.6,25.5,61.4,56.8,110.1,80.3c2.1,1,4.5,1.6,6.9,1.6h24.1c2.4,0,4.7-0.5,6.9-1.6c48.7-23.5,85.5-54.8,110.1-80.3
		c10.7,12.4,16.6,28.2,16.6,44.9C410.9,374.2,379.9,405.2,341.8,405.2L341.8,405.2z"/>
</g>
</svg>
