<?xml version="1.0" encoding="utf-8"?>
<!-- Generator: Adobe Illustrator 18.0.0, SVG Export Plug-In . SVG Version: 6.00 Build 0)  -->
<!DOCTYPE svg PUBLIC "-//W3C//DTD SVG 1.1//EN" "http://www.w3.org/Graphics/SVG/1.1/DTD/svg11.dtd">
<svg version="1.1" id="图形" xmlns="http://www.w3.org/2000/svg" xmlns:xlink="http://www.w3.org/1999/xlink" x="0px" y="0px"
	 viewBox="15.167 -16.333 1000.636 1000.678" enable-background="new 15.167 -16.333 1000.636 1000.678" xml:space="preserve">
<g>
	<path fill-rule="evenodd" clip-rule="evenodd" fill="#272536" d="M457.421,878.51c-84.11,0-245.532-13.068-279.304-31.491
		c-5.055-2.757-8.678-7.553-9.944-13.166c-8.189-36.228-4.077-114.951,70.1-153.587l0,0c56.455-29.406,91.536-32.269,117.153-34.361
		c28.639-2.337,44.415-3.623,79.227-41.704c20.23-22.131,43.491-48.278,68.116-75.959
		c82.097-92.287,184.268-207.139,256.216-264.696c4.586-3.667,10.569-5.138,16.324-4.021
		c45.284,8.787,124.917,61.627,102.175,198.718c-8.199,49.398-19.267,78.457-29.034,104.098
		c-8.741,22.953-15.65,41.083-18.568,69.059c-9.553,91.618-5.319,219.378-5.275,220.657c0.181,5.35-1.785,10.552-5.466,14.444
		c-3.676,3.889-8.76,6.146-14.113,6.263l-71.478,1.562c-5.241,0.017-10.77-1.939-14.621-5.705
		c-3.848-3.769-6.198-8.926-6.198-14.314V574.111c0,2.247-12.16,6.869-22.881,16.375c-31.684,28.096-70.772,103.444-102.256,163.988
		c-44.282,85.152-61.671,115.455-83.421,121.131C496.565,877.588,479.729,878.51,457.421,878.51L457.421,878.51z M205.886,815.237
		c52.74,16.218,255.82,27.944,286.834,21.925c11.522-9.034,39.144-62.155,59.433-101.165
		c34.724-66.778,74.079-142.466,111.307-175.478c25.03-22.195,45.973-31.322,64.003-27.883
		c12.261,2.332,20.033,10.161,23.358,16.712c1.427,2.809,2.023,5.913,2.023,9.064v275.425l31.064-0.675
		c-0.831-40.378-1.555-132.8,6.067-205.919c3.461-33.185,12.005-55.517,21.015-79.159c9.097-23.884,19.426-50.956,26.965-96.399
		c18.337-110.52-39.419-142.333-61.873-150.402c-68.911,57.433-165.333,165.829-243.392,253.578
		c-24.717,27.785-48.064,54.03-68.479,76.36c-45.427,49.696-73.276,51.967-105.528,54.6c-24.669,2.014-52.626,4.295-101.91,29.966
		l0,0C205.426,742.529,203.994,793.804,205.886,815.237L205.886,815.237z"/>
</g>
</svg>
