<?xml version="1.0" encoding="utf-8"?>
<!-- Generator: Adobe Illustrator 18.0.0, SVG Export Plug-In . SVG Version: 6.00 Build 0)  -->
<!DOCTYPE svg PUBLIC "-//W3C//DTD SVG 1.1//EN" "http://www.w3.org/Graphics/SVG/1.1/DTD/svg11.dtd">
<svg version="1.1" id="图形" xmlns="http://www.w3.org/2000/svg" xmlns:xlink="http://www.w3.org/1999/xlink" x="0px" y="0px"
	 viewBox="15.167 -16.333 1000.636 1000.678" enable-background="new 15.167 -16.333 1000.636 1000.678" xml:space="preserve">
<g>
	<path fill-rule="evenodd" clip-rule="evenodd" fill="#272536" d="M794.804,593.168c-35.305-48.474-124.339-186.762-150.779-228.033
		l52.101-138.846c3.78-10.102,1.39-21.543-6-29.238c-2.186-2.254-16.203-22.661-44.135-27.169v-70.22h-47.729v81.915
		c-8.78,4.102-26.152,9.525-34.644,16.407l-59.457,37.101l-68.915-42.881c-1.848-1.559-12.61-8.424-16.034-10.61V99.662h-47.763
		v70.237c-17.355,1.983-32.254,13.678-49.61,25.983c-10.22,7.322-14.186,20.915-9.457,32.796l57.034,145.101
		c-3.984,9.797-19.034,38.729-74.305,110.695c-13.085,14.881-162.373,189.982-131.83,378.897c0.864,5.474,3.305,10.491,7.051,14.508
		c1.441,1.525,36.389,38.322,91.118,38.322c16.152,0,32.339-3.203,48.305-9.525c11.152,4.034,29.101,8.915,49.711,8.915
		c16.966,0,32.746-3.322,47.034-9.915c13.542,5.881,35.576,13.186,60.915,13.186c15.881,0,30.915-2.898,44.864-8.661
		c10.644,2.695,28.288,6.237,47.644,6.237c19.051,0,36.102-3.339,50.847-9.915c12.594,3.678,34.051,8.695,56.136,8.695
		c17.525,0,32.864-3.119,45.796-9.288c10.373,2.017,27.136,4.593,45.814,4.593c39.389,0,69.965-10.898,90.813-32.339
		c4.83-4.983,7.61-11.593,7.779-18.661C857.329,852.456,860.803,683.761,794.804,593.168L794.804,593.168L794.804,593.168
		 M383.975,228.492c9.678,0,15.661,4.424,17.101,5.576c1.56,1.814,2.594,2.39,4.78,3.746l84.542,52.729
		c8.424,5.237,19.034,5.237,27.474,0l74.746-46.627c1.068-0.678,2.085-1.424,3.068-2.221c11.678-9.847,22.932-14.83,33.406-14.83
		c3.407,0,6.577,0.508,9.39,1.339l-40.237,117.22H419.212l-48.627-114.491C375.263,229.306,379.721,228.492,383.975,228.492
		L383.975,228.492L383.975,228.492 M758.549,855.948c-23.186,0-42.982-5.153-43.118-5.22c-7.407-1.983-15.186-0.61-21.491,3.712
		c-5.933,4.051-15.272,6.187-27,6.187c-24.39,0-49.254-9.034-49.509-9.119c-7.491-2.83-15.83-2-22.66,2.254
		c-8.661,5.356-20.373,8.051-34.78,8.051c-21.966,0-41.457-6.458-41.576-6.509c-6.763-2.373-14.203-1.729-20.61,1.712
		c-8.983,4.78-19.17,7.22-30.407,7.22c-25.864,0-48.356-12.763-48.457-12.814c-4.068-2.39-8.577-3.576-13.136-3.576
		c-4.966,0-9.949,1.407-14.271,4.186c-8.983,5.932-19.813,8.898-32.068,8.898c-20.796,0-38.491-8.424-38.508-8.474
		c-7.22-3.593-15.627-3.644-22.83-0.102c-12.356,6.017-24.712,9.051-36.712,9.051c-21.898,0-38.83-10.339-47.169-16.695
		c-20.085-163.457,119.169-322.44,120.609-324.016c0.458-0.457,0.831-0.966,1.238-1.474c50.22-65.17,73.779-105.152,83.084-126.966
		h179.033c27.034,42.288,117.576,183.525,154.084,233.728c45.78,62.83,51.22,181.186,51.763,219.745
		C790.77,854.015,772.634,855.948,758.549,855.948L758.549,855.948L758.549,855.948 M758.549,855.948"/>
</g>
</svg>
