<?xml version="1.0" encoding="utf-8"?>
<!-- Generator: Adobe Illustrator 18.0.0, SVG Export Plug-In . SVG Version: 6.00 Build 0)  -->
<!DOCTYPE svg PUBLIC "-//W3C//DTD SVG 1.1//EN" "http://www.w3.org/Graphics/SVG/1.1/DTD/svg11.dtd">
<svg version="1.1" id="图形" xmlns="http://www.w3.org/2000/svg" xmlns:xlink="http://www.w3.org/1999/xlink" x="0px" y="0px"
	 viewBox="0 0 500 500" enable-background="new 0 0 500 500" xml:space="preserve">
<g>
	<path fill="#FFFFFF" d="M236.2,430.8c-42,0-122.7-6.5-139.6-15.7c-2.5-1.4-4.3-3.8-5-6.6c-4.1-18.1-2-57.4,35-76.7l0,0
		c28.2-14.7,45.7-16.1,58.5-17.2c14.3-1.2,22.2-1.8,39.6-20.8c10.1-11.1,21.7-24.1,34-38c41-46.1,92.1-103.5,128-132.3
		c2.3-1.8,5.3-2.6,8.2-2c22.6,4.4,62.4,30.8,51.1,99.3c-4.1,24.7-9.6,39.2-14.5,52c-4.4,11.5-7.8,20.5-9.3,34.5
		c-4.8,45.8-2.7,109.6-2.6,110.3c0.1,2.7-0.9,5.3-2.7,7.2c-1.8,1.9-4.4,3.1-7.1,3.1l-35.7,0.8c-2.6,0-5.4-1-7.3-2.9
		c-1.9-1.9-3.1-4.5-3.1-7.2v-140c0,1.1-6.1,3.4-11.4,8.2c-15.8,14-35.4,51.7-51.1,81.9c-22.1,42.5-30.8,57.7-41.7,60.5
		C255.7,430.3,247.3,430.8,236.2,430.8L236.2,430.8z M110.5,399.2c26.4,8.1,127.8,14,143.3,11c5.8-4.5,19.6-31.1,29.7-50.5
		c17.4-33.4,37-71.2,55.6-87.7c12.5-11.1,23-15.7,32-13.9c6.1,1.2,10,5.1,11.7,8.4c0.7,1.4,1,3,1,4.5v137.6l15.5-0.3
		c-0.4-20.2-0.8-66.4,3-102.9c1.7-16.6,6-27.7,10.5-39.6c4.5-11.9,9.7-25.5,13.5-48.2c9.2-55.2-19.7-71.1-30.9-75.2
		c-34.4,28.7-82.6,82.9-121.6,126.7c-12.4,13.9-24,27-34.2,38.2c-22.7,24.8-36.6,26-52.7,27.3c-12.3,1-26.3,2.1-50.9,15l0,0
		C110.2,362.8,109.5,388.5,110.5,399.2L110.5,399.2z"/>
</g>
</svg>
