<?xml version="1.0" encoding="utf-8"?>
<!-- Generator: Adobe Illustrator 18.0.0, SVG Export Plug-In . SVG Version: 6.00 Build 0)  -->
<!DOCTYPE svg PUBLIC "-//W3C//DTD SVG 1.1//EN" "http://www.w3.org/Graphics/SVG/1.1/DTD/svg11.dtd">
<svg version="1.1" id="图形" xmlns="http://www.w3.org/2000/svg" xmlns:xlink="http://www.w3.org/1999/xlink" x="0px" y="0px"
	 viewBox="15.167 -16.333 1000.636 1000.678" enable-background="new 15.167 -16.333 1000.636 1000.678" xml:space="preserve">
<g>
	<path fill-rule="evenodd" clip-rule="evenodd" fill="#272536" d="M872.89,820.242l-49.326-407.407
		c-4.388-30.912-32.854-55.115-64.752-55.115h-64.337c0-0.127,0.031-0.254,0.031-0.382c0-99.32-78.617-177.177-179.055-177.177
		c-100.403,0-179.086,77.856-179.086,177.177c0,0.128,0.066,0.254,0.066,0.382H272.06c-31.836,0-60.268,24.172-64.816,55.594
		l-49.136,406.448c-3.021,21.117,2.575,41.629,15.33,56.289c11.45,13.236,27.478,20.514,45.162,20.514h593.708
		c17.681,0,33.711-7.278,45.222-20.514C870.25,861.394,875.847,840.88,872.89,820.242L872.89,820.242L872.89,820.242z
		 M381.146,357.339c0-74.229,58.994-132.399,134.304-132.399c75.312,0,134.338,58.169,134.338,132.399
		c0,0.127,0.066,0.254,0.066,0.382H381.081C381.081,357.593,381.146,357.466,381.146,357.339L381.146,357.339L381.146,357.339z
		 M272.058,402.5H758.81c9.606,0,19.148,7.793,20.354,16.156l10.238,84.441L515.45,595.038l-273.954-91.976l10.114-83.897
		C252.913,410.293,262.485,402.5,272.058,402.5L272.058,402.5L272.058,402.5z M823.659,846.7c-2.927,3.405-6.711,5.119-11.353,5.119
		H218.597c-4.612,0-8.461-1.715-11.385-5.088c-4.2-4.867-5.981-12.436-4.708-21.117l33.49-277.168l272.332,91.436
		c2.322,0.762,4.706,1.145,7.123,1.145s4.835-0.381,7.123-1.145l272.304-91.404l33.584,277.583
		C829.703,834.298,827.888,841.837,823.659,846.7L823.659,846.7L823.659,846.7z M470.67,515.689h89.559
		c12.375,0,22.391-10.018,22.391-22.387c0-12.374-10.016-22.423-22.391-22.423h-89.558c-12.373,0-22.389,10.05-22.389,22.423
		C448.282,505.671,458.298,515.689,470.67,515.689L470.67,515.689L470.67,515.689z"/>
</g>
</svg>
