<?xml version="1.0" encoding="utf-8"?>
<!-- Generator: Adobe Illustrator 18.0.0, SVG Export Plug-In . SVG Version: 6.00 Build 0)  -->
<!DOCTYPE svg PUBLIC "-//W3C//DTD SVG 1.1//EN" "http://www.w3.org/Graphics/SVG/1.1/DTD/svg11.dtd">
<svg version="1.1" id="图形" xmlns="http://www.w3.org/2000/svg" xmlns:xlink="http://www.w3.org/1999/xlink" x="0px" y="0px"
	 viewBox="15.167 -16.333 1000.636 1000.678" enable-background="new 15.167 -16.333 1000.636 1000.678" xml:space="preserve">
<path fill="#43BBFF" d="M857.126,171.709H173.843c-43.565,0-78.881,34.59-78.881,77.272v566.367
	c0,42.677,35.316,77.272,78.881,77.272h683.283c43.565,0,78.881-34.594,78.881-77.272V248.981
	C936.008,206.301,900.693,171.709,857.126,171.709L857.126,171.709z M173.82,223.201h683.332c14.522,0,26.288,11.534,26.288,25.756
	v303.25c-42.353-34.046-115.783-79.951-203.872-79.951c-81.217,0-161.295,61.656-238.727,121.282
	c-59.326,45.677-120.681,92.919-163.73,92.919c-60.383,0-112.07-43.486-129.588-60.07V248.958
	C147.523,234.735,159.298,223.201,173.82,223.201L173.82,223.201z M357.518,532.447c58.144,0,105.274-46.173,105.274-103.127
	c0-56.958-47.13-103.127-105.274-103.127c-58.14,0-105.274,46.169-105.274,103.127C252.244,486.274,299.378,532.447,357.518,532.447
	L357.518,532.447z M357.911,377.688c28.948,0,52.417,22.98,52.417,51.344c0,28.359-23.469,51.347-52.417,51.347
	c-28.952,0-52.413-22.992-52.413-51.347C305.498,400.677,328.963,377.688,357.911,377.688L357.911,377.688z"/>
</svg>
