<?xml version="1.0" encoding="utf-8"?>
<!-- Generator: Adobe Illustrator 18.0.0, SVG Export Plug-In . SVG Version: 6.00 Build 0)  -->
<!DOCTYPE svg PUBLIC "-//W3C//DTD SVG 1.1//EN" "http://www.w3.org/Graphics/SVG/1.1/DTD/svg11.dtd">
<svg version="1.1" id="图形" xmlns="http://www.w3.org/2000/svg" xmlns:xlink="http://www.w3.org/1999/xlink" x="0px" y="0px"
	 viewBox="0 0 500 500" enable-background="new 0 0 500 500" xml:space="preserve">
<g>
	<polygon fill="#FFD60D" points="40.489,400.684 250.173,81.678 459.856,400.684 	"/>
	<path fill="#FFD60D" d="M459.866,410.643c-0.003,0-0.006,0-0.01,0H40.489c-3.662,0-7.028-2.009-8.766-5.231
		c-1.738-3.223-1.568-7.139,0.443-10.199L241.85,76.208c1.842-2.802,4.97-4.489,8.323-4.489c3.353,0,6.481,1.687,8.322,4.489
		l209.453,318.655c1.181,1.637,1.877,3.648,1.877,5.821C469.825,406.184,465.366,410.643,459.866,410.643z M58.954,390.724h382.437
		L250.173,99.81L58.954,390.724z"/>
</g>
<g>
	<polygon fill="#FFFFFF" points="231.639,349.491 268.889,349.491 277.653,165.438 222.875,165.438 	"/>
	<rect x="231.914" y="355.973" fill="#FFFFFF" width="36.883" height="36.884"/>
</g>
</svg>
