<?xml version="1.0" encoding="utf-8"?>
<!-- Generator: Adobe Illustrator 18.0.0, SVG Export Plug-In . SVG Version: 6.00 Build 0)  -->
<!DOCTYPE svg PUBLIC "-//W3C//DTD SVG 1.1//EN" "http://www.w3.org/Graphics/SVG/1.1/DTD/svg11.dtd">
<svg version="1.1" id="图形" xmlns="http://www.w3.org/2000/svg" xmlns:xlink="http://www.w3.org/1999/xlink" x="0px" y="0px"
	 viewBox="15.167 -16.333 1000.636 1000.678" enable-background="new 15.167 -16.333 1000.636 1000.678" xml:space="preserve">
<g>
	<path fill-rule="evenodd" clip-rule="evenodd" fill="#FFFFFF" d="M686.025,479.188c36.477-40.635,58.873-94.145,58.873-152.904
		c0-126.493-102.92-229.413-229.413-229.413s-229.413,102.92-229.413,229.413s102.92,229.413,229.413,229.413
		c44.592,0,86.116-12.99,121.388-35.1c124.744,47.001,210.63,161.163,221.556,293.19H172.57
		c7.427-88.869,49.123-171.744,116.943-230.876c11.958-10.409,13.191-28.504,2.782-40.462c-10.381-11.93-28.505-13.192-40.463-2.782
		c-87.607,76.337-137.82,186.685-137.82,302.797c0,15.858,12.847,28.677,28.677,28.677h745.592
		c15.859,0,28.677-12.818,28.677-28.677C916.958,685.144,825.766,544.657,686.025,479.188L686.025,479.188L686.025,479.188z
		 M343.425,326.284c0-94.891,77.169-172.06,172.06-172.06s172.06,77.169,172.06,172.06s-77.169,172.06-172.06,172.06
		S343.425,421.175,343.425,326.284L343.425,326.284L343.425,326.284z"/>
</g>
</svg>
