<?xml version="1.0" encoding="utf-8"?>
<!-- Generator: Adobe Illustrator 18.0.0, SVG Export Plug-In . SVG Version: 6.00 Build 0)  -->
<!DOCTYPE svg PUBLIC "-//W3C//DTD SVG 1.1//EN" "http://www.w3.org/Graphics/SVG/1.1/DTD/svg11.dtd">
<svg version="1.1" id="图形" xmlns="http://www.w3.org/2000/svg" xmlns:xlink="http://www.w3.org/1999/xlink" x="0px" y="0px"
	 viewBox="15.167 -16.333 1000.636 1000.678" enable-background="new 15.167 -16.333 1000.636 1000.678" xml:space="preserve">
<g>
	<path fill-rule="evenodd" clip-rule="evenodd" fill="#FFFFFF" d="M711.551,490.561l-367.34-0.633
		c-0.148-49.548-13.477-126.341,28.822-172.953c25.714-28.417,69.061-57.655,115.302-57.655c68.315,0,119.397,51.53,144.132,115.301
		c7.208,18.393,13.549,28.304,28.83,28.83c38.319,1.16,35.989-39.26,28.823-57.654c-35.731-92.068-102.768-144.13-201.785-144.13
		c-67.297,0-104.38,13.813-144.124,57.652c-60.806,66.997-57.806,175.321-57.653,230.608l-21.436,0.634
		c-20.036,0-36.219,16.026-36.219,35.733v302.599c0,19.819,16.216,35.804,36.219,35.804h446.392
		c20.007,0,36.218-15.992,36.218-35.804V526.295C747.769,506.552,731.558,490.561,711.551,490.561L711.551,490.561L711.551,490.561z
		 M691.002,777.985c0,7.973-2.781,14.811-8.464,20.416c-5.636,5.641-12.448,8.463-20.414,8.463H315.548
		c-7.973,0-14.778-2.782-20.38-8.463c-5.641-5.639-8.5-12.443-8.5-20.416V575.813c0-15.902,12.933-28.843,28.879-28.843h346.57
		c15.945,0,28.885,12.941,28.885,28.843V777.985L691.002,777.985L691.002,777.985z"/>
</g>
</svg>
