<?xml version="1.0" encoding="utf-8"?>
<!-- Generator: Adobe Illustrator 18.0.0, SVG Export Plug-In . SVG Version: 6.00 Build 0)  -->
<!DOCTYPE svg PUBLIC "-//W3C//DTD SVG 1.1//EN" "http://www.w3.org/Graphics/SVG/1.1/DTD/svg11.dtd">
<svg version="1.1" id="图形" xmlns="http://www.w3.org/2000/svg" xmlns:xlink="http://www.w3.org/1999/xlink" x="0px" y="0px"
	 viewBox="15.167 -16.333 1000.636 1000.678" enable-background="new 15.167 -16.333 1000.636 1000.678" xml:space="preserve">
<path fill="#FFBD14" d="M255.335,837.844c0,32.389,56.527,58.646,126.256,58.646s126.256-26.257,126.256-58.646
	s-56.527-58.646-126.256-58.646S255.335,805.455,255.335,837.844z"/>
<path fill="#EF9E0D" d="M385.338,886.037c-69.726,0-126.256-26.248-126.256-58.646c0-1.452,0.251-2.887,0.466-4.321
	c-2.661,4.483-4.113,9.579-4.213,14.791c0,32.38,56.53,58.646,126.256,58.646c66.588,0,121.003-23.953,125.772-54.325
	C493.253,867.391,444.056,886.037,385.338,886.037L385.338,886.037z"/>
<path fill="#FFBD14" d="M522.782,837.844c0,32.389,56.527,58.646,126.256,58.646s126.256-26.257,126.256-58.646
	s-56.527-58.646-126.256-58.646S522.782,805.455,522.782,837.844z"/>
<path fill="#EF9E0D" d="M645.309,886.037c69.726,0,126.256-26.248,126.256-58.646c0-1.452-0.251-2.887-0.466-4.321
	c2.654,4.733,4.213,9.664,4.213,14.791c0,32.38-56.53,58.646-126.256,58.646c-66.588,0-121.003-23.953-125.772-54.325
	C537.376,867.391,586.591,886.037,645.309,886.037L645.309,886.037z"/>
<path fill="#121214" d="M796.164,499.811l-28.382-91.133c0-296.707-239.89-297.693-252.297-297.693
	c-12.891,0-252.279,0.986-252.279,297.693l-28.4,91.133c0,0-96.368,121.021-31.376,226.354c7.279,5.038,7.853,23.541,47.064-59.399
	c0,0,52.64,185.476,263.664,187.053v0.072l1.327-0.036l1.327,0.036v-0.072c211.007-1.578,263.664-187.053,263.664-187.053
	c39.229,82.922,40.018,66.122,47.064,59.399C892.532,620.831,796.164,499.811,796.164,499.811L796.164,499.811z"/>
<path fill="#FFFFFF" d="M526.529,306.321c-0.011,39.608,22.809,71.729,50.97,71.744c28.161,0.016,50.999-32.08,51.01-71.688
	c0-0.019,0-0.038,0-0.056c0.011-39.608-22.809-71.729-50.97-71.744c-28.161-0.016-50.999,32.08-51.01,71.688
	C526.529,306.283,526.529,306.302,526.529,306.321z"/>
<path fill="#FFFFFF" d="M395.45,306.321c-0.011,39.608,22.809,71.729,50.97,71.744c28.161,0.016,50.999-32.08,51.01-71.688
	c0-0.019,0-0.038,0-0.056c0.011-39.608-22.809-71.729-50.97-71.744c-28.161-0.016-50.999,32.08-51.01,71.688
	C395.45,306.283,395.45,306.302,395.45,306.321z"/>
<path fill="#161616" d="M436.884,306.321c0,20.17,11.623,36.521,25.961,36.521c14.338,0,25.961-16.351,25.961-36.521
	s-11.623-36.521-25.961-36.521C448.507,269.799,436.884,286.15,436.884,306.321z"/>
<path fill="#181818" d="M545.892,328.875c-2.76,0.006-5.076-2.078-5.361-4.823c-0.341-3.209-2.922-31.734,9.251-45.235
	c8.265-9.18,23.559-9.18,31.824,0c12.174,13.501,9.556,42.026,9.233,45.235c-0.199,2.865-2.683,5.025-5.548,4.826
	c-0.123-0.009-0.246-0.022-0.369-0.039c-2.959-0.311-5.108-2.957-4.805-5.917c0.771-7.405,1.112-28.471-6.508-36.916
	c-3.92-4.372-10.642-4.738-15.013-0.818c-0.287,0.258-0.56,0.531-0.818,0.818c-7.656,8.48-7.315,29.529-6.526,36.916
	c0.312,2.954-1.829,5.602-4.783,5.914c-0.007,0.001-0.014,0.001-0.022,0.002C546.251,328.875,546.054,328.875,545.892,328.875
	L545.892,328.875z"/>
<path fill="#FFFFFF" d="M462.827,296.191c-0.001,6.179,3.563,11.188,7.959,11.189c4.396,0.001,7.961-5.007,7.962-11.186
	c0-0.001,0-0.002,0-0.003c0.001-6.179-3.563-11.188-7.959-11.189c-4.396-0.001-7.961,5.007-7.962,11.186
	C462.827,296.189,462.827,296.19,462.827,296.191z"/>
<path fill="#FAB718" d="M651.656,411.654c-41.47-19.417-107.951-25.782-134.844-25.782c-26.894,0-93.374,6.347-134.844,25.782
	c-19.794,6.723-27.647,11.959-27.647,18.306c0,6.347,50.058,43.711,103.468,66.481c25.101,12.694,32.505,23.541,59.022,23.541
	c26.517,0,33.904-10.829,59.022-23.541c53.411-22.788,103.468-60.134,103.468-66.481
	C679.302,423.612,671.449,418.377,651.656,411.654z"/>
<path fill="#8C2B01" d="M385.338,431.824c0,0,55.275,38.852,128.121,38.852s132.227-38.852,132.227-38.852
	s-44.07,29.135-78.063,49.305s-38.476,25.782-55.652,25.782c-17.176,0-39.229-20.923-49.126-25.782
	C452.948,476.288,425.678,456.118,385.338,431.824z"/>
<path fill="#F9F9F9" d="M722.242,469.367c-86.687,72.272-206.74,64.06-206.74,64.06s-120.053,8.211-206.74-64.06
	c0,0-82.545,371.848,206.74,371.848S722.242,469.367,722.242,469.367L722.242,469.367z"/>
<path fill="#E32B10" d="M767.818,408.677c0,0-69.098,124.015-252.315,124.015S263.188,408.677,263.188,408.677
	c-29.135,79.928-28.382,91.133-28.382,91.133c28.275,31.38,62,57.378,99.542,76.736c-2.438,26.643-5.773,67.646-5.415,88.551
	c0.556,32.505,20.403,34.746,66.517,39.229c46.096,4.482,36.575-7.853,36.575-28.579v-65.459
	c48.892,9.413,83.478,6.078,83.478,6.078s160.429,16.441,280.697-116.539C796.199,499.811,796.952,488.605,767.818,408.677
	L767.818,408.677z"/>
</svg>
