<?xml version="1.0" encoding="utf-8"?>
<!-- Generator: Adobe Illustrator 18.0.0, SVG Export Plug-In . SVG Version: 6.00 Build 0)  -->
<!DOCTYPE svg PUBLIC "-//W3C//DTD SVG 1.1//EN" "http://www.w3.org/Graphics/SVG/1.1/DTD/svg11.dtd">
<svg version="1.1" id="图形" xmlns="http://www.w3.org/2000/svg" xmlns:xlink="http://www.w3.org/1999/xlink" x="0px" y="0px"
	 viewBox="15.167 -16.333 1000.636 1000.678" enable-background="new 15.167 -16.333 1000.636 1000.678" xml:space="preserve">
<path fill="#FFFFFF" d="M429.409,659.552c-7.096,0.227-13.388,6.379-14.349,13.878c-0.891,7.446,3.95,13.423,11.099,13.318
	c7.271-0.122,13.843-6.449,14.769-14.07C441.679,665.075,436.505,659.15,429.409,659.552L429.409,659.552z M381.117,668.082
	c-21.847,1.031-41.633,20.082-44.482,43.066c-2.971,23.123,12.427,41.668,34.432,41.283c22.319-0.35,42.891-19.907,45.618-43.503
	C419.132,685.28,403.279,667.155,381.117,668.082L381.117,668.082z"/>
<path fill="#FFFFFF" d="M743.996,639.068c-9.997-104.536-150.625-176.58-314.115-160.937
	c-163.489,15.643-287.915,113.048-277.918,217.601c10.015,104.536,150.643,176.598,314.132,160.955
	C629.585,841.027,754.01,743.622,743.996,639.068L743.996,639.068z M538.245,679.582c-7.428,68.024-73.11,123.989-144.071,123.692
	c-68.496-0.262-114.341-53.238-104.711-117.155c9.456-62.694,69.213-115.425,135.769-118.99
	C494.095,563.284,545.673,612.991,538.245,679.582z"/>
<path fill="#E79014" d="M953.434,344.284c-27.598-154.208-150.206-216.115-235.167-222.023
	c-15.975-1.538-30.814,8.092-33.016,23.525c-2.115,15.014,8.634,29.957,23.525,33.016c55.58,12.27,160.745,28.454,188.57,184.952
	c2.429,15.87,15.503,32.789,35.271,28.489C947.09,389.046,960.023,381.006,953.434,344.284z M706.243,301.201
	c-10.06-1.692-19.776,4.474-22.529,14.297c-3.233,10.766,2.727,23.088,13.668,25.378c23.246,4.859,34.624,20.886,37.997,37.98
	c0,0,2.971,11.588,14.14,14.786c10.924,3.129,30.656-4.946,24.976-26.462C768.849,337.905,739.748,306.462,706.243,301.201
	L706.243,301.201z"/>
<path fill="#E79014" d="M720.383,218.565c-24.399-4.212-35.568,13.283-35.568,27.248c0,13.947,9.962,24.015,28.349,29.136
	c48.834,13.545,80.189,34.956,88.788,91.497c2.499,16.412,17.495,25.168,28.384,25.168c14.699,0,26.602-11.92,26.602-26.602
	c0-0.542-0.052-1.084-0.087-1.608l0.14-0.035C847.693,290.837,793.336,231.167,720.383,218.565z"/>
<path fill="#D62629" d="M715.436,658.556c-9.805,101.635-154.715,183.012-311.86,179.01c-145.627-3.6-242.665-80.276-226.585-169.24
	c15.678-86.411,134.703-161.095,274.702-169.362C602.074,490.103,724.997,560.068,715.436,658.556z M692.523,495.679
	c-5.803,0.157-8.25,0.839-9.123-1.241c-0.717-1.695,0.14-3.548,3.268-11.448c8.721-22.005,22.582-67.238-5.925-92.476
	c-18.806-16.657-98.436-29.363-182.348,28.839c-4.177,2.901-10.959,9.089-14.384,7.952c-3.775-1.276-4.579-5.348-5.086-13.039
	c-2.744-41.458,32.125-156.673-57.817-147.112c-95.605,16.185-224.592,167.264-261.453,240.34
	C28.831,766.763,218.013,872.4,403.07,877.923c200.77,5.925,404.161-108.066,430.903-260.562
	C851.817,515.569,731.988,494.805,692.523,495.679L692.523,495.679z"/>
<path fill="#030000" d="M425.232,567.129c-66.556,3.583-126.313,56.297-135.769,118.99
	c-9.613,63.917,36.214,116.893,104.711,117.155c70.961,0.297,136.643-55.667,144.071-123.692
	C545.673,612.991,494.095,563.284,425.232,567.129L425.232,567.129z M416.685,708.928c-2.727,23.595-23.298,43.136-45.618,43.503
	c-22.022,0.385-37.42-18.16-34.432-41.283c2.849-22.984,22.634-42.035,44.482-43.066
	C403.279,667.155,419.132,685.28,416.685,708.928L416.685,708.928z M426.158,686.731c-7.131,0.105-11.972-5.873-11.099-13.318
	c0.961-7.481,7.253-13.65,14.349-13.878c7.079-0.402,12.27,5.523,11.518,13.108C440.001,680.281,433.429,686.608,426.158,686.731z"
	/>
</svg>
