<?xml version="1.0" encoding="utf-8"?>
<!-- Generator: Adobe Illustrator 18.0.0, SVG Export Plug-In . SVG Version: 6.00 Build 0)  -->
<!DOCTYPE svg PUBLIC "-//W3C//DTD SVG 1.1//EN" "http://www.w3.org/Graphics/SVG/1.1/DTD/svg11.dtd">
<svg version="1.1" id="图形" xmlns="http://www.w3.org/2000/svg" xmlns:xlink="http://www.w3.org/1999/xlink" x="0px" y="0px"
	 viewBox="15.167 -16.333 1000.636 1000.678" enable-background="new 15.167 -16.333 1000.636 1000.678" xml:space="preserve">
<path fill="#46AF35" d="M677.225,388.248c4.582,0,9.088,0.057,13.594,0.302c-23.813-129.772-157.846-229.077-319.614-229.077
	c-178.604,0-323.366,121.081-323.366,270.442c0,87.577,49.756,165.425,126.944,214.842l2.96,1.885l-31.241,97.852l116.895-59.541
	l5.505,1.584c40.34,11.153,82.241,15.587,124.022,13.122c-6.777-20.837-10.244-42.607-10.275-64.519
	C382.669,498.79,514.59,388.248,677.225,388.248L677.225,388.248z M483.764,292.828c25.076,0,45.382,19.665,45.382,43.949
	c0,24.265-20.306,43.986-45.382,43.986c-25.114,0-45.401-19.702-45.401-43.986C438.345,312.474,458.65,292.828,483.764,292.828z
	 M258.684,380.745c-25.095,0-45.401-19.702-45.401-43.986c0-24.284,20.325-43.949,45.401-43.949
	c25.095,0,45.457,19.665,45.457,43.949C304.141,361.042,283.779,380.745,258.684,380.745z"/>
<path fill="#46AF35" d="M406.444,636.745c0,126.209,122.363,228.511,273.233,228.511c30.824,0.044,61.493-4.351,91.065-13.047
	l98.72,50.34l-26.396-82.713l2.489-1.584c65.197-41.743,107.242-107.487,107.242-181.527c0-126.152-122.306-228.454-273.138-228.454
	C528.806,408.309,406.444,510.592,406.444,636.745L406.444,636.745z M736.37,558.048c0-20.475,17.157-37.086,38.33-37.086
	c21.23,0,38.368,16.629,38.368,37.086c0,20.551-17.157,37.199-38.368,37.199C753.528,595.247,736.37,578.58,736.37,558.048z
	 M546.227,558.048c0-20.475,17.195-37.086,38.368-37.086c21.192,0,38.368,16.629,38.368,37.086
	c0,20.551-17.176,37.199-38.368,37.199C563.422,595.247,546.227,578.58,546.227,558.048z"/>
</svg>
