<?xml version="1.0" encoding="utf-8"?>
<!-- Generator: Adobe Illustrator 18.0.0, SVG Export Plug-In . SVG Version: 6.00 Build 0)  -->
<!DOCTYPE svg PUBLIC "-//W3C//DTD SVG 1.1//EN" "http://www.w3.org/Graphics/SVG/1.1/DTD/svg11.dtd">
<svg version="1.1" id="图形" xmlns="http://www.w3.org/2000/svg" xmlns:xlink="http://www.w3.org/1999/xlink" x="0px" y="0px"
	 viewBox="0 0 500 500" style="enable-background:new 0 0 500 500;" xml:space="preserve">
<style type="text/css">
	.st0{fill:#C1C1C1;}
</style>
<g>
	<path class="st0" d="M379.595,83.727h-57.163V51.329c0-10.52-8.557-19.077-19.077-19.077h-84.378
		c-10.52,0-19.077,8.557-19.077,19.077v32.399h-57.163c-17.736,0-32.248,14.512-32.248,32.248v292.207
		c0,17.737,14.512,32.248,32.248,32.248h27.559c-1.696,3.698-2.648,7.809-2.648,12.144c0,16.112,13.061,29.173,29.173,29.173
		c16.113,0,29.174-13.061,29.174-29.173c0-4.335-0.952-8.445-2.648-12.144h75.64c-1.696,3.698-2.648,7.809-2.648,12.144
		c0,16.112,13.061,29.173,29.173,29.173c16.113,0,29.174-13.061,29.174-29.173c0-4.335-0.952-8.445-2.648-12.144h27.558
		c17.737,0,32.249-14.512,32.249-32.248V115.976C411.844,98.239,397.332,83.727,379.595,83.727L379.595,83.727z M331.882,162.939
		L331.882,162.939c5.638,0,10.251,4.612,10.251,10.251v163.317c0,5.638-4.612,10.251-10.251,10.251l0,0
		c-5.638,0-10.251-4.612-10.251-10.251V173.189C321.632,167.551,326.244,162.939,331.882,162.939L331.882,162.939z M229.249,61.601
		h63.834v22.126h-63.834V61.601L229.249,61.601z M180.2,173.189c0-5.638,4.612-10.251,10.251-10.251l0,0
		c5.638,0,10.251,4.612,10.251,10.251v163.317c0,5.638-4.612,10.251-10.251,10.251l0,0c-5.638,0-10.251-4.612-10.251-10.251
		L180.2,173.189L180.2,173.189z M271.417,336.505c0,5.638-4.612,10.251-10.251,10.251l0,0c-5.638,0-10.251-4.612-10.251-10.251
		V173.189c0-5.638,4.612-10.251,10.251-10.251l0,0c5.638,0,10.251,4.612,10.251,10.251V336.505L271.417,336.505z"/>
</g>
</svg>
