<?xml version="1.0" encoding="utf-8"?>
<!-- Generator: Adobe Illustrator 18.0.0, SVG Export Plug-In . SVG Version: 6.00 Build 0)  -->
<!DOCTYPE svg PUBLIC "-//W3C//DTD SVG 1.1//EN" "http://www.w3.org/Graphics/SVG/1.1/DTD/svg11.dtd">
<svg version="1.1" id="图形" xmlns="http://www.w3.org/2000/svg" xmlns:xlink="http://www.w3.org/1999/xlink" x="0px" y="0px"
	 viewBox="0 0 500 500" enable-background="new 0 0 500 500" xml:space="preserve">
<g>
	<path fill="#FFFFFF" d="M361.6,92.5h-46.6V66.1c0-8.6-7-15.5-15.5-15.5h-68.7c-8.6,0-15.5,7-15.5,15.5v26.4h-46.6
		c-14.4,0-26.3,11.8-26.3,26.3v238c0,14.4,11.8,26.3,26.3,26.3h22.4c-1.4,3-2.2,6.4-2.2,9.9c0,13.1,10.6,23.8,23.8,23.8
		c13.1,0,23.8-10.6,23.8-23.8c0-3.5-0.8-6.9-2.2-9.9H296c-1.4,3-2.2,6.4-2.2,9.9c0,13.1,10.6,23.8,23.8,23.8
		c13.1,0,23.8-10.6,23.8-23.8c0-3.5-0.8-6.9-2.2-9.9h22.4c14.4,0,26.3-11.8,26.3-26.3v-238C387.9,104.3,376.1,92.5,361.6,92.5
		L361.6,92.5z M322.8,157L322.8,157c4.6,0,8.3,3.8,8.3,8.3v133c0,4.6-3.8,8.3-8.3,8.3l0,0c-4.6,0-8.3-3.8-8.3-8.3v-133
		C314.4,160.8,318.2,157,322.8,157L322.8,157z M239.2,74.5h52v18h-52V74.5L239.2,74.5z M199.2,165.4c0-4.6,3.8-8.3,8.3-8.3l0,0
		c4.6,0,8.3,3.8,8.3,8.3v133c0,4.6-3.8,8.3-8.3,8.3l0,0c-4.6,0-8.3-3.8-8.3-8.3V165.4L199.2,165.4z M273.5,298.4
		c0,4.6-3.8,8.3-8.3,8.3l0,0c-4.6,0-8.3-3.8-8.3-8.3v-133c0-4.6,3.8-8.3,8.3-8.3l0,0c4.6,0,8.3,3.8,8.3,8.3V298.4L273.5,298.4z"/>
</g>
</svg>
