<?xml version="1.0" encoding="utf-8"?>
<!-- Generator: Adobe Illustrator 18.0.0, SVG Export Plug-In . SVG Version: 6.00 Build 0)  -->
<!DOCTYPE svg PUBLIC "-//W3C//DTD SVG 1.1//EN" "http://www.w3.org/Graphics/SVG/1.1/DTD/svg11.dtd">
<svg version="1.1" id="图形" xmlns="http://www.w3.org/2000/svg" xmlns:xlink="http://www.w3.org/1999/xlink" x="0px" y="0px"
	 viewBox="0 0 500 500" style="enable-background:new 0 0 500 500;" xml:space="preserve">
<style type="text/css">
	.st0{fill:#272536;}
</style>
<g>
	<path class="st0" d="M412.942,101.094C375.503,62.568,323.131,38.63,265.167,38.63c-5.721,0-11.386,0.236-16.988,0.693
		c-6.872,4.466-42.998,32.084-56.846,126.33C252.872,145.307,325.351,102.313,412.942,101.094L412.942,101.094z M158.363,174.194
		c9.988-77.636,35.623-113.346,49.679-127.541C151.337,62.98,104.681,103.004,79.465,155.31
		C103.597,175.395,129.725,179.06,158.363,174.194L158.363,174.194z M188.162,192.87c-0.987,11.196-1.678,23.166-2.012,35.969
		H470.61c-2.653-34.909-14.005-67.387-31.893-95.271C348.211,115.044,263.76,171.747,188.162,192.87L188.162,192.87z
		 M155.813,199.478c-29.956,3.472-58.351-1.769-84.992-23.382c-5.893,16.7-9.702,34.383-11.096,52.742h94.667
		C154.628,218.524,155.116,208.753,155.813,199.478L155.813,199.478z M189.144,310.236c72.207,22.665,152.717,79.937,238.913,60.458
		c0.011,0.04,0.023,0.08,0.034,0.121c23.994-30.946,39.369-68.911,42.518-110.295H186.06
		C186.425,278.735,187.51,295.255,189.144,310.236L189.144,310.236z M248.04,450.009c5.648,0.464,11.359,0.704,17.127,0.704
		c49.391,0,94.72-17.38,130.212-46.356c-79.231-3.477-145.463-44.304-202.13-65.322C208.145,422.27,241.148,445.907,248.04,450.009
		L248.04,450.009z M85.248,345.146c26.279,46.958,70.4,82.577,123.197,97.661c-12.979-13.34-36.377-45.781-47.713-113.468
		C133.36,323.688,108.356,326.338,85.248,345.146L85.248,345.146z M157.139,302.735c-1.36-12.98-2.299-27.018-2.698-42.215H59.724
		c1.726,22.694,7.135,44.355,15.619,64.399C100.996,303.479,128.323,298.707,157.139,302.735L157.139,302.735z"/>
</g>
</svg>
