<?xml version="1.0" encoding="utf-8"?>
<!-- Generator: Adobe Illustrator 18.0.0, SVG Export Plug-In . SVG Version: 6.00 Build 0)  -->
<!DOCTYPE svg PUBLIC "-//W3C//DTD SVG 1.1//EN" "http://www.w3.org/Graphics/SVG/1.1/DTD/svg11.dtd">
<svg version="1.1" id="图形" xmlns="http://www.w3.org/2000/svg" xmlns:xlink="http://www.w3.org/1999/xlink" x="0px" y="0px"
	 viewBox="15.167 -16.333 1000.636 1000.678" enable-background="new 15.167 -16.333 1000.636 1000.678" xml:space="preserve">
<g>
	<path fill-rule="evenodd" clip-rule="evenodd" fill="#272536" d="M755.904,255.706c-64.753-66.634-155.334-108.037-255.587-108.037
		c-9.894,0-19.693,0.408-29.382,1.198c-11.885,7.725-74.368,55.491-98.32,218.496C479.053,332.174,604.41,257.813,755.904,255.706
		L755.904,255.706z M315.594,382.137c17.275-134.277,61.612-196.039,85.924-220.591c-98.076,28.238-178.772,97.463-222.384,187.929
		C220.871,384.213,266.062,390.552,315.594,382.137L315.594,382.137z M367.133,414.437c-1.707,19.364-2.903,40.068-3.479,62.21
		h491.991c-4.588-60.377-24.223-116.55-55.162-164.778C643.948,279.833,497.885,377.904,367.133,414.437L367.133,414.437z
		 M311.182,425.866c-51.811,6.004-100.922-3.059-146.999-40.44c-10.191,28.883-16.78,59.467-19.192,91.221h163.734
		C309.134,458.808,309.978,441.908,311.182,425.866L311.182,425.866z M368.83,617.43c124.887,39.2,264.134,138.257,413.215,104.565
		c0.019,0.07,0.04,0.139,0.06,0.21c41.5-53.523,68.092-119.186,73.537-190.762H363.497
		C364.129,562.947,366.004,591.519,368.83,617.43L368.83,617.43z M470.695,859.178c9.768,0.803,19.646,1.217,29.622,1.217
		c85.424,0,163.824-30.061,225.21-80.175c-137.035-6.014-251.588-76.627-349.597-112.978
		C401.694,811.201,458.776,852.082,470.695,859.178L470.695,859.178z M189.137,677.809
		c45.45,81.217,121.761,142.822,213.077,168.911c-22.448-23.072-62.917-79.182-82.523-196.25
		C272.349,640.697,229.103,645.28,189.137,677.809L189.137,677.809z M313.477,604.457c-2.352-22.449-3.976-46.729-4.667-73.013
		H144.991c2.986,39.25,12.341,76.716,27.014,111.383C216.374,605.744,263.637,597.49,313.477,604.457L313.477,604.457z"/>
</g>
</svg>
