<?xml version="1.0" encoding="utf-8"?>
<!-- Generator: Adobe Illustrator 18.0.0, SVG Export Plug-In . SVG Version: 6.00 Build 0)  -->
<!DOCTYPE svg PUBLIC "-//W3C//DTD SVG 1.1//EN" "http://www.w3.org/Graphics/SVG/1.1/DTD/svg11.dtd">
<svg version="1.1" id="图形" xmlns="http://www.w3.org/2000/svg" xmlns:xlink="http://www.w3.org/1999/xlink" x="0px" y="0px"
	 viewBox="0 0 500 500" enable-background="new 0 0 500 500" xml:space="preserve">
<g>
	<path fill="#FFFFFF" d="M385.3,119.6c-32.4-33.3-77.6-54-127.7-54c-4.9,0-9.8,0.2-14.7,0.6c-5.9,3.9-37.2,27.7-49.1,109.2
		C247,157.8,309.6,120.6,385.3,119.6L385.3,119.6z M165.3,182.8c8.6-67.1,30.8-98,42.9-110.2c-49,14.1-89.3,48.7-111.1,93.9
		C118,183.8,140.5,187,165.3,182.8L165.3,182.8z M191,198.9c-0.9,9.7-1.5,20-1.7,31.1h245.8c-2.3-30.2-12.1-58.2-27.6-82.3
		C329.4,131.6,256.4,180.7,191,198.9L191,198.9z M163.1,204.6c-25.9,3-50.4-1.5-73.4-20.2c-5.1,14.4-8.4,29.7-9.6,45.6h81.8
		C162.1,221.1,162.5,212.6,163.1,204.6L163.1,204.6z M191.9,300.3c62.4,19.6,132,69.1,206.5,52.2c0,0,0,0.1,0,0.1
		c20.7-26.7,34-59.6,36.7-95.3H189.2C189.5,273.1,190.5,287.4,191.9,300.3L191.9,300.3z M242.8,421.1c4.9,0.4,9.8,0.6,14.8,0.6
		c42.7,0,81.9-15,112.5-40.1c-68.5-3-125.7-38.3-174.7-56.5C208.3,397.2,236.8,417.6,242.8,421.1L242.8,421.1z M102.1,330.5
		c22.7,40.6,60.8,71.4,106.5,84.4c-11.2-11.5-31.4-39.6-41.2-98.1C143.7,312,122.1,314.2,102.1,330.5L102.1,330.5z M164.2,293.9
		c-1.2-11.2-2-23.3-2.3-36.5H80c1.5,19.6,6.2,38.3,13.5,55.7C115.7,294.5,139.3,290.4,164.2,293.9L164.2,293.9z"/>
</g>
</svg>
