<?xml version="1.0" encoding="utf-8"?>
<!-- Generator: Adobe Illustrator 18.0.0, SVG Export Plug-In . SVG Version: 6.00 Build 0)  -->
<!DOCTYPE svg PUBLIC "-//W3C//DTD SVG 1.1//EN" "http://www.w3.org/Graphics/SVG/1.1/DTD/svg11.dtd">
<svg version="1.1" id="图形" xmlns="http://www.w3.org/2000/svg" xmlns:xlink="http://www.w3.org/1999/xlink" x="0px" y="0px"
	 viewBox="0 0 500 500" style="enable-background:new 0 0 500 500;" xml:space="preserve">
<style type="text/css">
	.st0{fill:#33B5FF;}
</style>
<path class="st0" d="M452.009,387.622H317.24v34.728l28.297,27.725v7.003H161.463v-7.003l28.297-27.725v-34.728H55.134
	c-11.719,0-21.294-9.289-21.294-20.866V88.644c0-11.576,9.575-20.866,21.294-20.866h396.875c11.719,0,21.294,9.289,21.294,20.866
	v278.113C473.303,378.332,463.728,387.622,452.009,387.622L452.009,387.622L452.009,387.622 M444.863,95.646H62.28v236.381h382.583
	V95.646L444.863,95.646 M444.863,95.646L444.863,95.646z"/>
<rect x="70.14" y="103.507" class="st0" width="367.006" height="223.519"/>
</svg>
