<?xml version="1.0" encoding="utf-8"?>
<!-- Generator: Adobe Illustrator 18.0.0, SVG Export Plug-In . SVG Version: 6.00 Build 0)  -->
<!DOCTYPE svg PUBLIC "-//W3C//DTD SVG 1.1//EN" "http://www.w3.org/Graphics/SVG/1.1/DTD/svg11.dtd">
<svg version="1.1" id="图形" xmlns="http://www.w3.org/2000/svg" xmlns:xlink="http://www.w3.org/1999/xlink" x="0px" y="0px"
	 viewBox="0 0 500 500" style="enable-background:new 0 0 500 500;" xml:space="preserve">
<style type="text/css">
	.st0{fill:#D6D6D6;}
</style>
<g>
	<path class="st0" d="M355.489,57.33c8.224,5.56,15.177,12.038,20.902,19.412c5.707,7.377,10.353,14.513,13.919,21.398
		c3.941,8.207,6.979,16.396,9.083,24.595c1.449-0.33,3.399,0,5.927,0.981c2.131,0.659,4.978,1.813,8.546,3.442
		c3.582,1.643,8.399,4.102,14.457,7.378c5.723,3.6,10.381,6.895,13.933,9.834c3.563,2.96,6.236,5.748,8.028,8.361
		c2.146,2.948,3.762,5.743,4.826,8.374H44.863c1.076-2.307,2.516-4.762,4.283-7.387c1.799-2.304,4.108-4.84,6.98-7.625
		c2.849-2.787,6.592-5.815,11.237-9.099c4.645-2.951,9.005-5.329,13.11-7.132c4.109-1.795,7.598-3.362,10.447-4.677
		c3.566-1.298,6.783-2.289,9.645-2.943c2.132-7.544,5.182-15.088,9.11-22.632c3.206-6.555,7.413-13.509,12.587-20.894
		c5.167-7.38,11.686-14.022,19.553-19.925c9.278-6.878,20.076-12.038,32.397-15.489c12.327-3.444,24.18-5.985,35.589-7.638
		c13.241-1.625,26.631-2.444,40.196-2.444c7.849,0,16.241,0.253,25.171,0.735c8.94,0.499,18.022,1.564,27.312,3.204
		c9.286,1.633,18.382,4.092,27.312,7.38C338.709,47.807,347.306,52.078,355.489,57.33L355.489,57.33L355.489,57.33L355.489,57.33
		 M249.996,55.843c-11.422,0.654-22.134,1.631-32.139,2.95c-8.559,1.303-17.217,3.113-25.958,5.415
		c-8.758,2.291-15.625,5.413-20.63,9.333c-5.72,4.601-10.262,9.346-13.661,14.261c-3.386,4.926-6.161,9.354-8.302,13.291
		c-2.503,4.912-4.465,9.512-5.887,13.773c10.351-0.987,21.425-1.971,33.202-2.962c9.983-0.65,21.324-1.376,34.013-2.206
		c12.684-0.819,25.796-1.233,39.362-1.233c14.276,0,27.927,0.414,40.973,1.233c13.019,0.83,24.365,1.556,33.986,2.206
		c11.446,0.989,21.987,1.975,31.613,2.962c-1.435-5.574-3.565-10.995-6.428-16.228c-2.487-4.585-5.606-9.266-9.366-14.021
		c-3.743-4.762-8.67-8.932-14.74-12.552c-11.056-6.554-23.373-10.813-36.952-12.774C275.536,57.33,262.488,56.17,249.996,55.843
		L249.996,55.843L249.996,55.843L249.996,55.843 M446.004,196.016c12.15,0,18.228,5.901,18.228,17.699
		c0,4.928-1.537,9.02-4.555,12.297c-3.038,3.285-6.89,4.922-11.518,4.922h-15.522v150.011c0,7.533-1.274,14.917-3.773,22.12
		c-2.489,7.217-8.393,15.081-17.666,23.616c-5.003,4.271-9.806,7.541-14.473,9.847c-4.613,2.286-8.917,4.092-12.842,5.397
		c-4.282,1.318-8.569,2.312-12.844,2.95v20.663c0,4.588-1.973,8.199-5.873,10.823c-3.953,2.61-8.404,4.092-13.411,4.419
		c-5,0-9.453-1.473-13.395-4.419c-3.937-2.95-5.898-6.564-5.898-10.823v-19.18H170.206v19.183c0,4.589-2.156,8.036-6.435,10.325
		c-4.288,2.299-8.575,3.441-12.861,3.441c-5.002,0-9.376-1.312-13.111-3.937c-3.746-2.626-5.633-6.227-5.633-10.811
		c0-1.642-0.088-3.516-0.262-5.659c-0.185-2.133-0.264-4.351-0.264-6.634v-7.887c-2.86,0-5.723-0.479-8.567-1.463
		c-2.515-0.661-5.362-1.638-8.573-2.947c-3.215-1.315-6.437-2.959-9.643-4.921c-11.422-7.218-19.903-15.489-25.43-24.842
		c-5.544-9.351-8.315-20.731-8.315-34.184v-9.341c0-5.249-0.077-11.387-0.27-18.448c-0.164-7.045-0.267-14.828-0.267-23.351v-26.07
		v-67.874H56.128c-5.721,0-10.548-1.485-14.47-4.431c-3.928-2.956-5.89-7.217-5.89-12.787c0-5.244,1.525-9.507,4.554-12.789
		c3.029-3.274,7.568-4.915,13.651-4.915h197.626h194.405V196.016L446.004,196.016L446.004,196.016 M274.613,363.244h-38.551v33.446
		h38.551V363.244L274.613,363.244L274.613,363.244L274.613,363.244"/>
</g>
</svg>
