<?xml version="1.0" encoding="utf-8"?>
<!-- Generator: Adobe Illustrator 18.0.0, SVG Export Plug-In . SVG Version: 6.00 Build 0)  -->
<!DOCTYPE svg PUBLIC "-//W3C//DTD SVG 1.1//EN" "http://www.w3.org/Graphics/SVG/1.1/DTD/svg11.dtd">
<svg version="1.1" id="图形" xmlns="http://www.w3.org/2000/svg" xmlns:xlink="http://www.w3.org/1999/xlink" x="0px" y="0px"
	 viewBox="0 0 500 500" enable-background="new 0 0 500 500" xml:space="preserve">
<g>
	<path fill="#FFFFFF" d="M353.7,42.1c7.5,5.1,13.8,11,19,17.7c5.2,6.7,9.4,13.2,12.7,19.5c3.6,7.5,6.4,14.9,8.3,22.4
		c1.3-0.3,3.1,0,5.4,0.9c1.9,0.6,4.5,1.7,7.8,3.1c3.3,1.5,7.7,3.7,13.2,6.7c5.2,3.3,9.5,6.3,12.7,9c3.2,2.7,5.7,5.2,7.3,7.6
		c2,2.7,3.4,5.2,4.4,7.6H70.6c1-2.1,2.3-4.3,3.9-6.7c1.6-2.1,3.7-4.4,6.4-6.9c2.6-2.5,6-5.3,10.2-8.3c4.2-2.7,8.2-4.9,11.9-6.5
		c3.7-1.6,6.9-3.1,9.5-4.3c3.2-1.2,6.2-2.1,8.8-2.7c1.9-6.9,4.7-13.7,8.3-20.6c2.9-6,6.8-12.3,11.5-19c4.7-6.7,10.6-12.8,17.8-18.2
		c8.5-6.3,18.3-11,29.5-14.1c11.2-3.1,22-5.5,32.4-7c12.1-1.5,24.3-2.2,36.6-2.2c7.2,0,14.8,0.2,22.9,0.7c8.1,0.5,16.4,1.4,24.9,2.9
		c8.5,1.5,16.8,3.7,24.9,6.7C338.4,33.4,346.3,37.3,353.7,42.1L353.7,42.1L353.7,42.1L353.7,42.1 M257.6,40.8
		c-10.4,0.6-20.2,1.5-29.3,2.7c-7.8,1.2-15.7,2.8-23.7,4.9c-8,2.1-14.2,4.9-18.8,8.5c-5.2,4.2-9.4,8.5-12.4,13
		c-3.1,4.5-5.6,8.5-7.6,12.1c-2.3,4.5-4.1,8.7-5.4,12.6c9.4-0.9,19.5-1.8,30.3-2.7c9.1-0.6,19.4-1.3,31-2
		c11.6-0.7,23.5-1.1,35.9-1.1c13,0,25.5,0.4,37.3,1.1c11.9,0.8,22.2,1.4,31,2c10.4,0.9,20,1.8,28.8,2.7c-1.3-5.1-3.2-10-5.9-14.8
		c-2.3-4.2-5.1-8.4-8.5-12.8c-3.4-4.3-7.9-8.1-13.4-11.4c-10.1-6-21.3-9.9-33.7-11.6C280.9,42.1,269,41.1,257.6,40.8L257.6,40.8
		L257.6,40.8L257.6,40.8 M436.2,168.5c11.1,0,16.6,5.4,16.6,16.1c0,4.5-1.4,8.2-4.2,11.2c-2.8,3-6.3,4.5-10.5,4.5H424V337
		c0,6.9-1.2,13.6-3.4,20.2c-2.3,6.6-7.6,13.7-16.1,21.5c-4.6,3.9-8.9,6.9-13.2,9c-4.2,2.1-8.1,3.7-11.7,4.9
		c-3.9,1.2-7.8,2.1-11.7,2.7v18.8c0,4.2-1.8,7.5-5.4,9.9c-3.6,2.4-7.7,3.7-12.2,4c-4.6,0-8.6-1.3-12.2-4c-3.6-2.7-5.4-6-5.4-9.9
		v-17.5H184.9v17.5c0,4.2-2,7.3-5.9,9.4c-3.9,2.1-7.8,3.1-11.7,3.1c-4.6,0-8.5-1.2-11.9-3.6c-3.4-2.4-5.1-5.7-5.1-9.9
		c0-1.5-0.1-3.2-0.2-5.2c-0.2-1.9-0.2-4-0.2-6v-7.2c-2.6,0-5.2-0.4-7.8-1.3c-2.3-0.6-4.9-1.5-7.8-2.7c-2.9-1.2-5.9-2.7-8.8-4.5
		c-10.4-6.6-18.1-14.1-23.2-22.6c-5.1-8.5-7.6-18.9-7.6-31.2V324c0-4.8-0.1-10.4-0.2-16.8c-0.1-6.4-0.2-13.5-0.2-21.3v-23.8v-61.9
		H80.9c-5.2,0-9.6-1.4-13.2-4c-3.6-2.7-5.4-6.6-5.4-11.7c0-4.8,1.4-8.7,4.1-11.7c2.8-3,6.9-4.5,12.4-4.5H259L436.2,168.5
		L436.2,168.5L436.2,168.5L436.2,168.5 M280,320.9h-35.1v30.5H280V320.9L280,320.9L280,320.9L280,320.9 M280,320.9L280,320.9z"/>
</g>
</svg>
