<?xml version="1.0" encoding="utf-8"?>
<!-- Generator: Adobe Illustrator 18.0.0, SVG Export Plug-In . SVG Version: 6.00 Build 0)  -->
<!DOCTYPE svg PUBLIC "-//W3C//DTD SVG 1.1//EN" "http://www.w3.org/Graphics/SVG/1.1/DTD/svg11.dtd">
<svg version="1.1" id="图形" xmlns="http://www.w3.org/2000/svg" xmlns:xlink="http://www.w3.org/1999/xlink" x="0px" y="0px"
	 viewBox="0 0 500 500" style="enable-background:new 0 0 500 500;" xml:space="preserve">
<style type="text/css">
	.st0{fill:#272536;}
</style>
<g>
	<path class="st0" d="M35.834,118.163l154.309-0.169c2.631-0.156,4.526-1.287,5.176-3.918l14.2-46.547
		c5.898-12.036,14.851-18.557,28.288-17.057l101.241-0.594l-0.042,19.844l-95.98,0.311c-6.676,0.863-11.159,4.201-13.436,10.028
		l-9.392,31.668c-1.089,4.526,0.056,6.591,3.494,6.209l32.276,0.014l-17.892,301.462H55.988L35.834,118.163L35.834,118.163
		L35.834,118.163z M82.848,459.199l360.781-1.754c26.293-2.815,38.782,2.871,40.324-28.075l-453.239,1.754
		C31.209,459.44,52.849,458.676,82.848,459.199L82.848,459.199L82.848,459.199z M291.851,418.989l142.669-0.919
		c26.308-2.829,31.215-16.831,32.771-47.778l-208.579,0.24C257.581,400.912,262.786,415,291.851,418.989L291.851,418.989
		L291.851,418.989z M281.328,299.006c-16.492,1.174-27.071,9.448-28.16,29.094c1.386,19.052,12.616,26.435,28.288,28.542
		c7.821-0.538,15.572-3.635,21.272-8.953c6.478,5.36,13.451,8.486,22.065,9.066c8.118,0.042,14.71-2.08,19.123-7.355
		c4.017,4.724,10.509,7.157,19.688,7.086c9.236-0.014,16.619-2.97,20.65-7.001c5.092,5.134,11.852,7.397,19.731,7.708
		c7.737-1.089,13.918-3.889,18.868-7.355c6.478,6.011,14.2,7.822,22.687,7.03c18.359-3.974,26.138-14.978,25.119-31.852
		c-2.716-18.203-12.715-25.36-26.958-26.025c-7.992-0.961-15.134,2.277-21.81,7.864c-5.36-5.757-12.135-8.104-20.353-7.044
		c-6.521-1.372-12.786,1.287-18.882,6.732c-4.017-4.483-10.084-6.704-17.807-7.157c-6.308-0.311-13.776,1.626-19.264,6.93
		c-0.679,0.651-1.315,0.481-1.824,0.184c-5.658-6.181-12.928-7.751-21.131-7.708c-7.991-0.085-14.2,3.423-19.165,9.392
		C296.83,301.001,289.447,297.931,281.328,299.006L281.328,299.006L281.328,299.006z M304.382,235.26
		c-31.513,3.366-46.703,20.268-45.572,50.649h208.042c-1.556-30.947-15.474-47.821-41.781-50.649H304.382L304.382,235.26
		L304.382,235.26z M58.082,141.882l2.871,56.985c0.919,2.928,2.73,4.568,5.926,4.3l100.676-1.146
		c2.333-0.028,3.804-1.174,4.54-3.239l15.092-55.755c-0.311-2.065-1.217-3.465-3.197-3.621l-122.952,0.141
		C59.27,139.577,58.28,140.369,58.082,141.882L58.082,141.882L58.082,141.882z M231.966,198.755l2.871-55.599
		c-0.905-2.914-1.725-3.805-4.356-3.677l-14.964-0.297c-2.362,0.057-3.819,1.202-4.554,3.267l-15.53,55.359
		c0.311,2.094,1.203,3.465,3.183,3.635l30.381-0.325C230.778,201.088,231.754,200.282,231.966,198.755L231.966,198.755z"/>
</g>
</svg>
