<?xml version="1.0" encoding="utf-8"?>
<!-- Generator: Adobe Illustrator 18.0.0, SVG Export Plug-In . SVG Version: 6.00 Build 0)  -->
<!DOCTYPE svg PUBLIC "-//W3C//DTD SVG 1.1//EN" "http://www.w3.org/Graphics/SVG/1.1/DTD/svg11.dtd">
<svg version="1.1" id="图形" xmlns="http://www.w3.org/2000/svg" xmlns:xlink="http://www.w3.org/1999/xlink" x="0px" y="0px"
	 viewBox="0 0 500 500" style="enable-background:new 0 0 500 500;" xml:space="preserve">
<style type="text/css">
	.st0{fill:#CCCCCC;}
</style>
<g>
	<path class="st0" d="M345.66,31.348H154.34c-22.549,0-40.997,18.449-40.997,40.997v355.309c0,22.549,18.449,40.997,40.997,40.997
		h191.32c22.549,0,40.997-18.448,40.997-40.997V72.345C386.657,49.797,368.208,31.348,345.66,31.348L345.66,31.348 M195.337,51.847
		h109.326v13.666H195.337L195.337,51.847L195.337,51.847 M250,441.32c-15.087,0-27.331-12.217-27.331-27.331
		c0-15.087,12.245-27.331,27.331-27.331c15.087,0,27.331,12.245,27.331,27.331C277.331,429.103,265.087,441.32,250,441.32
		L250,441.32 M359.326,359.326H140.674V86.011h218.652V359.326L359.326,359.326"/>
</g>
</svg>
