<?xml version="1.0" encoding="utf-8"?>
<!-- Generator: Adobe Illustrator 18.0.0, SVG Export Plug-In . SVG Version: 6.00 Build 0)  -->
<!DOCTYPE svg PUBLIC "-//W3C//DTD SVG 1.1//EN" "http://www.w3.org/Graphics/SVG/1.1/DTD/svg11.dtd">
<svg version="1.1" id="图形" xmlns="http://www.w3.org/2000/svg" xmlns:xlink="http://www.w3.org/1999/xlink" x="0px" y="0px"
	 viewBox="15.167 -16.333 1000.636 1000.678" enable-background="new 15.167 -16.333 1000.636 1000.678" xml:space="preserve">
<g>
	<path fill-rule="evenodd" clip-rule="evenodd" fill="#272536" d="M644.292,150.56H386.677c-32.24,0-58.558,26.378-58.558,58.555
		v585.666c0,32.208,26.318,58.558,58.558,58.558h257.614c32.211,0,58.559-26.35,58.559-58.558V209.114
		C702.851,176.938,676.503,150.56,644.292,150.56L644.292,150.56z M480.344,197.391h70.282c6.471,0,11.755,5.253,11.755,11.724
		c0,6.506-5.285,11.724-11.755,11.724h-70.282c-6.442,0-11.662-5.218-11.662-11.724
		C468.682,202.644,473.901,197.391,480.344,197.391L480.344,197.391z M515.455,829.892c-19.387,0-35.139-15.694-35.139-35.111
		c0-19.418,15.752-35.172,35.139-35.172c19.477,0,35.171,15.753,35.171,35.172C550.625,814.198,534.933,829.892,515.455,829.892
		L515.455,829.892z M679.494,736.223H351.566v-468.55h327.928V736.223L679.494,736.223z"/>
</g>
</svg>
