<?xml version="1.0" encoding="utf-8"?>
<!-- Generator: Adobe Illustrator 18.0.0, SVG Export Plug-In . SVG Version: 6.00 Build 0)  -->
<!DOCTYPE svg PUBLIC "-//W3C//DTD SVG 1.1//EN" "http://www.w3.org/Graphics/SVG/1.1/DTD/svg11.dtd">
<svg version="1.1" id="图形" xmlns="http://www.w3.org/2000/svg" xmlns:xlink="http://www.w3.org/1999/xlink" x="0px" y="0px"
	 viewBox="15.167 -16.333 1000.636 1000.678" enable-background="new 15.167 -16.333 1000.636 1000.678" xml:space="preserve">
<g>
	<path fill-rule="evenodd" clip-rule="evenodd" fill="#999999" d="M699.204,30.669H301.431c-46.88,0-85.237,38.357-85.237,85.237
		v738.721c0,46.88,38.357,85.237,85.237,85.237h397.773c46.88,0,85.237-38.357,85.237-85.237V115.906
		C784.441,69.026,746.085,30.669,699.204,30.669L699.204,30.669 M386.668,73.288h227.299V101.7H386.668V73.288L386.668,73.288
		 M500.318,883.04c-31.367,0-56.825-25.401-56.825-56.825c0-31.367,25.458-56.825,56.825-56.825
		c31.367,0,56.825,25.458,56.825,56.825C557.143,857.639,531.685,883.04,500.318,883.04L500.318,883.04 M727.617,712.566H273.019
		V144.319h454.598V712.566L727.617,712.566 M727.617,712.566L727.617,712.566z"/>
</g>
</svg>
