<?xml version="1.0" encoding="utf-8"?>
<!-- Generator: Adobe Illustrator 18.0.0, SVG Export Plug-In . SVG Version: 6.00 Build 0)  -->
<!DOCTYPE svg PUBLIC "-//W3C//DTD SVG 1.1//EN" "http://www.w3.org/Graphics/SVG/1.1/DTD/svg11.dtd">
<svg version="1.1" id="图形" xmlns="http://www.w3.org/2000/svg" xmlns:xlink="http://www.w3.org/1999/xlink" x="0px" y="0px"
	 viewBox="0 0 500 500" enable-background="new 0 0 500 500" xml:space="preserve">
<g>
	<path fill="#FFFFFF" d="M329.5,67.1H200.8c-16.1,0-29.3,13.2-29.3,29.3v292.6c0,16.1,13.2,29.3,29.3,29.3h128.7
		c16.1,0,29.3-13.2,29.3-29.3V96.3C358.8,80.2,345.6,67.1,329.5,67.1L329.5,67.1z M247.6,90.5h35.1c3.2,0,5.9,2.6,5.9,5.9
		c0,3.3-2.6,5.9-5.9,5.9h-35.1c-3.2,0-5.8-2.6-5.8-5.9C241.8,93.1,244.4,90.5,247.6,90.5L247.6,90.5z M265.2,406.5
		c-9.7,0-17.6-7.8-17.6-17.5c0-9.7,7.9-17.6,17.6-17.6c9.7,0,17.6,7.9,17.6,17.6C282.7,398.7,274.9,406.5,265.2,406.5L265.2,406.5z
		 M347.1,359.7H183.3V125.6h163.9V359.7L347.1,359.7z"/>
</g>
</svg>
