<?xml version="1.0" encoding="utf-8"?>
<!-- Generator: Adobe Illustrator 18.0.0, SVG Export Plug-In . SVG Version: 6.00 Build 0)  -->
<!DOCTYPE svg PUBLIC "-//W3C//DTD SVG 1.1//EN" "http://www.w3.org/Graphics/SVG/1.1/DTD/svg11.dtd">
<svg version="1.1" id="图形" xmlns="http://www.w3.org/2000/svg" xmlns:xlink="http://www.w3.org/1999/xlink" x="0px" y="0px"
	 viewBox="0 0 500 500" enable-background="new 0 0 500 500" xml:space="preserve">
<g>
	<path fill="#999999" d="M318.8,35.4H161.5c-19.7,0-35.8,16.1-35.8,35.8v357.6c0,19.7,16.1,35.8,35.8,35.8h157.3
		c19.7,0,35.8-16.1,35.8-35.8V71.1C354.6,51.4,338.5,35.4,318.8,35.4L318.8,35.4z M218.7,64h42.9c3.9,0,7.2,3.2,7.2,7.2
		s-3.2,7.2-7.2,7.2h-42.9c-3.9,0-7.1-3.2-7.1-7.2S214.8,64,218.7,64L218.7,64z M240.2,450.2c-11.9,0-21.5-9.5-21.5-21.4
		s9.7-21.5,21.5-21.5s21.5,9.7,21.5,21.5C261.6,440.6,252.1,450.2,240.2,450.2L240.2,450.2z M340.3,393H140.1V106.9h200.3V393H340.3
		z"/>
</g>
</svg>
