<?xml version="1.0" encoding="utf-8"?>
<!-- Generator: Adobe Illustrator 18.0.0, SVG Export Plug-In . SVG Version: 6.00 Build 0)  -->
<!DOCTYPE svg PUBLIC "-//W3C//DTD SVG 1.1//EN" "http://www.w3.org/Graphics/SVG/1.1/DTD/svg11.dtd">
<svg version="1.1" id="图形" xmlns="http://www.w3.org/2000/svg" xmlns:xlink="http://www.w3.org/1999/xlink" x="0px" y="0px"
	 viewBox="0 0 500 500" enable-background="new 0 0 500 500" xml:space="preserve">
<g>
	<path fill="#FFFFFF" d="M434.7,438.2H325.3c-9.7,0-17.7-8-17.7-17.7V211.7c0-9.8,7.9-17.7,17.7-17.7h8.6v-92.2
		c0.6-10.1,7.1-29.3,27.6-42.3c6.9-4.4,13.4-9.6,19.1-14.2c11.7-9.3,20.2-16.1,29.6-16.1c7.2,0,19.2,3.6,19.2,27.9v137h5.3
		c9.7,0,17.7,7.9,17.7,17.7v208.8C452.3,430.3,444.4,438.2,434.7,438.2L434.7,438.2z M411.4,255.9c0-7-5.7-12.8-12.8-12.8
		c-7.1,0-12.8,5.7-12.8,12.8v115.6c0,7,5.7,12.8,12.8,12.8c7,0,12.8-5.7,12.8-12.8V255.9L411.4,255.9z M220.2,217.2
		c-0.2,0.3-0.6,0.4-0.8,0.7c5.1,43.5,21.2,183.4,21.2,195c0,17.4-16.4,25.4-31.7,25.4h-57.3c-14.5,0-24.8-3.7-30.7-11.2
		c-4.8-6.1-5.4-13.1-4.4-17.7l21.2-190.5c-0.6-0.5-1.3-0.8-1.8-1.4L46.2,111.9c-3.7-4.3-4.1-10.6-1-15.3c1.8-2.7,45-67.5,129.7-67.5
		c84.4,0,129.4,63.8,131.4,66.5c3.2,4.7,3,10.9-0.6,15.3L220.2,217.2L220.2,217.2z M199.1,265l-3-25.6H161l-2.8,25.6H199.1
		L199.1,265z M163.9,142.3c-1.7-6.9-8.6-11.1-15.4-9.4c-6.9,1.7-11.1,8.6-9.4,15.5l11.3,46.7l26.3,0.2L163.9,142.3L163.9,142.3z
		 M202.5,132.7c-7-1.3-13.6,3.3-14.9,10.3l-9.5,52.3h26l8.7-47.7C214.1,140.6,209.5,134,202.5,132.7L202.5,132.7z"/>
</g>
</svg>
