<?xml version="1.0" encoding="utf-8"?>
<!-- Generator: Adobe Illustrator 18.0.0, SVG Export Plug-In . SVG Version: 6.00 Build 0)  -->
<!DOCTYPE svg PUBLIC "-//W3C//DTD SVG 1.1//EN" "http://www.w3.org/Graphics/SVG/1.1/DTD/svg11.dtd">
<svg version="1.1" id="图形" xmlns="http://www.w3.org/2000/svg" xmlns:xlink="http://www.w3.org/1999/xlink" x="0px" y="0px"
	 viewBox="0 0 500 500" style="enable-background:new 0 0 500 500;" xml:space="preserve">
<style type="text/css">
	.st0{fill:#DBDBDB;}
</style>
<g>
	<path class="st0" d="M423.904,466.839H313.099c-9.861,0-17.89-8.072-17.89-17.955V237.376c0-9.905,8.029-17.933,17.89-17.933h8.661
		v-93.352c0.633-10.254,7.221-29.692,27.969-42.825c6.959-4.45,13.526-9.708,19.395-14.421c11.846-9.469,20.42-16.34,29.954-16.34
		c7.287,0,19.438,3.665,19.438,28.208v138.73h5.389c9.861,0,17.89,8.029,17.89,17.933v211.509
		C441.794,458.811,433.766,466.839,423.904,466.839L423.904,466.839z M400.343,282.208c0-7.134-5.759-12.937-12.937-12.937
		c-7.156,0-12.959,5.76-12.959,12.937v117.132c0,7.134,5.803,12.937,12.959,12.937c7.134,0,12.937-5.782,12.937-12.937V282.208
		L400.343,282.208z M206.723,242.982c-0.196,0.305-0.589,0.414-0.851,0.676c5.127,44.025,21.445,185.722,21.445,197.481
		c0,17.671-16.646,25.7-32.092,25.7h-58.075c-14.683,0-25.132-3.774-31.11-11.301c-4.887-6.13-5.519-13.286-4.407-17.933
		l21.445-192.987c-0.589-0.48-1.287-0.764-1.811-1.375L30.469,136.388c-3.709-4.385-4.123-10.69-0.982-15.489
		c1.833-2.771,45.596-68.394,131.334-68.394c85.52,0,131.094,64.664,133.036,67.391c3.229,4.712,2.988,11.017-0.612,15.489
		L206.723,242.982L206.723,242.982z M185.278,291.371l-2.989-25.896h-35.56l-2.858,25.896H185.278L185.278,291.371z M149.63,167.105
		c-1.68-6.959-8.705-11.192-15.62-9.534c-6.959,1.701-11.213,8.683-9.556,15.664l11.476,47.341l26.681,0.24L149.63,167.105
		L149.63,167.105z M188.79,157.418c-7.047-1.331-13.766,3.382-15.097,10.406l-9.664,52.992h26.333l8.857-48.323
		C200.484,165.447,195.837,158.706,188.79,157.418L188.79,157.418z"/>
</g>
</svg>
