<?xml version="1.0" encoding="utf-8"?>
<!-- Generator: Adobe Illustrator 18.0.0, SVG Export Plug-In . SVG Version: 6.00 Build 0)  -->
<!DOCTYPE svg PUBLIC "-//W3C//DTD SVG 1.1//EN" "http://www.w3.org/Graphics/SVG/1.1/DTD/svg11.dtd">
<svg version="1.1" id="图形" xmlns="http://www.w3.org/2000/svg" xmlns:xlink="http://www.w3.org/1999/xlink" x="0px" y="0px"
	 viewBox="0 0 500 500" enable-background="new 0 0 500 500" xml:space="preserve">
<g>
	<path fill="#FFFFFF" d="M276.4,267.4L276.4,267.4c7.9-7.9,16.4-20.1,16.5-33.7c0.1-13-7.4-23.2-16.5-33.8l0,0L168,89.1
		c-13-13.2-13-34.5,0-47.7c6.5-6.6,15-9.9,23.4-9.9c8.5,0,17,3.3,23.4,9.9l165,168.4c13,13.2,13,34.5,0,47.7L214.9,426
		c-13,13.2-33.9,13.2-46.9,0c-13-13.2-13-34.5,0-47.7L276.4,267.4L276.4,267.4z"/>
</g>
</svg>
