<?xml version="1.0" encoding="utf-8"?>
<!-- Generator: Adobe Illustrator 18.0.0, SVG Export Plug-In . SVG Version: 6.00 Build 0)  -->
<!DOCTYPE svg PUBLIC "-//W3C//DTD SVG 1.1//EN" "http://www.w3.org/Graphics/SVG/1.1/DTD/svg11.dtd">
<svg version="1.1" id="图形" xmlns="http://www.w3.org/2000/svg" xmlns:xlink="http://www.w3.org/1999/xlink" x="0px" y="0px"
	 viewBox="15.167 -16.333 1000.636 1000.678" enable-background="new 15.167 -16.333 1000.636 1000.678" xml:space="preserve">
<g>
	<path fill-rule="evenodd" clip-rule="evenodd" fill="#272536" d="M451.973,587.909L451.973,587.909
		c15.83,15.901,40.201,32.855,67.35,32.962c26.111,0.103,46.46-14.814,67.685-32.962l0,0l221.865-216.93
		c26.374-25.931,69.105-25.931,95.472,0c13.19,12.966,19.785,29.937,19.785,46.928c0,16.983-6.595,33.954-19.785,46.919
		L567.23,795.048c-26.38,25.938-69.099,25.938-95.479,0L134.629,464.826c-26.38-25.924-26.38-67.922,0-93.847
		c26.367-25.931,69.099-25.931,95.472,0L451.973,587.909L451.973,587.909z"/>
</g>
</svg>
