<?xml version="1.0" encoding="utf-8"?>
<!-- Generator: Adobe Illustrator 18.0.0, SVG Export Plug-In . SVG Version: 6.00 Build 0)  -->
<!DOCTYPE svg PUBLIC "-//W3C//DTD SVG 1.1//EN" "http://www.w3.org/Graphics/SVG/1.1/DTD/svg11.dtd">
<svg version="1.1" id="图形" xmlns="http://www.w3.org/2000/svg" xmlns:xlink="http://www.w3.org/1999/xlink" x="0px" y="0px"
	 viewBox="15.167 -16.333 1000.636 1000.678" enable-background="new 15.167 -16.333 1000.636 1000.678" xml:space="preserve">
<g>
	<path fill-rule="evenodd" clip-rule="evenodd" fill="#272536" d="M537.878,551.52L537.878,551.52
		c15.901-15.83,32.855-40.201,32.962-67.35c0.103-26.111-14.814-46.46-32.962-67.685l0,0L320.948,194.62
		c-25.931-26.374-25.931-69.105,0-95.472c12.966-13.19,29.937-19.785,46.928-19.785c16.983,0,33.954,6.595,46.919,19.785
		l330.222,337.115c25.938,26.38,25.938,69.099,0,95.479L414.795,868.864c-25.924,26.38-67.922,26.38-93.847,0
		c-25.931-26.367-25.931-69.099,0-95.472L537.878,551.52L537.878,551.52z"/>
</g>
</svg>
