<?xml version="1.0" encoding="utf-8"?>
<!-- Generator: Adobe Illustrator 18.0.0, SVG Export Plug-In . SVG Version: 6.00 Build 0)  -->
<!DOCTYPE svg PUBLIC "-//W3C//DTD SVG 1.1//EN" "http://www.w3.org/Graphics/SVG/1.1/DTD/svg11.dtd">
<svg version="1.1" id="图形" xmlns="http://www.w3.org/2000/svg" xmlns:xlink="http://www.w3.org/1999/xlink" x="0px" y="0px"
	 viewBox="0 0 500 500" enable-background="new 0 0 500 500" xml:space="preserve">
<g>
	<path fill="#FFFFFF" d="M233.4,285.6L233.4,285.6c7.9,7.9,20.1,16.4,33.7,16.5c13,0.1,23.2-7.4,33.8-16.5l0,0l110.9-108.4
		c13.2-13,34.5-13,47.7,0c6.6,6.5,9.9,15,9.9,23.4c0,8.5-3.3,17-9.9,23.4L291,389.1c-13.2,13-34.5,13-47.7,0l-168.4-165
		c-13.2-13-13.2-33.9,0-46.9c13.2-13,34.5-13,47.7,0L233.4,285.6L233.4,285.6z"/>
</g>
</svg>
