<?xml version="1.0" encoding="utf-8"?>
<!-- Generator: Adobe Illustrator 18.0.0, SVG Export Plug-In . SVG Version: 6.00 Build 0)  -->
<!DOCTYPE svg PUBLIC "-//W3C//DTD SVG 1.1//EN" "http://www.w3.org/Graphics/SVG/1.1/DTD/svg11.dtd">
<svg version="1.1" id="图形" xmlns="http://www.w3.org/2000/svg" xmlns:xlink="http://www.w3.org/1999/xlink" x="0px" y="0px"
	 viewBox="0 0 500 500" style="enable-background:new 0 0 500 500;" xml:space="preserve">
<style type="text/css">
	.st0{fill:#272536;}
</style>
<g>
	<path class="st0" d="M482.884,115.898c0-9.823-7.927-17.798-17.764-17.798H136.605l-9.298-43.79
		c-0.369-1.726-0.976-3.336-1.774-4.823c-2.292-7.183-9.012-12.402-16.932-12.402H64.054c-9.81,0-17.771,7.907-17.771,17.812
		c0,9.83,7.975,17.798,17.771,17.798h30.767l56.874,267.677c1.671,7.879,8.282,13.433,15.936,14.053
		c1.603,0.478,3.295,0.737,5.055,0.737h231.508c9.789,0,17.723-7.9,17.723-17.805c0-9.823-7.995-17.798-17.723-17.798H183.662
		l-9.687-45.605h240.138c4.216,0,8.098-1.473,11.14-3.936c2.94-2.013,5.287-4.919,6.59-8.493l48.749-134.009
		c0.601-1.658,0.942-3.343,1.037-5.014C482.441,120.469,482.884,118.239,482.884,115.898L482.884,115.898L482.884,115.898
		L482.884,115.898z M402.393,238.351h-235.99L144.178,133.71h296.289L402.393,238.351L402.393,238.351L402.393,238.351z
		 M166.198,410.788c0-19.674,15.929-35.617,35.59-35.617s35.596,15.943,35.596,35.617c0,19.668-15.936,35.61-35.596,35.61
		S166.198,430.456,166.198,410.788L166.198,410.788L166.198,410.788z M335.258,410.788c0-19.674,15.936-35.617,35.596-35.617
		c19.661,0,35.59,15.943,35.59,35.617c0,19.668-15.929,35.61-35.59,35.61C351.195,446.399,335.258,430.456,335.258,410.788
		L335.258,410.788z"/>
</g>
</svg>
