<?xml version="1.0" encoding="utf-8"?>
<!-- Generator: Adobe Illustrator 18.0.0, SVG Export Plug-In . SVG Version: 6.00 Build 0)  -->
<!DOCTYPE svg PUBLIC "-//W3C//DTD SVG 1.1//EN" "http://www.w3.org/Graphics/SVG/1.1/DTD/svg11.dtd">
<svg version="1.1" id="图形" xmlns="http://www.w3.org/2000/svg" xmlns:xlink="http://www.w3.org/1999/xlink" x="0px" y="0px"
	 viewBox="15.167 -16.333 1000.636 1000.678" enable-background="new 15.167 -16.333 1000.636 1000.678" xml:space="preserve">
<g>
	<path fill-rule="evenodd" clip-rule="evenodd" fill="#272536" d="M895.344,290.911c-5.542-7.228-14.142-11.457-23.228-11.457
		h-613.6l-25.771-123.029c-2.828-13.542-14.771-23.257-28.628-23.257h-75.601c-16.17,0-29.257,13.085-29.257,29.257
		c0,16.172,13.085,29.257,29.257,29.257h51.829l111.543,532.63c2.829,13.543,14.772,23.256,28.628,23.256h440.686
		c16.172,0,29.257-13.085,29.257-29.257s-13.085-29.257-29.257-29.257H344.287l-18.372-87.772H801.43
		c13.229,0,24.83-8.885,28.257-21.685l70.685-263.314C902.745,307.511,900.858,298.111,895.344,290.911L895.344,290.911z
		 M779.001,542.768H313.659l-42.885-204.8h563.2L779.001,542.768L779.001,542.768z"/>
	<path fill-rule="evenodd" clip-rule="evenodd" fill="#272536" d="M377.201,776.825c-40.343,0-73.143,32.8-73.143,73.143
		c0,40.343,32.8,73.143,73.143,73.143c40.343,0,73.143-32.8,73.143-73.143C450.344,809.625,417.544,776.825,377.201,776.825
		L377.201,776.825z M377.201,879.225c-16.143,0-29.257-13.115-29.257-29.257c0-16.143,13.114-29.257,29.257-29.257
		s29.257,13.114,29.257,29.257C406.458,866.111,393.343,879.225,377.201,879.225L377.201,879.225z"/>
	<path fill-rule="evenodd" clip-rule="evenodd" fill="#272536" d="M699.029,776.825c-40.342,0-73.142,32.8-73.142,73.143
		c0,40.343,32.8,73.143,73.142,73.143c40.343,0,73.143-32.8,73.143-73.143C772.173,809.625,739.372,776.825,699.029,776.825
		L699.029,776.825z M699.029,879.225c-16.142,0-29.257-13.115-29.257-29.257c0-16.143,13.115-29.257,29.257-29.257
		c16.143,0,29.258,13.114,29.258,29.257C728.288,866.111,715.173,879.225,699.029,879.225L699.029,879.225z"/>
</g>
</svg>
