<?xml version="1.0" encoding="utf-8"?>
<!-- Generator: Adobe Illustrator 18.0.0, SVG Export Plug-In . SVG Version: 6.00 Build 0)  -->
<!DOCTYPE svg PUBLIC "-//W3C//DTD SVG 1.1//EN" "http://www.w3.org/Graphics/SVG/1.1/DTD/svg11.dtd">
<svg version="1.1" id="图层_1" xmlns="http://www.w3.org/2000/svg" xmlns:xlink="http://www.w3.org/1999/xlink" x="0px" y="0px"
	 viewBox="0 0 200 200" enable-background="new 0 0 200 200" xml:space="preserve">
<g>
	<g transform="scale(0.1953125, 0.1953125)">
		<path fill="#FFFFFF" d="M811.2,417.2c0-14.2-11.4-25.7-25.6-25.7H312l-13.4-63.1c-0.5-2.5-1.4-4.8-2.6-7
			c-3.3-10.4-13-17.9-24.4-17.9h-64.2c-14.1,0-25.6,11.4-25.6,25.7c0,14.2,11.5,25.7,25.6,25.7h44.4l82,385.9
			c2.4,11.4,11.9,19.4,23,20.3c2.3,0.7,4.8,1.1,7.3,1.1h333.7c14.1,0,25.5-11.4,25.5-25.7c0-14.2-11.5-25.7-25.5-25.7H379.8
			l-14-65.7H712c6.1,0,11.7-2.1,16.1-5.7c4.2-2.9,7.6-7.1,9.5-12.2L807.9,434c0.9-2.4,1.4-4.8,1.5-7.2
			C810.5,423.8,811.2,420.6,811.2,417.2L811.2,417.2L811.2,417.2L811.2,417.2z M695.1,593.7H354.9l-32-150.8H750L695.1,593.7
			L695.1,593.7L695.1,593.7z M354.7,842.3c0-28.4,23-51.3,51.3-51.3s51.3,23,51.3,51.3c0,28.4-23,51.3-51.3,51.3
			S354.7,870.7,354.7,842.3L354.7,842.3L354.7,842.3z M598.4,842.3c0-28.4,23-51.3,51.3-51.3c28.3,0,51.3,23,51.3,51.3
			c0,28.4-23,51.3-51.3,51.3C621.3,893.7,598.4,870.7,598.4,842.3L598.4,842.3z"/>
	</g>
</g>
</svg>
