<?xml version="1.0" standalone="no"?><!DOCTYPE svg PUBLIC "-//W3C//DTD SVG 1.1//EN" "http://www.w3.org/Graphics/SVG/1.1/DTD/svg11.dtd"><svg xmlns:xlink="http://www.w3.org/1999/xlink" xmlns="http://www.w3.org/2000/svg" version="1.1" width="200" height="200" viewBox="0 0 200 200"><defs><style type="text/css"><![CDATA[
@font-face {
  font-family: "ifont";
  src: url("//at.alicdn.com/t/font_1442373896_4754455.eot?#iefix") format("embedded-opentype"), url("//at.alicdn.com/t/font_1442373896_4754455.woff") format("woff"), url("//at.alicdn.com/t/font_1442373896_4754455.ttf") format("truetype"), url("//at.alicdn.com/t/font_1442373896_4754455.svg#ifont") format("svg");
}

]]></style></defs><g class="transform-group"><g transform="scale(0.1953125, 0.1953125)"><path d="M811.165614 417.23059c0-14.160511-11.42726-25.656333-25.607214-25.656333L311.994804 391.574257l-13.403265-63.123666c-0.532119-2.487657-1.407046-4.808516-2.557242-6.953366-3.304256-10.354835-12.990872-17.878183-24.407899-17.878183l-64.215534 0c-14.141068 0-25.617447 11.397584-25.617447 25.676799 0 14.170744 11.495822 25.656333 25.617447 25.656333l44.351114 0 81.986269 385.863185c2.408863 11.357675 11.93789 19.364023 22.971178 20.258393 2.310625 0.688685 4.750187 1.062192 7.286963 1.062192l333.724711 0c14.111392 0 25.547863-11.388375 25.547863-25.666566 0-14.160511-11.525498-25.656333-25.547863-25.656333L379.828748 710.813045l-13.964036-65.74026 346.164021 0c6.077416 0 11.672854-2.124384 16.059767-5.674233 4.237511-2.901073 7.621585-7.090489 9.499351-12.242835l70.273507-193.177698c0.865717-2.390443 1.357927-4.818749 1.49505-7.227612C810.526047 423.818635 811.165614 420.603407 811.165614 417.23059L811.165614 417.23059 811.165614 417.23059 811.165614 417.23059zM695.13497 593.748862 354.949105 593.748862l-32.038694-150.842497 427.107541 0L695.13497 593.748862 695.13497 593.748862 695.13497 593.748862zM354.654392 842.322218c0-28.360931 22.961968-51.343365 51.303456-51.343365s51.313689 22.982434 51.313689 51.343365c0 28.351722-22.971178 51.333132-51.313689 51.333132S354.654392 870.672916 354.654392 842.322218L354.654392 842.322218 354.654392 842.322218zM598.358857 842.322218c0-28.360931 22.972201-51.343365 51.312666-51.343365 28.341488 0 51.303456 22.982434 51.303456 51.343365 0 28.351722-22.961968 51.333132-51.303456 51.333132C621.331058 893.65535 598.358857 870.672916 598.358857 842.322218L598.358857 842.322218z" fill="#272636"></path></g></g></svg>