<?xml version="1.0" encoding="utf-8"?>
<!-- Generator: Adobe Illustrator 18.0.0, SVG Export Plug-In . SVG Version: 6.00 Build 0)  -->
<!DOCTYPE svg PUBLIC "-//W3C//DTD SVG 1.1//EN" "http://www.w3.org/Graphics/SVG/1.1/DTD/svg11.dtd">
<svg version="1.1" id="图形" xmlns="http://www.w3.org/2000/svg" xmlns:xlink="http://www.w3.org/1999/xlink" x="0px" y="0px"
	 viewBox="15.167 -16.333 1000.636 1000.678" style="enable-background:new 15.167 -16.333 1000.636 1000.678;"
	 xml:space="preserve">
<style type="text/css">
	.st0{fill:#FBB03B;}
	.st1{fill:#FFFFFF;}
</style>
<g>
	<polygon class="st0" points="152.646,697.92 517.567,160.947 882.488,697.92 	"/>
	<path class="st0" d="M882.507,714.958c-0.007,0-0.013,0-0.02,0H152.646c-6.311,0-12.105-3.488-15.059-9.065
		c-2.953-5.578-2.582-12.331,0.966-17.551l364.92-536.973c3.172-4.668,8.449-7.462,14.093-7.462s10.921,2.794,14.093,7.462
		l364.493,536.343c2.132,2.845,3.395,6.378,3.395,10.207C899.547,707.329,891.918,714.958,882.507,714.958z M184.828,680.88h665.479
		L517.567,191.262L184.828,680.88z"/>
</g>
<polygon class="st1" points="546.358,611.181 488.775,611.181 463.316,301.499 571.818,301.499 "/>
<rect x="488.775" y="621.51" class="st1" width="57.658" height="57.658"/>
</svg>
