<?xml version="1.0" encoding="utf-8"?>
<!-- Generator: Adobe Illustrator 18.0.0, SVG Export Plug-In . SVG Version: 6.00 Build 0)  -->
<!DOCTYPE svg PUBLIC "-//W3C//DTD SVG 1.1//EN" "http://www.w3.org/Graphics/SVG/1.1/DTD/svg11.dtd">
<svg version="1.1" id="图形" xmlns="http://www.w3.org/2000/svg" xmlns:xlink="http://www.w3.org/1999/xlink" x="0px" y="0px"
	 viewBox="0 0 1000 1000" style="enable-background:new 0 0 1000 1000;" xml:space="preserve">
<style type="text/css">
	.st0{fill:#C9C9C9;}
</style>
<g>
	<path class="st0" d="M515.167,952.758c-6.454,0-12.91-2.22-18.143-6.659L206.573,699.741c-11.813-10.02-13.267-27.719-3.247-39.532
		c10.019-11.813,27.719-13.267,39.532-3.247l272.309,230.972l272.309-230.972c11.811-10.019,29.511-8.567,39.531,3.247
		c10.02,11.813,8.566,29.512-3.247,39.532L533.309,946.1C528.077,950.539,521.621,952.758,515.167,952.758z"/>
</g>
<g>
	<path class="st0" d="M515.167,659.542c-6.454,0-12.91-2.22-18.143-6.658L206.573,406.525c-11.813-10.02-13.267-27.719-3.247-39.532
		c10.019-11.813,27.719-13.267,39.532-3.247l272.309,230.972l272.309-230.972c11.811-10.019,29.511-8.567,39.531,3.247
		c10.02,11.813,8.566,29.512-3.247,39.532l-290.451,246.36C528.077,657.323,521.621,659.542,515.167,659.542z"/>
</g>
<g>
	<path class="st0" d="M515.167,366.326c-6.454,0-12.91-2.22-18.143-6.658L206.573,113.309c-11.813-10.02-13.267-27.719-3.247-39.532
		c10.019-11.813,27.719-13.267,39.532-3.247l272.309,230.972L787.476,70.53c11.811-10.019,29.511-8.567,39.531,3.247
		c10.02,11.813,8.566,29.512-3.247,39.532l-290.451,246.36C528.077,364.107,521.621,366.326,515.167,366.326z"/>
</g>
</svg>
