<?xml version="1.0" encoding="utf-8"?>
<!-- Generator: Adobe Illustrator 19.0.0, SVG Export Plug-In . SVG Version: 6.00 Build 0)  -->
<svg version="1.1" id="图层_1" xmlns="http://www.w3.org/2000/svg" xmlns:xlink="http://www.w3.org/1999/xlink" x="0px" y="0px"
	 viewBox="0 0 1024 1024" style="enable-background:new 0 0 1024 1024;" xml:space="preserve">
<style type="text/css">
	.st0{fill-rule:evenodd;clip-rule:evenodd;fill:#767777;}
</style>
<path class="st0" d="M881.7,232.3H739.4v-112c0-30.9-25.4-56-56.9-56H341.1c-31.4,0-56.9,25.1-56.9,56v112H142
	c-15.7,0-28.4,12.5-28.4,28c0,15.5,12.7,28,28.4,28h28.4v560c0,61.8,50.9,111.9,113.8,111.9h455.1c62.8,0,113.8-50.1,113.8-111.9
	v-560h28.4c15.7,0,28.4-12.6,28.4-28C910,244.8,897.3,232.3,881.7,232.3L881.7,232.3z M341.1,120.2h341.3v112l-341.3,0V120.2
	L341.1,120.2z M796.3,848.3c0,30.9-25.5,55.9-56.9,55.9H284.2c-31.4,0-56.9-25-56.9-55.9v-560h568.9V848.3L796.3,848.3z
	 M597.2,736.3c15.7,0,28.4-12.5,28.4-28v-280c0-15.5-12.7-28-28.4-28c-15.7,0-28.4,12.5-28.4,28v280
	C568.7,723.8,581.5,736.3,597.2,736.3L597.2,736.3z M426.5,736.3c15.7,0,28.4-12.5,28.4-28v-280c0-15.5-12.7-28-28.4-28
	c-15.7,0-28.4,12.5-28.4,28v280C398,723.8,410.8,736.3,426.5,736.3L426.5,736.3z"/>
</svg>
