<?xml version="1.0" encoding="utf-8"?>
<!-- Generator: Adobe Illustrator 19.0.0, SVG Export Plug-In . SVG Version: 6.00 Build 0)  -->
<svg version="1.1" id="图层_1" xmlns="http://www.w3.org/2000/svg" xmlns:xlink="http://www.w3.org/1999/xlink" x="0px" y="0px"
	 viewBox="0 0 1024 1024" style="enable-background:new 0 0 1024 1024;" xml:space="preserve">
<style type="text/css">
	.st0{fill:#070001;}
</style>
<g>
	<g id="XMLID_32_">
		<path id="XMLID_33_" class="st0" d="M484.7,105.5L275.7,258.7v0.4h-81.6C120.9,259.1,61,318.8,61,391.8v235.7
			c0,73,59.9,132.7,133.1,132.7h81.6l208.8,158.4c22.8,17.3,55.5,1.1,55.5-27.4V133.1C540,104.7,507.5,88.5,484.7,105.5z
			 M615.8,261.3c-18.1,13.2-22,38.6-8.7,56.6c43,58.3,65.7,127.6,65.7,200.2c0,67.9-20.1,133.4-58,189.4
			c-12.6,18.5-7.7,43.7,10.9,56.2c7,4.7,14.9,6.9,22.7,6.9c13,0,25.9-6.2,33.7-17.8c47.1-69.5,72-150.6,72-234.7
			c0-90-28.2-175.8-81.4-248.1C659.4,252,633.9,248.1,615.8,261.3z M832.5,144.4c-13.8-17.7-39.3-20.9-57-7.1
			c-17.7,13.7-20.9,39.2-7.1,56.8C841.4,287.9,880,400.3,880,519.3c0,112.9-35.1,220.7-101.5,311.7c-13.2,18.1-9.2,43.4,9,56.6
			c7.2,5.2,15.6,7.8,23.9,7.8c12.6,0,24.9-5.8,32.9-16.7c76.6-104.9,117.1-229.2,117.1-359.4C961.3,382.2,916.8,252.5,832.5,144.4z"
			/>
	</g>
</g>
</svg>
