<?xml version="1.0" encoding="utf-8"?>
<!-- Generator: Adobe Illustrator 18.0.0, SVG Export Plug-In . SVG Version: 6.00 Build 0)  -->
<!DOCTYPE svg PUBLIC "-//W3C//DTD SVG 1.1//EN" "http://www.w3.org/Graphics/SVG/1.1/DTD/svg11.dtd">
<svg version="1.1" id="图形" xmlns="http://www.w3.org/2000/svg" xmlns:xlink="http://www.w3.org/1999/xlink" x="0px" y="0px"
	 viewBox="15.167 -16.333 1000.636 1000.678" style="enable-background:new 15.167 -16.333 1000.636 1000.678;"
	 xml:space="preserve">
<style type="text/css">
	.st0{fill:#898989;}
</style>
<g>
	<path class="st0" d="M470.025,826.888c-57.607,0-115.391-13.226-167.102-38.248c-54.249-26.25-100.411-64.021-137.205-112.266
		c-31.296-41.036-53.624-86.989-66.362-136.583c-12.3-47.888-15.177-97.119-8.551-146.325c6.625-49.207,22.422-95.923,46.95-138.852
		c25.402-44.459,59.089-82.87,100.125-114.167c33.869-25.83,71.366-45.671,111.452-58.972
		c38.754-12.859,79.185-19.379,120.169-19.379c57.608,0,115.39,13.226,167.102,38.248c54.248,26.25,100.411,64.021,137.205,112.266
		c31.296,41.036,53.624,86.99,66.361,136.584c12.3,47.888,15.177,97.119,8.551,146.325c-6.625,49.206-22.421,95.922-46.949,138.851
		c-25.402,44.459-59.089,82.87-100.125,114.167c-33.868,25.83-71.366,45.671-111.451,58.973
		C551.44,820.368,511.009,826.888,470.025,826.888z M469.501,116.851c-72.217,0-140.828,23.215-198.416,67.135
		c-69.583,53.068-114.336,130.058-126.014,216.787s11.117,172.813,64.186,242.396c62.506,81.958,157.553,128.963,260.769,128.963
		c72.217,0,140.828-23.215,198.416-67.135c143.643-109.551,171.379-315.54,61.828-459.183
		C667.763,163.856,572.716,116.851,469.501,116.851z"/>
</g>
<g>
	<path class="st0" d="M776.507,874.049c-8.249,0-16.401-3.712-21.79-10.777l-91.443-119.902
		c-9.169-12.023-6.855-29.203,5.167-38.372c12.023-9.17,29.202-6.856,38.372,5.167l91.443,119.902
		c9.169,12.023,6.855,29.203-5.167,38.372C788.131,872.22,782.295,874.049,776.507,874.049z"/>
</g>
</svg>
