<?xml version="1.0" encoding="utf-8"?>
<!-- Generator: Adobe Illustrator 19.0.0, SVG Export Plug-In . SVG Version: 6.00 Build 0)  -->
<svg version="1.1" id="图层_1" xmlns="http://www.w3.org/2000/svg" xmlns:xlink="http://www.w3.org/1999/xlink" x="0px" y="0px"
	 viewBox="0 0 500 500" style="enable-background:new 0 0 500 500;" xml:space="preserve">
<style type="text/css">
	.st0{fill:#C2C2C2;}
</style>
<g>
	<g>
		<path class="st0" d="M245.8,323.6c1.7,2.9,4.9,4.5,8.1,4.5c1.5,0,3.1-0.4,4.6-1.1c4.5-2.4,6-7.8,3.5-12L121.5,62.4
			c0.1-0.5-10.4-18.1-36.2-18.1H9.3c-5.1,0-9.3,3.9-9.3,8.8c0,4.9,4.2,8.8,9.3,8.8h81.1L245.8,323.6z M103.4,152.7H31.1v18.1h72.3
			V152.7z M266.3,249.1l43.1,65c9.2,13.9,28.5,18.1,43.2,9.3l68.4-40.9c14.6-8.8,19-27.1,9.8-41l-43.1-65
			c-9.2-13.9-28.6-18.1-43.2-9.3l-68.4,40.9C261.5,216.9,257.1,235.2,266.3,249.1z M309.6,225.3l36.8-22.1c7.9-4.7,18.3-2.5,23.3,5
			l23.2,35c5,7.5,2.6,17.4-5.3,22.1l-36.8,22c-7.9,4.7-18.3,2.5-23.3-5l-23.2-35C299.3,239.9,301.7,230,309.6,225.3z M231.9,190.3
			c6.5,9.9,20.3,12.8,30.6,6.6l48.6-29.1c10.4-6.2,13.5-19.3,7-29.1l-30.6-46.1c-6.5-9.9-20.3-12.8-30.6-6.6l-48.6,29.1
			c-10.4,6.2-13.5,19.2-7,29.1L231.9,190.3z M235.6,130.4l23.8-14.3c5.1-3.1,11.8-1.6,15,3.2l15,22.6c3.2,4.8,1.7,11.2-3.4,14.3
			l-23.8,14.3c-5.1,3.1-11.8,1.6-15-3.2l-15-22.7C228.9,139.9,230.4,133.5,235.6,130.4z M157.7,225H49.2l-2.7,19.2l2.7-1.1h108.5
			V225z M301.8,328.1c-36.7,0-66.6,28.3-66.6,63.2c0,34.9,29.8,63.2,66.6,63.2c36.8,0,66.6-28.3,66.6-63.2
			C368.4,356.4,338.6,328.1,301.8,328.1z M301.8,425.1c-19.6,0-35.6-15.2-35.6-33.8c0-18.7,16-33.8,35.6-33.8
			c19.6,0,35.6,15.2,35.6,33.8C337.5,409.9,321.5,425.1,301.8,425.1z M67.3,333.5h126.6v-18.1H67.3V333.5z M498.7,282.3
			c-2.7-4.2-8.4-5.5-12.8-2.9l-106.8,61.7c-4.4,2.5-5.8,8-3.1,12.1c1.8,2.7,4.8,4.2,7.9,4.2c1.6,0,3.3-0.4,4.8-1.3l106.8-61.7
			C499.9,291.9,501.3,286.5,498.7,282.3z"/>
	</g>
</g>
</svg>
