<?xml version="1.0" encoding="iso-8859-1"?>
<!-- Generator: Adobe Illustrator 19.0.0, SVG Export Plug-In . SVG Version: 6.00 Build 0)  -->
<svg version="1.1" id="&#x56FE;&#x5C42;_1" xmlns="http://www.w3.org/2000/svg" xmlns:xlink="http://www.w3.org/1999/xlink" x="0px"
	 y="0px" viewBox="0 0 500 500" style="enable-background:new 0 0 500 500;" xml:space="preserve">
<path style="fill-rule:evenodd;clip-rule:evenodd;fill:#767777;" d="M453.675,96.876h-77.919V35.529
	c0-16.945-13.927-30.671-31.164-30.671H157.664c-17.215,0-31.162,13.747-31.162,30.671v61.347H48.619
	c-8.617,0-15.579,6.856-15.579,15.32s6.962,15.337,15.579,15.337h15.579v306.708c0,33.858,27.888,61.304,62.304,61.304h249.254
	c34.4,0,62.323-27.446,62.323-61.304V127.533h15.56c8.603,0,15.569-6.875,15.569-15.337
	C469.208,103.732,462.238,96.876,453.675,96.876L453.675,96.876z M157.664,35.529h186.934v61.347L157.664,96.86V35.529
	L157.664,35.529z M406.915,434.242c0,16.926-13.96,30.635-31.159,30.635H126.502c-17.199,0-31.162-13.709-31.162-30.635V127.533
	h311.574V434.242L406.915,434.242z M297.873,372.895c8.598,0,15.56-6.853,15.56-15.356V204.215c0-8.464-6.962-15.337-15.56-15.337
	c-8.601,0-15.566,6.872-15.566,15.337v153.324C282.307,366.041,289.272,372.895,297.873,372.895L297.873,372.895z M204.391,372.895
	c8.614,0,15.579-6.853,15.579-15.356V204.215c0-8.464-6.965-15.337-15.579-15.337c-8.606,0-15.568,6.872-15.568,15.337v153.324
	C188.823,366.041,195.785,372.895,204.391,372.895L204.391,372.895z"/>
</svg>
