<?xml version="1.0" encoding="utf-8"?>
<!-- Generator: Adobe Illustrator 19.0.0, SVG Export Plug-In . SVG Version: 6.00 Build 0)  -->
<svg version="1.1" id="图层_1" xmlns="http://www.w3.org/2000/svg" xmlns:xlink="http://www.w3.org/1999/xlink" x="0px" y="0px"
	 viewBox="0 0 500 500" style="enable-background:new 0 0 500 500;" xml:space="preserve">
<style type="text/css">
	.st0{fill:#C2C2C2;}
</style>
<g>
	<g>
		<path class="st0" d="M286.7,213.5l-5-1.3l-13.2-0.1c52.1-8.5,91.7-51.5,91.7-103.3C360.2,50.9,310.6,4,249.5,4
			c-52.8,0-96.9,35-107.9,81.9H97.4c-3.3,0-5.9,2.5-5.9,5.6v18.7c0,3.1,2.7,5.6,5.9,5.6h41.8c3.4,48.2,41.1,87.5,90.2,96.1
			l-12.5-0.1l-6.4,1.7c-61.2,15.9-119.1,92.9-119.1,158.6c0,27.3,17.2,44.3,36.6,49.5v-34.1c-3.3-3.7-5-8.9-5-15.4
			c0-12.3,2.8-26.1,8.1-40c5.3-13.9,13.1-27.9,22.6-40.5c9.4-12.5,20.4-23.7,31.9-32.2c5.4-4,10.9-7.5,16.3-10.3
			c3.4,2.3,7.2,4.9,11.6,7.9c4.9,3.3,12.3,8.3,14.4,10c6.1,5.3,13.8,8,21.5,8c7.9,0,15.9-2.8,22-8.5c1.9-1.6,8.8-6.4,13.3-9.6
			c3.9-2.8,7.5-5.2,10.6-7.4c5.1,2.7,10.2,6.1,15.4,10.1c11.7,8.9,23.1,20.5,33,33.5c10,13.1,18.2,27.3,23.8,41.2
			c5.5,13.6,8.5,26.7,8.5,37.8c0,6.8-2.1,11.7-5,15v34.4c19.4-5.7,36.6-22.6,36.6-49.4C407.6,310.2,345.7,228.8,286.7,213.5z
			 M189,157c-5.9-6.6-10.4-14-13.6-22.1c-2.4-6.1-3.9-12.5-4.6-19.1h157.3c-0.6,6.6-2.2,13.1-4.6,19.3c-3.2,8.1-7.8,15.6-13.8,22.2
			c-12,13.4-28.6,22.4-46.7,25.3c-4.4,0.7-8.5,2.3-12.1,4.5c-0.4,0-0.8,0-1.1,0c-0.9,0-1.9,0-2.8-0.1c-3.5-2.3-7.6-3.9-12-4.6
			C217.2,179.3,200.8,170.3,189,157z M249.4,244.9c-6.5-5.7-30.9-20.6-38.6-27.5l11.5-3.9c8.8,2.4,18.2,3.6,27.7,3.6
			c8.1,0,16.2-0.9,23.8-2.7l12.4,3.3C278.8,224.5,255.4,239.3,249.4,244.9z M357.8,339.8c0-5.1-11.1-15.1-16.5-16.4l-66-32.8
			c-12.8-3.3-14.5-4.9-33,0l-99,32.8c-4.4,3.8,0,11.3,0,16.4v98.5c0,5.1,0.7,12.1,16.5,16.4l77.1,36.7c1.4,2.5,4.1,2.5,6.8,2.5
			c2.7,0,5.4,0,6.8-1.3l90.9-37.9c18.9-9.2,16.5-27.8,16.5-32.8V339.8z M192.7,323.4l49.5-16.4l21.6-0.1l-71.1,32.9V323.4z
			 M242.3,471.2l-82.5-32.8v-98.5l13.4,10.3v38.2c0,1.3,1.4,2.5,2.7,3.8l27.1,12.7c4.1,2.5,6.3,4.4,6.3,0.6v-32.8l33,16.4V471.2z
			 M243.6,374.4l-17.8-18.1l82.5-32.8l20.6,8.9L243.6,374.4z M341.3,421.9c0,1.3-0.2,11.2-8.3,17.3l-74.2,32v-82.1l82.5-32.8V421.9z
			"/>
	</g>
</g>
</svg>
