<?xml version="1.0" encoding="utf-8"?>
<!-- Generator: Adobe Illustrator 19.0.0, SVG Export Plug-In . SVG Version: 6.00 Build 0)  -->
<svg version="1.1" id="图层_1" xmlns="http://www.w3.org/2000/svg" xmlns:xlink="http://www.w3.org/1999/xlink" x="0px" y="0px"
	 viewBox="0 0 500 500" style="enable-background:new 0 0 500 500;" xml:space="preserve">
<style type="text/css">
	.st0{fill:#C2C2C2;}
</style>
<g>
	<g>
		<path class="st0" d="M126.9,233.1H4.2v20.4h122.6C126.7,252.2,126.9,233.1,126.9,233.1z M486.4,207.7c-0.2,0-0.3-0.1-0.5-0.1
			c-0.2,0-0.3,0-0.5,0c-0.1,0-0.2,0-0.3,0l-0.1,0c-0.1,0-0.2,0-0.3,0c-0.4,0-0.7,0-1.1,0.1l-5.1,0.1l-92.3-92.2
			c-1.8-1.8-4.3-3-7.1-3h-73.7v-8.1c0-0.3,0-0.7-0.1-1c-1.3-30.2-26.3-54.4-56.8-54.4h-37.6c0,0,0,0-0.1,0H98.1
			c-5.5,0-10,5.5-10,12.4c0,6.8,12.8,8.1,18.4,8.1h143.1c20.3,0,40.9,20.6,40.9,40.9v3.5c-3,1.7-5,5-5,8.7c0,3.7,2,6.9,5,8.6v81.4
			c0,4.7,0.1,8.1,0.3,10.5c-0.3,1.2-0.2,2.3,0.3,3.4c0.1,0.8,0.1,1.1,0.1,1.1h0.5c2.3,3.1,8.3,5.4,19.3,5.4l159.2-0.4v96.6
			c0,20.3-16.6,32-36.9,32h-26.9c-9.8-21.7-31.7-36.8-57-36.8c-25.2,0-47,15-56.9,36.5H177.6c-9.2-23.1-31.8-39.5-58.2-39.5
			c-26.4,0-49,16.5-58.2,39.7H18.6c-5.5,0-10,6.9-10,12.4c0,5.5,4.5,12.4,10,12.4H57c1.1,33.5,28.7,60.4,62.5,60.4
			c33.8,0,61.4-26.9,62.5-60.4h104.8c0,0.3,0,0.6,0,0.9c0,34.4,28.1,62.5,62.5,62.5c34.5,0,62.6-28,62.6-62.5c0-0.3,0-0.6,0-0.9
			h26.2c30.6,0,55.6-24.2,56.8-54.4c0-0.3,0-0.7,0-1V217.6C494.8,212.6,491.2,208.5,486.4,207.7z M310.8,212.6
			c-1.9,0.1-3.7,0.3-5.4,0.7v-80.7h69.5l76.1,76L310.8,212.6z M116.6,417C99.7,417,86,403.3,86,386.4c0-16.9,13.7-30.7,30.7-30.7
			c16.9,0,30.7,13.7,30.7,30.7C147.3,403.3,133.5,417,116.6,417z M341.5,417c-16.9,0-30.6-13.8-30.6-30.7
			c0-16.9,13.8-30.6,30.6-30.6c16.9,0,30.7,13.7,30.7,30.6C372.1,403.3,358.4,417,341.5,417z M167.7,110.4H45.1v20.4h122.6V110.4z
			 M147.3,171.8H24.7v20.4h122.6C145.3,185.2,147.3,171.8,147.3,171.8z"/>
	</g>
</g>
</svg>
