<?xml version="1.0" encoding="utf-8"?>
<!-- Generator: Adobe Illustrator 19.0.0, SVG Export Plug-In . SVG Version: 6.00 Build 0)  -->
<svg version="1.1" id="图层_1" xmlns="http://www.w3.org/2000/svg" xmlns:xlink="http://www.w3.org/1999/xlink" x="0px" y="0px"
	 viewBox="0 0 500 500" style="enable-background:new 0 0 500 500;" xml:space="preserve">
<style type="text/css">
	.st0{fill:#C2C2C2;}
</style>
<g>
	<g>
		<path class="st0" d="M417.9,362.1l-44.1,39.2l-24.8-29l-15.4,14.1l40.2,45.5l60-53.9L417.9,362.1z M388.8,303.7
			c-46.5,0-84.2,38.4-84.2,85.8c0,47.4,37.7,85.8,84.2,85.8c46.5,0,84.2-38.4,84.2-85.8C473,342.2,435.3,303.7,388.8,303.7z
			 M384.2,457c-35.6,0-64.4-28.8-64.4-64.3s28.8-64.3,64.4-64.3s64.4,28.8,64.4,64.3S419.7,457,384.2,457z M256.8,464.5V336
			l195.9-141.6v113.2c3.1,2.5,6.1,5.2,8.9,8.1c3.1,3.2,6,6.5,8.6,10l0-148.5c0-0.5-0.4-0.8-0.4-1.2l0,0c0.1-2.4-0.6-4.6-2.3-6.4
			c-0.6-1.7-1.4-3.2-2.9-4.3L251.1,11c-1.4-1.1-3.1-1.6-4.9-1.6L125,6.9c-3.9-0.1-7.3,2.4-8.5,6.1c-1.2,3.7,0.1,7.8,3.2,10l55.4,40
			l-26.4,19.5c-1,0.3-1.9,0.7-2.8,1.3L29.6,169.4c-2.3,1.7-3.6,4.4-3.6,7.3v0.1l-0.6,0.3v150.3l3.7,7.2L242.5,489l0.4-0.2
			c0.4,0.3,0.7,0.6,1.2,0.9c1.3,0.6,2.7,1,4,1c1.8,0,3.5-0.5,5-1.7l52.4-37.9c-3.4-4.8-6.4-9.9-9.1-15.3L256.8,464.5z M238.8,464.5
			L42.9,322.9V194.4L238.8,336V464.5z M153,25.3l90.2,1.9l188.1,136l-90.2-1.8L153,25.3z"/>
	</g>
</g>
</svg>
