<?xml version="1.0" encoding="utf-8"?>
<!-- Generator: Adobe Illustrator 19.0.0, SVG Export Plug-In . SVG Version: 6.00 Build 0)  -->
<svg version="1.1" id="图层_1" xmlns="http://www.w3.org/2000/svg" xmlns:xlink="http://www.w3.org/1999/xlink" x="0px" y="0px"
	 viewBox="0 0 500 500" style="enable-background:new 0 0 500 500;" xml:space="preserve">
<style type="text/css">
	.st0{fill:#C2C2C2;}
</style>
<path class="st0" d="M168.7,333.4h165.6v-23.7H168.7V333.4z M334.4,238.7H145.1v23.7h189.3V238.7z M475.2,2H28
	C14.2,2,3.1,13.1,3.1,26.9V215c0,13.7,9.9,23.7,23.7,23.7h71v236.7c0,13.7,3.4,23.7,17.2,23.7h195.8l94.6-118.3v-142h71
	c13.7,0,23.7-9.9,23.7-23.7V26.9C500,13.1,488.9,2,475.2,2z M287.1,475.4v-94.7c0-6.9,7.3-5.9,14.2-5.9l80.4,5.9L287.1,475.4z
	 M452.7,215h-47.3v-71h-23.7v213h-94.6c-13.7,0-23.1,4-23.1,17.8v99.4l-118.9,1.2c-6.9,0-23.7-16-23.7-23.7V144H97.8v71H50.4V49.3
	h402.2V215z M334.4,167.7H168.7v23.7h165.6V167.7z"/>
</svg>
