<?xml version="1.0" encoding="iso-8859-1"?>
<!-- Generator: Adobe Illustrator 19.0.0, SVG Export Plug-In . SVG Version: 6.00 Build 0)  -->
<svg version="1.1" id="&#x56FE;&#x5C42;_1" xmlns="http://www.w3.org/2000/svg" xmlns:xlink="http://www.w3.org/1999/xlink" x="0px"
	 y="0px" viewBox="0 0 500 500" style="enable-background:new 0 0 500 500;" xml:space="preserve">
<g>
	<g>
		<path style="fill-rule:evenodd;clip-rule:evenodd;fill:#33B5FF;" d="M444.664,48.084H57.336C26.775,48.084,2,72.857,2,103.417
			v304.329c0,30.56,24.775,55.336,55.336,55.336h387.328c30.56,0,55.336-24.775,55.336-55.336V103.417
			C500,72.857,475.225,48.084,444.664,48.084z M472.333,435.418H29.666V75.753h442.667V435.418z M157.077,232.812v47.101h66.696
			v19.235h-66.696v47.101h66.696v56.27l52.674,0.359v-56.629l66.875,0.18l-0.18-47.28h-66.695v-19.235h67.414v-47.101l-59.685-0.18
			l86.471-124.763h-59.145l-59.146,87.729l-66.517-87.01h-59.146l89.527,124.043L157.077,232.812z"/>
	</g>
</g>
</svg>
