<?xml version="1.0" encoding="iso-8859-1"?>
<!-- Generator: Adobe Illustrator 19.0.0, SVG Export Plug-In . SVG Version: 6.00 Build 0)  -->
<svg version="1.1" id="&#x56FE;&#x5C42;_1" xmlns="http://www.w3.org/2000/svg" xmlns:xlink="http://www.w3.org/1999/xlink" x="0px"
	 y="0px" viewBox="0 0 500 500" style="enable-background:new 0 0 500 500;" xml:space="preserve">
<g>
	<g>
		<path style="fill-rule:evenodd;clip-rule:evenodd;fill:#999999;" d="M218.185,382.631c9.065,0,16.409-5.09,16.409-11.382V259.42
			c0-6.292-7.344-11.392-16.409-11.392c-9.062,0-16.412,5.099-16.412,11.392v111.829
			C201.772,377.541,209.123,382.631,218.185,382.631z M283.828,382.631c9.068,0,16.425-5.09,16.425-11.382V259.42
			c0-6.292-7.357-11.392-16.425-11.392s-16.403,5.099-16.403,11.392v111.829C267.425,377.541,274.76,382.631,283.828,382.631z
			 M349.497,382.631c9.062,0,16.412-5.09,16.412-11.382V259.42c0-6.292-7.351-11.392-16.412-11.392
			c-9.065,0-16.416,5.099-16.416,11.392v111.829C333.081,377.541,340.432,382.631,349.497,382.631z M464.393,113.429
			c0,0-3.048-0.131-65.656,0l-101.771-63.49c-4.582-3.808-11.431-3.208-15.275,1.324c-3.857,4.523-3.261,11.28,1.334,15.075
			l50.056,47.091H168.944l50.05-47.091c4.598-3.795,5.181-10.553,1.337-15.075c-3.844-4.532-10.707-5.132-15.285-1.324
			l-101.758,63.49c-38.134,1.085-65.656,0-65.656,0c-10.874,0-32.828,22.144-32.828,32.864v64.463
			c0,10.72,8.845,19.437,19.716,19.437h20.375l-7.262,186.091c1.625,16.058,21.148,33.644,37.514,33.644h351.729
			c16.357,0,30.849-20.643,32.464-36.708l-2.229-183.027h20.388c10.874,0,19.722-8.717,19.722-19.437v-64.463
			C497.221,135.573,475.264,113.429,464.393,113.429z M431.565,382.631c0,0-1.317,25.051-32.828,33.654l-288.419-3.064
			c-31.245,0-39.35-25.52-39.858-30.59v-168.25h361.105V382.631z M464.393,180.727H37.632l2.343-24.471l424.418-9.173V180.727z
			 M152.279,380.878c9.048,0,16.386-5.09,16.386-11.388V257.667c0-6.292-7.338-11.395-16.386-11.395
			c-9.048,0-16.389,5.103-16.389,11.395v111.823C135.89,375.788,143.231,380.878,152.279,380.878z"/>
	</g>
</g>
</svg>
