<?xml version="1.0" encoding="iso-8859-1"?>
<!-- Generator: Adobe Illustrator 19.0.0, SVG Export Plug-In . SVG Version: 6.00 Build 0)  -->
<svg version="1.1" id="&#x56FE;&#x5C42;_1" xmlns="http://www.w3.org/2000/svg" xmlns:xlink="http://www.w3.org/1999/xlink" x="0px"
	 y="0px" viewBox="0 0 500 500" style="enable-background:new 0 0 500 500;" xml:space="preserve">
<path style="fill:#FF9635;" d="M22.225,390.524c0,15.101-2.985,104.87,34.957,104.87c12.42-0.004,15.098,0,34.957,0
	c13.14,0,25.686-66.662,31.559-71.416c89.768,3.81,209.463-3.583,213.137,1.503c5.226,7.236,90.656,84.972,104.87,0
	c13.696-81.886-34.957-113.71-34.957-139.826v-34.957c1.091-27.535,68.819-58.989,69.913-69.913
	c1.091-55.714-26.986-62.055-34.957-69.913c-16.58,6.285,42.392,11.022,34.957-69.913c0-30.569-79.984-34.957-104.87-34.957
	c39.211,0-86.968-0.919-209.739,0c-31.88,0.283-55.714-3.279-104.87,0c-42.605,24.033-34.957,77.184-34.957,104.87
	C22.225,110.872,22.225,338.81,22.225,390.524z M127.095,110.872c-6.313,5.492-3.817,43.245-3.817,59.741
	c0,21.795,3.817,47.901,3.817,45.129v104.87c-23.617,16.968-27.056,39.518-34.957,69.913
	C72.377,513.767,49.32,378.695,52.805,366.09c8.05-76.037-14.815-314.487,39.333-325.131c50.991-4.904,43.343,0.283,69.913,0
	c123.75-0.919,250.485,0,209.739,0c32.912,0,35.383,15.391,34.957,34.957c-0.398,18.146-3.118,24.085-12.067,33.034
	c-40.55,40.55-75.464-15.695-57.846,1.923C266.795,35.251,189.08,56.966,127.095,110.872z M301.878,215.742
	c0,0,69.913-7.648,69.913,0c0,7.645,0,21.816,0,34.957v34.957c0,30.905-34.957,57.381-34.957,0c0,0,4.247-34.957-34.957-34.957
	h-69.913c1.115,21.848,5.163,35.558-34.957,34.957c-49.967,2.048-35.635-50.453-34.957-69.913c5.534-5.069,69.913,0,69.913,0
	c5.275,0,4.478-34.957,0-34.957c0,0-69.913,18.803-69.913,0c0-11.462-6.275-33.226,0-34.957c34.551-9.508,49.729,3.541,69.913,0
	c1.678-11.462-6.016-31.877,0-34.957c24.774-2.797,48.065-7.953,69.913,0c0,3.356,8.208,32.475,14.36,32.475
	c0,0,130.514,5.188,125.466,2.482c11.459,6.163,11.473,28.234,0,34.957c-5.736,3.356-90.891,0-104.87,0
	C336.834,180.785,292.146,169.861,301.878,215.742z M301.878,355.568c-25.162,25.162-58.021,34.957-104.87,34.957
	c-40.403,0-34.957-20.834-34.957-34.957c0-48.009,65.446,2.52,69.913,0c44.094-24.847,60.08-96.431,69.913-69.913l-2.419,35.551
	C299.459,296.341,307.338,350.104,301.878,355.568z M336.834,390.524c-8.739-4.37-15.377,1.091,0-34.957
	c-5.478,0,4.911-9.26,69.913,0C421.114,392.709,345.573,394.894,336.834,390.524z"/>
</svg>
