<?xml version="1.0" encoding="utf-8"?>
<!-- Generator: Adobe Illustrator 19.0.0, SVG Export Plug-In . SVG Version: 6.00 Build 0)  -->
<svg version="1.1" id="图层_1" xmlns="http://www.w3.org/2000/svg" xmlns:xlink="http://www.w3.org/1999/xlink" x="0px" y="0px"
	 viewBox="0 0 1024 1024" style="enable-background:new 0 0 1024 1024;" xml:space="preserve">
<style type="text/css">
	.st0{fill:#B10000;}
</style>
<g>
	<g>
		<path class="st0" d="M511.8,64.4C264.7,64.4,64.3,264.8,64.3,512c0,247.2,200.4,447.5,447.5,447.5
			c247.2,0,447.5-200.4,447.5-447.5C959.3,264.8,759,64.4,511.8,64.4z M512.5,909.1c-219.2,0-396.9-177.7-396.9-396.9
			c0-219.2,177.7-396.9,396.9-396.9c219.2,0,396.9,177.7,396.9,396.9C909.4,731.4,731.7,909.1,512.5,909.1z M545.4,642l19.2-390.5
			H461L480.2,642H545.4z M512.4,683.4c-16.9,0-30.7,5.4-41.4,16.1c-11.8,10.2-17.6,24-17.6,41.4c0,17.4,5.9,31.2,17.6,41.4
			c11.2,11.3,25.1,16.9,41.4,16.9c16.4,0,30.7-5.4,43-16.1c11.2-11.2,16.9-25.3,16.9-42.2c0-16.4-5.6-30.2-16.9-41.4
			C544.1,688.8,529.8,683.4,512.4,683.4z"/>
	</g>
</g>
</svg>
