<?xml version="1.0" encoding="iso-8859-1"?>
<!-- Generator: Adobe Illustrator 19.0.0, SVG Export Plug-In . SVG Version: 6.00 Build 0)  -->
<svg version="1.1" id="&#x56FE;&#x5C42;_1" xmlns="http://www.w3.org/2000/svg" xmlns:xlink="http://www.w3.org/1999/xlink" x="0px"
	 y="0px" viewBox="0 0 500 500" style="enable-background:new 0 0 500 500;" xml:space="preserve">
<g>
	<g>
		<path style="fill:#56AA16;" d="M368.931,200.295c3.933,10.678,6.066,22.067,6.066,33.897c0,1.425-0.041,2.842-0.102,4.254
			c38.416,14.378,62.606,35.282,62.606,58.555c0,43.362-83.948,78.515-187.5,78.515c-103.555,0-187.5-35.153-187.5-78.515
			c0-23.273,24.189-44.177,62.603-58.555c-0.061-1.412-0.102-2.829-0.102-4.254c0-11.83,2.134-23.219,6.066-33.897
			C53.011,218.892,0,255.224,0,297.004c0,60.705,111.931,109.921,249.998,109.921C388.072,406.926,500,357.709,500,297.004
			C500,255.224,446.99,218.892,368.931,200.295z M173.446,332.547l107.804,11.567l93.747-282.658H156.248v94.218h62.504
			L173.446,332.547z M187.5,124.271l31.252-31.412H312.5l-49.056,225.744l-44.691-5.898l62.498-188.433H187.5z"/>
	</g>
</g>
</svg>
