<?xml version="1.0" encoding="utf-8"?>
<!-- Generator: Adobe Illustrator 18.0.0, SVG Export Plug-In . SVG Version: 6.00 Build 0)  -->
<!DOCTYPE svg PUBLIC "-//W3C//DTD SVG 1.1//EN" "http://www.w3.org/Graphics/SVG/1.1/DTD/svg11.dtd">
<svg version="1.1" id="图形" xmlns="http://www.w3.org/2000/svg" xmlns:xlink="http://www.w3.org/1999/xlink" x="0px" y="0px"
	 viewBox="15.167 -16.333 1000.636 1000.678" enable-background="new 15.167 -16.333 1000.636 1000.678" xml:space="preserve">
<g>
	<path fill-rule="evenodd" clip-rule="evenodd" fill="#272536" d="M837.777,317.008h-88.146v-71.025
		c0-32.379-16.466-65.823-48.845-65.823H348.592c-32.379,0-68.096,33.444-68.096,65.823v71.025h-68.895
		c-32.358,0-67.952,33.587-67.952,65.966v215.245c0,32.379,35.594,51.117,67.952,51.117h68.875v219.423
		c0,32.379,35.717,50.852,68.096,50.852h352.215c32.379,0,48.845-18.474,48.845-50.852V649.316h88.146
		c32.379,0,49.542-18.739,49.542-51.117V382.974C887.318,350.595,870.156,317.008,837.777,317.008L837.777,317.008 M319.592,245.984
		c0-10.793,18.227-27.567,29-27.567h352.215c10.793,0,9.749,16.773,9.749,27.567v71.024H319.592V245.984L319.592,245.984
		 M710.534,861.265c0,10.793-8.479,20.09-19.272,20.09H339.029c-10.793,0-19.436-9.298-19.436-20.09V571.165
		c0-10.813,8.643-19.579,19.436-19.579h352.235c10.793,0,19.272,8.766,19.272,19.579L710.534,861.265L710.534,861.265
		 M847.381,598.199c0,10.793,1.209,12.021-9.604,12.021h-88.146v-31.58c0-32.38-16.466-66.151-48.845-66.151H348.592
		c-32.379,0-68.096,33.772-68.096,66.151v31.58h-68.895c-10.772,0-28.856-1.228-28.856-12.021V382.974
		c0-10.793,18.084-26.87,28.856-26.87h626.176c10.793,0,9.605,16.077,9.605,26.87v215.225H847.381 M654.03,638.277H380.069
		c-10.792,0-19.558,8.295-19.558,19.129c0,10.834,8.766,19.128,19.558,19.128H654.03c10.815,0,19.559-8.294,19.559-19.128
		C673.59,646.572,664.845,638.277,654.03,638.277L654.03,638.277 M654.03,751.328H380.069c-10.792,0-19.558,8.724-19.558,19.537
		c0,10.815,8.766,19.539,19.558,19.539H654.03c10.815,0,19.559-8.724,19.559-19.539C673.59,760.052,664.845,751.328,654.03,751.328
		L654.03,751.328 M772.684,404.686 M743.883,404.686"/>
</g>
</svg>
