<?xml version="1.0" encoding="utf-8"?>
<!-- Generator: Adobe Illustrator 18.0.0, SVG Export Plug-In . SVG Version: 6.00 Build 0)  -->
<!DOCTYPE svg PUBLIC "-//W3C//DTD SVG 1.1//EN" "http://www.w3.org/Graphics/SVG/1.1/DTD/svg11.dtd">
<svg version="1.1" id="图形" xmlns="http://www.w3.org/2000/svg" xmlns:xlink="http://www.w3.org/1999/xlink" x="0px" y="0px"
	 viewBox="15.167 -16.333 1000.636 1000.678" enable-background="new 15.167 -16.333 1000.636 1000.678" xml:space="preserve">
<g>
	<path fill-rule="evenodd" clip-rule="evenodd" fill="#272536" d="M732.701,912.867H304.768
		c-58.495,0-104.675-46.18-104.675-104.674V703.518c-9.236,0-18.472,3.079-21.55,6.158c-15.393,15.393-33.865,21.55-52.337,21.55
		c-12.315,0-21.551-6.157-30.787-12.314c-12.315-15.394-9.236-76.967-9.236-76.967c3.079-36.944,27.708-40.022,55.416-40.022
		h751.192c24.629,0,52.337,6.157,52.337,43.101c0,61.573-6.157,70.809-9.236,73.888c-6.157,9.236-18.472,12.314-30.787,12.314
		c-18.471,0-36.943-6.157-52.337-21.55c-3.078-3.079-12.314-6.158-21.55-6.158v104.675
		C837.375,866.687,788.117,912.867,732.701,912.867L732.701,912.867z M212.408,666.575c3.079,0,3.079,0,6.157,0h18.472v141.618
		c0,36.944,30.787,67.73,67.731,67.73h427.933c36.944,0,67.73-30.786,67.73-67.73V666.575h18.472
		c21.551,0,46.18,3.078,64.652,18.471c9.236,9.236,18.472,12.315,24.629,12.315h3.079c0-6.157,3.078-27.708,3.078-49.258
		c0-3.079,0-6.158,0-6.158s-3.078,0-15.393,0H141.599c-12.315,0-18.472,0-18.472,3.079c0,0,0,3.079,0,6.157
		c0,12.315,0,40.023,3.079,49.259h3.079c6.157,0,15.393-3.079,24.629-12.315C169.307,669.653,193.936,666.575,212.408,666.575
		L212.408,666.575z"/>
	<path fill-rule="evenodd" clip-rule="evenodd" fill="#272536" d="M643.42,309.45c-6.158,0-12.315-3.078-15.394-9.235
		c-6.157-9.236-3.078-18.472,6.158-24.63c55.416-36.944,43.101-64.652,24.629-107.753c-9.236-18.472-18.472-43.101-3.079-64.651
		c3.079-9.236,15.394-12.315,24.63-6.158c9.236,6.158,9.236,15.393,6.157,24.63c-3.079,6.157,0,18.471,6.157,33.865
		c18.472,43.101,43.101,98.517-36.944,150.854C649.577,309.45,646.498,309.45,643.42,309.45L643.42,309.45z"/>
	<path fill-rule="evenodd" clip-rule="evenodd" fill="#272536" d="M501.802,309.45c-6.158,0-12.315-3.078-15.394-9.235
		c-6.157-9.236-3.078-18.472,6.158-24.63c55.415-33.865,43.101-64.651,24.629-107.753c-9.236-18.472-18.472-46.179-3.079-67.73
		c3.079-6.157,15.393-9.236,21.551-3.079c9.236,6.158,9.236,15.393,6.157,24.63c-3.079,6.157,0,18.471,6.157,33.865
		c18.472,43.101,43.102,98.517-36.943,150.854C507.959,309.45,504.88,309.45,501.802,309.45L501.802,309.45z"/>
	<path fill-rule="evenodd" clip-rule="evenodd" fill="#272536" d="M350.947,309.45c-6.157,0-9.236-3.078-15.393-9.235
		c-3.078-6.158-3.078-18.472,6.157-21.551c55.416-36.944,43.102-64.652,24.63-107.753c-9.236-21.551-18.472-46.18-3.079-70.809
		c3.079-6.157,15.393-9.236,21.551-3.079c9.236,6.158,9.236,15.393,6.157,24.63c-3.079,6.157,0,18.471,6.157,33.865
		c18.472,43.101,43.102,98.517-36.944,150.854C357.105,309.45,354.026,309.45,350.947,309.45L350.947,309.45z"/>
	<path fill-rule="evenodd" clip-rule="evenodd" fill="#272536" d="M326.318,678.889v113.91c0,12.315,9.236,18.472,18.472,18.472
		c12.315,0,18.472-9.236,18.472-18.472v-113.91c0-12.314-9.236-18.472-18.472-18.472
		C335.554,660.417,326.318,669.653,326.318,678.889L326.318,678.889L326.318,678.889L326.318,678.889z"/>
	<path fill-rule="evenodd" clip-rule="evenodd" fill="#272536" d="M837.375,549.586H200.093v-18.472
		c6.158-89.281,58.495-120.068,104.675-120.068h160.09l-9.236-27.708c-3.079-9.236,0-21.55,6.157-30.786
		c9.236-9.236,21.551-15.394,33.865-15.394h33.865c12.315,0,27.708,6.158,33.866,18.472c6.157,9.236,9.236,18.472,6.157,30.787
		l-6.157,24.629h169.326c46.18,0,95.438,30.787,104.674,120.068V549.586L837.375,549.586z M240.116,512.642h557.237
		c-9.236-43.101-30.787-67.731-64.652-67.731H520.273l18.472-70.809c0,0-3.078,0-6.157,0h-33.865c-3.079,0-6.157,3.079-6.157,3.079
		l18.472,67.73h-206.27C270.902,444.911,246.273,469.541,240.116,512.642L240.116,512.642z"/>
	<path fill-rule="evenodd" clip-rule="evenodd" fill="#272536" d="M304.768,426.439"/>
</g>
</svg>
