<?xml version="1.0" encoding="utf-8"?>
<!-- Generator: Adobe Illustrator 18.0.0, SVG Export Plug-In . SVG Version: 6.00 Build 0)  -->
<!DOCTYPE svg PUBLIC "-//W3C//DTD SVG 1.1//EN" "http://www.w3.org/Graphics/SVG/1.1/DTD/svg11.dtd">
<svg version="1.1" id="图形" xmlns="http://www.w3.org/2000/svg" xmlns:xlink="http://www.w3.org/1999/xlink" x="0px" y="0px"
	 viewBox="15.167 -16.333 1000.636 1000.678" enable-background="new 15.167 -16.333 1000.636 1000.678" xml:space="preserve">
<g>
	<path fill-rule="evenodd" clip-rule="evenodd" fill="#272536" d="M869.966,830.248c-3.215-22.089-6.089-44.232-9.082-66.356
		c-2.556-18.898-5.206-37.785-7.773-56.682c-3.005-22.123-5.984-44.249-9.009-66.369c-2.584-18.896-5.21-37.787-7.762-56.687
		c-2.988-22.126-6.025-44.246-9.024-66.372c-2.562-18.898-5.188-37.788-7.756-56.685c-3.007-22.124-6.022-44.248-9.014-66.375
		c-2.556-18.9-5.211-37.787-7.773-56.685c-3-22.125-6.064-44.241-8.991-66.377c-2.622-19.828-5.526-39.619-8.009-59.468
		c-1.169-9.336-4.634-17.608-12.378-23.712c-4.125-3.251-9.057-2.672-13.625-3.819c-192.072,0-384.143,0-576.216,0
		c-3.807,1.091-7.868,0.884-11.527,2.93c-9.145,5.114-13.81,12.878-14.579,23.176c0,221.286,0,442.574,0,663.86
		c0.819,7.202,3.486,13.414,9.43,17.94c5.575,4.245,11.711,6.841,18.803,7.257c15.364,0.904,450.045,0.909,454.744,0.909
		c0.665-0.514,1.449-0.471,2.222-0.466c8.276,0.057,14.086-4.031,18.264-10.863c4.084-6.678,5.716-13.929,5.712-21.75
		c-0.054-97.24,0.003-194.48-0.072-291.721c-0.012-14.623,0.54-29.257-0.187-42.84c0.004,0.024,0.006,0.048,0.01,0.072
		c4.265,29.936,9.73,59.678,14.626,89.513c5.65,34.429,11.464,68.831,17.19,103.247c5.42,32.581,10.93,65.147,16.24,97.747
		c2.742,16.832,5.929,33.59,8.185,50.503c2.093,15.693,9.739,23.705,25.035,26.558c33.876,0,67.754,0,101.63,0
		c6.192-0.688,12.122-1.723,16.751-6.676c4.695-5.023,6.529-11.058,7.491-17.566c0-3.419,0-6.837,0-10.256
		C871.913,854.286,871.707,842.213,869.966,830.248L869.966,830.248z M187.21,218.245c-0.027-3.061,0.813-3.818,3.837-3.814
		c67.105,0.088,134.211,0.088,201.316,0.002c3.003-0.004,3.878,0.719,3.85,3.801c-0.156,17.241-0.186,34.486,0.017,51.725
		c0.041,3.507-0.855,4.315-4.322,4.299c-33.396-0.144-66.794-0.087-100.191-0.087s-66.795-0.056-100.191,0.085
		c-3.444,0.015-4.377-0.757-4.335-4.286C187.397,252.731,187.364,235.486,187.21,218.245L187.21,218.245z M391.937,870.99
		c-33.397-0.151-66.795-0.09-100.192-0.09s-66.795-0.053-100.191,0.081c-3.391,0.014-4.41-0.672-4.365-4.255
		c0.215-17.24,0.171-34.484,0.027-51.725c-0.025-3.011,0.733-3.848,3.807-3.843c67.105,0.092,134.211,0.101,201.316-0.018
		c3.546-0.006,3.89,1.281,3.867,4.261c-0.131,17.086-0.17,34.176,0.024,51.26C396.267,870.113,395.457,871.006,391.937,870.99
		L391.937,870.99z M396.232,776.692c0.002,3.856-0.875,4.803-4.77,4.796c-66.5-0.135-133.001-0.135-199.5,0
		c-3.893,0.008-4.778-0.937-4.773-4.795c0.126-77.997,0.095-155.995,0.095-233.993c0-77.843,0.036-155.685-0.099-233.528
		c-0.007-4.202,0.992-5.277,5.243-5.268c66.344,0.148,132.689,0.142,199.034,0.007c3.893-0.008,4.773,0.937,4.771,4.795
		C396.123,464.701,396.123,620.697,396.232,776.692L396.232,776.692z M425.901,218.241c-0.027-3.07,0.828-3.812,3.843-3.809
		c67.105,0.087,134.211,0.087,201.316,0c3.012-0.004,3.872,0.733,3.845,3.806c-0.154,17.241-0.186,34.486,0.018,51.725
		c0.041,3.517-0.871,4.309-4.328,4.294c-33.396-0.143-66.794-0.086-100.191-0.086c-33.398,0-66.795-0.057-100.192,0.086
		c-3.454,0.015-4.37-0.772-4.329-4.292C426.088,252.726,426.055,235.481,425.901,218.241L425.901,218.241z M634.905,867.158
		c0.027,3.07-0.827,3.812-3.842,3.808c-67.105-0.087-134.211-0.087-201.317,0c-3.011,0.004-3.872-0.732-3.845-3.806
		c0.155-17.241,0.186-34.486-0.018-51.725c-0.041-3.516,0.87-4.309,4.328-4.294c33.396,0.143,66.794,0.086,100.191,0.086
		c33.398,0,66.795,0.057,100.192-0.086c3.453-0.015,4.371,0.771,4.329,4.291C634.719,832.673,634.751,849.917,634.905,867.158
		L634.905,867.158z M629.675,781.492c-66.345-0.144-132.689-0.14-199.034-0.003c-3.915,0.008-4.76-0.973-4.757-4.808
		c0.107-155.995,0.108-311.991-0.002-467.987c-0.003-3.877,0.91-4.79,4.783-4.782c66.5,0.133,133,0.135,199.5-0.003
		c3.914-0.008,4.765,0.972,4.758,4.808c-0.124,78.153-0.093,156.307-0.093,234.459c0,77.687-0.037,155.375,0.102,233.061
		C634.939,780.468,633.899,781.501,629.675,781.492L629.675,781.492z M781.365,870.928c-4.193-0.093-8.389-0.029-12.583-0.029
		c-3.574,0-7.172-0.265-10.713,0.078c-3.28,0.318-4.128-1.105-4.516-4.005c-4.085-30.611-8.265-61.21-12.432-91.81
		c-4.501-33.06-9.019-66.118-13.526-99.176c-4.508-33.06-9.014-66.118-13.518-99.178c-4.482-32.906-8.954-65.814-13.44-98.72
		c-4.528-33.212-9.067-66.424-13.603-99.635c-4.514-33.058-9.026-66.117-13.545-99.174c-2.837-20.757-5.637-41.52-8.592-62.26
		c-0.412-2.898,1.163-2.53,2.884-2.527c7.612,0.011,15.233,0.204,22.834-0.089c3.265-0.125,4.137,1.117,4.513,4.02
		c2.198,16.929,4.531,33.84,6.834,50.754c4.502,33.06,9.015,66.118,13.524,99.177c4.507,33.06,9.017,66.118,13.52,99.178
		c4.482,32.906,8.951,65.814,13.438,98.719c4.528,33.214,9.071,66.424,13.606,99.637c4.514,33.057,9.023,66.117,13.541,99.174
		c4.708,34.442,9.402,68.885,14.183,103.316C784.09,870.656,783.271,870.97,781.365,870.928L781.365,870.928z M841.174,870.937
		c-8.233-0.096-16.474-0.21-24.7,0.045c-3.318,0.103-2.895-2.129-3.141-3.888c-2.062-14.755-4.019-29.525-6.033-44.286
		c-4.512-33.058-9.045-66.114-13.557-99.172c-4.491-32.906-8.962-65.813-13.449-98.719c-4.528-33.212-9.07-66.423-13.598-99.636
		c-4.486-32.905-8.961-65.811-13.443-98.717c-4.503-33.06-9.007-66.119-13.515-99.179c-4.508-33.059-9.019-66.117-13.534-99.176
		c-0.504-3.69-0.924-7.396-1.597-11.056c-0.377-2.049,0.098-2.76,2.243-2.693c4.191,0.13,8.389,0.038,12.583,0.038
		c3.574-0.001,7.172,0.26,10.713-0.079c3.171-0.304,4.249,0.845,4.634,3.869c1.883,14.778,3.931,29.536,5.945,44.297
		c4.511,33.058,9.045,66.114,13.556,99.172c4.491,32.906,8.963,65.813,13.449,98.719c4.529,33.212,9.07,66.423,13.599,99.636
		c4.486,32.906,8.96,65.814,13.443,98.719c4.504,33.06,9.008,66.12,13.515,99.179c4.508,33.059,9.019,66.118,13.533,99.175
		c0.504,3.69,0.925,7.397,1.598,11.056C843.796,870.296,843.313,870.962,841.174,870.937L841.174,870.937z"/>
	<path fill-rule="evenodd" clip-rule="evenodd" fill="#272536" d="M291.243,393.517c-23.296,0-46.592-0.08-69.887,0.088
		c-3.455,0.025-4.472-0.763-4.328-4.295c0.304-7.443,0.209-14.909,0.031-22.359c-0.064-2.669,0.77-3.328,3.37-3.324
		c47.523,0.075,95.047,0.075,142.57,0c2.607-0.004,3.425,0.668,3.365,3.329c-0.175,7.606-0.218,15.223,0.014,22.826
		c0.095,3.09-0.845,3.821-3.85,3.805C338.767,393.463,315.005,393.517,291.243,393.517L291.243,393.517z"/>
	<path fill-rule="evenodd" clip-rule="evenodd" fill="#272536" d="M291.711,423.354c23.451,0,46.902,0.079,70.352-0.087
		c3.448-0.025,4.478,0.751,4.333,4.291c-0.307,7.443-0.208,14.909-0.032,22.359c0.063,2.663-0.76,3.332-3.366,3.328
		c-47.523-0.075-95.047-0.075-142.57,0c-2.602,0.004-3.43-0.658-3.369-3.325c0.175-7.606,0.217-15.223-0.014-22.826
		c-0.093-3.083,0.835-3.825,3.846-3.809C244.497,423.409,268.104,423.354,291.711,423.354L291.711,423.354z"/>
	<path fill-rule="evenodd" clip-rule="evenodd" fill="#272536" d="M291.231,512.863c-23.296,0-46.592-0.082-69.887,0.089
		c-3.481,0.025-4.454-0.803-4.313-4.31c0.298-7.443,0.208-14.908,0.028-22.359c-0.065-2.688,0.802-3.314,3.384-3.31
		c47.523,0.073,95.047,0.075,142.57-0.002c2.626-0.004,3.41,0.701,3.351,3.342c-0.171,7.606-0.221,15.224,0.017,22.827
		c0.097,3.115-0.883,3.805-3.865,3.79C338.755,512.81,314.993,512.863,291.231,512.863L291.231,512.863z"/>
	<path fill-rule="evenodd" clip-rule="evenodd" fill="#272536" d="M530.902,363.681c23.296,0,46.593,0.085,69.887-0.092
		c3.517-0.027,4.428,0.861,4.293,4.331c-0.289,7.443-0.21,14.909-0.024,22.359c0.068,2.717-0.848,3.294-3.403,3.29
		c-47.524-0.071-95.048-0.074-142.571,0.005c-2.653,0.004-3.388-0.748-3.331-3.362c0.166-7.606,0.224-15.225-0.02-22.827
		c-0.102-3.15,0.936-3.784,3.884-3.769C483.378,363.732,507.14,363.681,530.902,363.681L530.902,363.681z"/>
	<path fill-rule="evenodd" clip-rule="evenodd" fill="#272536" d="M530.87,423.354c23.296,0,46.592,0.08,69.886-0.087
		c3.453-0.025,4.475,0.758,4.33,4.294c-0.304,7.442-0.208,14.908-0.031,22.359c0.063,2.666-0.765,3.329-3.368,3.325
		c-47.523-0.075-95.047-0.075-142.57,0c-2.605,0.004-3.428-0.664-3.366-3.327c0.175-7.606,0.217-15.224-0.015-22.826
		c-0.094-3.088,0.841-3.823,3.848-3.807C483.346,423.409,507.108,423.354,530.87,423.354L530.87,423.354z"/>
	<path fill-rule="evenodd" clip-rule="evenodd" fill="#272536" d="M529.904,512.863c-23.297,0-46.593-0.085-69.887,0.091
		c-3.517,0.027-4.428-0.86-4.293-4.33c0.289-7.443,0.21-14.909,0.024-22.359c-0.068-2.717,0.848-3.294,3.403-3.291
		c47.524,0.071,95.047,0.074,142.571-0.005c2.653-0.004,3.388,0.748,3.331,3.362c-0.166,7.606-0.225,15.225,0.02,22.827
		c0.102,3.15-0.936,3.784-3.884,3.769C577.428,512.812,553.666,512.863,529.904,512.863L529.904,512.863z"/>
</g>
</svg>
