<?xml version="1.0" encoding="utf-8"?>
<!-- Generator: Adobe Illustrator 18.0.0, SVG Export Plug-In . SVG Version: 6.00 Build 0)  -->
<!DOCTYPE svg PUBLIC "-//W3C//DTD SVG 1.1//EN" "http://www.w3.org/Graphics/SVG/1.1/DTD/svg11.dtd">
<svg version="1.1" id="图形" xmlns="http://www.w3.org/2000/svg" xmlns:xlink="http://www.w3.org/1999/xlink" x="0px" y="0px"
	 viewBox="15.167 -16.333 1000.636 1000.678" enable-background="new 15.167 -16.333 1000.636 1000.678" xml:space="preserve">
<g>
	<path fill-rule="evenodd" clip-rule="evenodd" fill="#272536" d="M857.683,276.507H173.285c-47.248,0-85.549,38.302-85.549,85.549
		V832.58c0,47.248,38.302,85.549,85.549,85.549h684.398c47.249,0,85.55-38.302,85.55-85.549V362.057
		C943.233,314.809,904.93,276.507,857.683,276.507L857.683,276.507z M900.458,811.192c0,35.436-28.726,64.162-64.162,64.162
		l-641.623,0c-35.436,0-64.162-28.726-64.162-64.162V383.445c0-35.436,28.726-64.162,64.162-64.162h641.622
		c35.436,0,64.162,28.726,64.162,64.162L900.458,811.192L900.458,811.192L900.458,811.192z"/>
	<polygon fill-rule="evenodd" clip-rule="evenodd" fill="#272536" points="827.251,128.882 506.44,276.507 612.064,276.507 
		845.34,167.645 827.251,128.882 	"/>
	<polygon fill-rule="evenodd" clip-rule="evenodd" fill="#272536" points="191.832,126.878 173.601,166.464 406.312,276.508 
		507.024,276.507 191.832,126.878 	"/>
	<path fill-rule="evenodd" clip-rule="evenodd" fill="#272536" d="M558.26,362.057H258.835c-47.248,0-85.55,38.303-85.55,85.55
		V747.03c0,47.248,38.303,85.55,85.55,85.55h299.424c47.248,0,85.549-38.303,85.549-85.55V447.607
		C643.809,400.358,605.507,362.057,558.26,362.057L558.26,362.057z M601.034,725.643c0,35.436-28.726,64.162-64.162,64.162h-256.65
		c-35.436,0-64.162-28.726-64.162-64.162V468.994c0-35.436,28.726-64.162,64.162-64.162h256.649
		c35.436,0,64.162,28.726,64.162,64.162v256.649H601.034L601.034,725.643z"/>
	<path fill-rule="evenodd" clip-rule="evenodd" fill="#272536" d="M772.133,362.057c-47.248,0-85.549,38.303-85.549,85.55
		c0,47.248,38.302,85.549,85.549,85.549c47.247,0,85.549-38.302,85.549-85.549C857.683,400.358,819.381,362.057,772.133,362.057
		L772.133,362.057z M772.133,490.381c-23.623,0-42.775-19.151-42.775-42.774c0-23.624,19.152-42.775,42.775-42.775
		c23.623,0,42.775,19.151,42.775,42.775C814.909,471.23,795.758,490.381,772.133,490.381L772.133,490.381z"/>
	<polygon fill-rule="evenodd" clip-rule="evenodd" fill="#272536" points="686.584,768.418 857.683,768.418 857.683,811.192 
		686.584,811.192 686.584,768.418 	"/>
	<polygon fill-rule="evenodd" clip-rule="evenodd" fill="#272536" points="686.584,682.868 857.683,682.868 857.683,725.643 
		686.584,725.643 686.584,682.868 	"/>
</g>
</svg>
