<?xml version="1.0" encoding="utf-8"?>
<!-- Generator: Adobe Illustrator 18.0.0, SVG Export Plug-In . SVG Version: 6.00 Build 0)  -->
<!DOCTYPE svg PUBLIC "-//W3C//DTD SVG 1.1//EN" "http://www.w3.org/Graphics/SVG/1.1/DTD/svg11.dtd">
<svg version="1.1" id="图形" xmlns="http://www.w3.org/2000/svg" xmlns:xlink="http://www.w3.org/1999/xlink" x="0px" y="0px"
	 viewBox="15.167 -16.333 1000.636 1000.678" enable-background="new 15.167 -16.333 1000.636 1000.678" xml:space="preserve">
<g>
	<path fill-rule="evenodd" clip-rule="evenodd" fill="#272536" d="M788.181,912.481h-47.654c-52.637,0-95.31-42.673-95.31-95.31
		V531.243c0-35.188,19.288-65.58,47.657-82.09v-37.047c0-39.476,32-71.482,71.48-71.482c39.477,0,71.483,32.005,71.483,71.482
		v37.047c28.368,16.509,47.654,46.901,47.654,82.09v285.929C883.491,869.809,840.818,912.481,788.181,912.481L788.181,912.481z
		 M788.181,412.106c0-13.16-10.667-23.827-23.827-23.827c-13.157,0-23.827,10.667-23.827,23.827v23.828h47.654V412.106
		L788.181,412.106z M835.837,531.243c0-26.317-21.336-47.654-47.655-47.654h-47.654c-26.318,0-47.652,21.337-47.652,47.654v285.929
		c0,26.32,21.335,47.654,47.652,47.654h47.654c26.32,0,47.655-21.335,47.655-47.654V531.243L835.837,531.243z M764.354,817.171
		c-13.157,0-23.827-10.667-23.827-23.827V745.69c0-13.158,10.67-23.828,23.827-23.828c13.16,0,23.827,10.67,23.827,23.828v47.654
		C788.181,806.504,777.514,817.171,764.354,817.171L764.354,817.171z M502.253,912.481h-95.309h-47.655H263.98
		c-52.639,0-95.31-42.673-95.31-95.31v-95.309v-47.654V531.243c0-90.949,63.748-166.894,148.967-185.913
		c-3.82-8.749-6.003-18.376-6.003-28.533c0-31.079,19.953-57.257,47.655-67.105v-3.658c-39.956,1.847-76.076,17.616-103.888,42.759
		l-0.381-0.463c-3.863,2.703-8.307,4.64-13.379,4.64c-13.16,0-23.83-10.667-23.83-23.828c0-9.252,5.428-17.048,13.131-20.994
		c25.834-21.552,56.362-37.557,90.203-45.215c4.025-3.11,8.836-5.273,14.316-5.273h95.31c13.16,0,23.825,10.667,23.825,23.827
		c0,10.52-6.924,19.167-16.382,22.324v1.503h-7.444h-23.827v4.377c27.699,9.846,47.654,36.027,47.654,67.105
		c0,10.158-2.182,19.784-6.002,28.534c85.218,19.019,148.969,94.964,148.969,185.912v142.964v47.655v95.309
		C597.565,869.809,554.893,912.481,502.253,912.481L502.253,912.481z M383.117,292.97c-13.158,0-23.828,10.667-23.828,23.827
		c0,13.16,10.67,23.827,23.828,23.827c13.16,0,23.827-10.667,23.827-23.827C406.944,303.637,396.276,292.97,383.117,292.97
		L383.117,292.97z M549.908,721.862v-47.654V531.243c0-78.957-64.007-142.964-142.964-142.964h-47.655
		c-78.956,0-142.964,64.007-142.964,142.964v142.964v47.655v95.309c0,26.32,21.338,47.655,47.655,47.655h95.309h47.655h95.309
		c26.32,0,47.655-21.336,47.655-47.655V721.862L549.908,721.862z M454.598,817.171H311.634c-26.32,0-47.654-21.335-47.654-47.654
		V626.553c0-26.318,21.335-47.655,47.654-47.655h142.964c26.32,0,47.655,21.338,47.655,47.655v142.964
		C502.253,795.837,480.918,817.171,454.598,817.171L454.598,817.171z M430.771,626.553h-95.31c-13.16,0-23.827,10.669-23.827,23.827
		c0,13.16,10.667,23.827,23.827,23.827h95.31c13.16,0,23.827-10.667,23.827-23.827C454.598,637.222,443.931,626.553,430.771,626.553
		L430.771,626.553z M430.771,721.862h-95.31c-13.16,0-23.827,10.67-23.827,23.828c0,13.16,10.667,23.827,23.827,23.827h95.31
		c13.16,0,23.827-10.667,23.827-23.827C454.598,732.532,443.931,721.862,430.771,721.862L430.771,721.862z"/>
</g>
</svg>
