<?xml version="1.0" encoding="utf-8"?>
<!-- Generator: Adobe Illustrator 18.0.0, SVG Export Plug-In . SVG Version: 6.00 Build 0)  -->
<!DOCTYPE svg PUBLIC "-//W3C//DTD SVG 1.1//EN" "http://www.w3.org/Graphics/SVG/1.1/DTD/svg11.dtd">
<svg version="1.1" id="图形" xmlns="http://www.w3.org/2000/svg" xmlns:xlink="http://www.w3.org/1999/xlink" x="0px" y="0px"
	 viewBox="15.167 -16.333 1000.636 1000.678" enable-background="new 15.167 -16.333 1000.636 1000.678" xml:space="preserve">
<g>
	<path fill-rule="evenodd" clip-rule="evenodd" fill="#272536" d="M823.564,223.659H389.87h-2.41
		c-110.832,4.819-197.571,96.376-197.571,207.209c0,79.511,45.779,151.793,115.651,185.525V748.91
		c0,28.913,24.095,50.598,50.598,50.598h9.638c0,9.638-2.41,21.685-12.047,31.322c-16.866,24.095-57.826,36.142-113.243,36.142
		h-2.409c-12.047,0-24.094,9.637-24.094,24.094c0,14.456,9.638,24.094,24.094,24.094h2.409c72.283,0,125.29-19.275,151.793-55.417
		c16.866-21.684,21.685-43.369,21.685-60.235h2.409c28.913,0,50.598-24.094,50.598-50.598V626.03
		c50.598-19.275,91.558-55.416,115.652-103.604h238.532c33.731,0,62.644-28.913,62.644-62.645V283.894
		C883.799,250.162,857.296,223.659,823.564,223.659L823.564,223.659z M835.611,464.6c0,7.228-7.228,14.456-14.456,14.456h-248.17
		c0,0,0,0-2.409,0c-9.638,0-19.276,4.819-24.094,14.457c-19.276,48.188-60.236,81.92-108.424,96.376
		c-12.047,2.41-19.275,14.457-16.866,26.504v2.409v134.927c0,2.41-2.409,2.41-2.409,2.41h-62.645c-2.409,0-2.409-2.41-2.409-2.41
		V618.802c0-2.409,0-4.819-2.41-7.228c2.41-12.047-2.409-24.094-14.456-28.913c-60.235-24.094-101.195-84.329-101.195-149.383
		c0-89.149,72.282-161.431,161.43-161.431h424.057c7.228,0,14.456,7.228,14.456,14.456V464.6L835.611,464.6z"/>
	<path fill-rule="evenodd" clip-rule="evenodd" fill="#272536" d="M397.098,339.31c-50.598,0-93.967,40.961-93.967,93.968
		c0,53.007,40.96,93.967,93.967,93.967c50.598,0,93.967-40.96,93.967-93.967C491.065,380.271,450.105,339.31,397.098,339.31
		L397.098,339.31z M397.098,476.647c-24.094,0-45.779-19.275-45.779-45.779c0-26.503,19.276-45.779,45.779-45.779
		c24.094,0,45.779,19.276,45.779,45.779C442.877,457.372,423.602,476.647,397.098,476.647L397.098,476.647z"/>
</g>
</svg>
