<?xml version="1.0" encoding="utf-8"?>
<!-- Generator: Adobe Illustrator 18.0.0, SVG Export Plug-In . SVG Version: 6.00 Build 0)  -->
<!DOCTYPE svg PUBLIC "-//W3C//DTD SVG 1.1//EN" "http://www.w3.org/Graphics/SVG/1.1/DTD/svg11.dtd">
<svg version="1.1" id="图层_1" xmlns="http://www.w3.org/2000/svg" xmlns:xlink="http://www.w3.org/1999/xlink" x="0px" y="0px"
	 viewBox="0 0 500 500" enable-background="new 0 0 500 500" xml:space="preserve">
<path fill="#FFFFFF" d="M484.6,371.4c-4.9-25.5-18.1-73.9-40.3-124c-0.2-0.5-0.4-1.1-0.7-1.6c-7.2-16.2-15.4-32.6-24.6-48.4
	c-21.1-36.4-44.5-65-69.6-85c-31.1-24.8-64.8-36.5-100.2-34.9c-35,1.6-69.3,18.8-101.9,51.1c-24.9,24.7-49,58.3-71.7,100
	c-38.2,70.1-59,138.3-59.9,141.2c-2.5,8.3,2.2,17,10.4,19.5c1.5,0.5,3,0.7,4.5,0.7c6.7,0,12.9-4.4,14.9-11.1
	c0.1-0.4,5.8-19.1,16.6-46.6l126.9,42.9c-0.1,4.9-0.1,9.8-0.1,14.8c0,8.6,7,15.6,15.6,15.6c8.6,0,15.6-7,15.6-15.6
	c0-4.3,0-8.6,0.1-12.8l224.4-36.9c4.3,14.9,7.3,27.6,9.1,37c1.6,8.5,9.8,14,18.3,12.4C480.7,388.1,486.3,379.9,484.6,371.4z
	 M392,213.1c5.2,9,10.1,18.3,14.7,27.5l-17.6,2.6c-15.1-25.2-29-43.2-42.4-54.8c-15.1-13.1-30-18.2-44.3-15.1
	c-19.9,4.3-35.1,23.9-45.1,58.2c-3.6,12.2-5.8,24.1-7.2,32.5l-21.6,3.3c6.9-46.5,17-79.8,26.1-102.4c11.8-29.2,23.6-45.3,29.7-52.4
	C323.6,123.6,359.6,157.2,392,213.1z M355.5,248.3l-72.7,10.9c1.1-5.8,2.6-12.3,4.6-18.9c7.3-25,16-35.2,21.7-36.4
	c4-0.9,10.2,2,17.2,8.2C335.2,219.8,345,231.9,355.5,248.3z M248.3,108.9c-6.4,9.9-13.8,23.2-21.1,40.7
	c-11.2,26.8-20,58.2-26.4,93.3c-1.5,8.2-2.8,16.5-4,25.1l-91.5-28.6C137.7,181.2,187.9,113.4,248.3,108.9z M74.2,303.4
	c4.9-11.4,10.4-23.4,16.5-35.8l102.5,32c-1.3,13.9-2.3,28.2-3,43L74.2,303.4z M221.3,345.4c0.7-16.3,1.9-31.6,3.3-45.8l41.6-6.3
	c0.1,0,0.2,0,0.3,0l153.6-23.1c5.8,13.8,10.9,27.3,15.2,40.1L221.3,345.4z"/>
</svg>
