<?xml version="1.0" encoding="utf-8"?>
<!-- Generator: Adobe Illustrator 18.0.0, SVG Export Plug-In . SVG Version: 6.00 Build 0)  -->
<!DOCTYPE svg PUBLIC "-//W3C//DTD SVG 1.1//EN" "http://www.w3.org/Graphics/SVG/1.1/DTD/svg11.dtd">
<svg version="1.1" id="图层_1" xmlns="http://www.w3.org/2000/svg" xmlns:xlink="http://www.w3.org/1999/xlink" x="0px" y="0px"
	 viewBox="0 0 500 500" enable-background="new 0 0 500 500" xml:space="preserve">
<path fill="#FFFFFF" d="M475.3,376.8c0,0-28.1-35.2-70.4-35.2c-21.4,0-46.4,35.2-73.2,35.2c-27.2,0-56.2-35.2-85.3-35.2
	c-30.2,0-60.4,35.2-88.6,35.2c-26.3,0-50.6-35.2-71.5-35.2c-41.4,0-68.8,35.2-68.8,35.2c-9.7,0-17.6,7.9-17.6,17.6S7.9,412,17.6,412
	c0,0,27.4-35.2,68.8-35.2c20.9,0,45.3,35.2,71.5,35.2c28,0,58-35.2,88-35.2c30,0,60.1,35.2,88,35.2c25.8,0,49.8-35.2,70.4-35.2
	c42.6,0,71,35.2,71,35.2c9.7,0,17.6-7.9,17.6-17.6S485,376.8,475.3,376.8z"/>
<path fill="#FFFFFF" d="M475.3,464.8c0,0-28.1-35.2-70.4-35.2c-21.4,0-46.4,35.2-73.2,35.2c-27.2,0-56.2-35.2-85.3-35.2
	c-30.2,0-60.4,35.2-88.6,35.2c-26.3,0-50.6-35.2-71.5-35.2c-41.4,0-68.8,35.2-68.8,35.2c-9.7,0-17.6,7.9-17.6,17.6S7.9,500,17.6,500
	c0,0,27.4-35.2,68.8-35.2c20.9,0,45.3,35.2,71.5,35.2c28,0,58-35.2,88-35.2c30,0,60.1,35.2,88,35.2c25.8,0,49.8-35.2,70.4-35.2
	c42.6,0,71,35.2,71,35.2c9.7,0,17.6-7.9,17.6-17.6S485,464.8,475.3,464.8z"/>
<path fill="#FFFFFF" d="M17.6,324c0,0,27.4-35.2,68.8-35.2c20.9,0,45.3,35.2,71.5,35.2c28,0,58-35.2,88-35.2c30,0,60.1,35.2,88,35.2
	c25.8,0,49.8-35.2,70.4-35.2c42.6,0,71,35.2,71,35.2c9.7,0,17.6-7.9,17.6-17.6s-7.9-17.6-17.6-17.6c0,0-28.1-35.2-70.4-35.2
	c-15.9,0-33.7,19.3-52.8,29.4V77.5c0-19.4,15.8-35.2,35.2-35.2s35.2,15.8,35.2,35.2v52.8h35.2V77.5c0-38.9-31.5-70.4-70.4-70.4
	s-70.4,31.5-70.4,70.4v17.6H176V77.5c0-19.4,15.8-35.2,35.2-35.2H264V7.1h-52.8c-38.9,0-70.4,31.5-70.4,70.4v17.6v35.2v52.8v35.2
	v65.8c-19.8-9.4-38.2-30.6-54.4-30.6c-41.4,0-68.8,35.2-68.8,35.2c-9.7,0-17.6,7.9-17.6,17.6C0,316.1,7.9,324,17.6,324z M176,130.3
	h140.8v52.8H176V130.3z M316.9,218.3v67.2c-22.8-8.5-46.6-32-70.4-32s-47.6,21.6-70.4,30.9v-66.1H316.9z"/>
</svg>
