<?xml version="1.0" encoding="utf-8"?>
<!-- Generator: Adobe Illustrator 18.0.0, SVG Export Plug-In . SVG Version: 6.00 Build 0)  -->
<!DOCTYPE svg PUBLIC "-//W3C//DTD SVG 1.1//EN" "http://www.w3.org/Graphics/SVG/1.1/DTD/svg11.dtd">
<svg version="1.1" id="图层_1" xmlns="http://www.w3.org/2000/svg" xmlns:xlink="http://www.w3.org/1999/xlink" x="0px" y="0px"
	 viewBox="0 0 500 500" enable-background="new 0 0 500 500" xml:space="preserve">
<path fill="#FFFFFF" d="M137.5,225.1c-20.7,0-37.6-16.8-37.6-37.6s16.9-37.6,37.6-37.6s37.6,16.8,37.6,37.6S158.2,225.1,137.5,225.1
	z M137.5,174.9c-6.9,0-12.5,5.6-12.5,12.6s5.6,12.6,12.5,12.6s12.6-5.6,12.6-12.6S144.4,174.9,137.5,174.9z"/>
<path fill="#FFFFFF" d="M237.5,425c-6.9,0-12.5-5.6-12.5-12.5v-75c0-19.3,14.5-38.6,33.1-43.9l37.5-10.7l-81.5-54.3l-42.8,42.8
	c-2.4,2.4-5.5,3.6-8.8,3.6h-50.1c-6.9,0-12.5-5.6-12.5-12.5c0-6.9,5.6-12.5,12.5-12.5h44.9l46.4-46.4c4.2-4.2,10.8-4.9,15.8-1.6
	l91.7,61.1c13.7,9.2,13.7,19.9,13,24.2c-0.7,4.2-3.9,14.5-19.8,19L265,317.7c-7.8,2.3-15,11.7-15,19.9v75
	C250,419.4,244.4,425,237.5,425L237.5,425z"/>
<path fill="#FFFFFF" d="M375,500c-55.1,0-100-44.9-100-100s44.9-100,100-100s100,44.9,100,100S430.1,500,375,500z M375,325
	c-41.4,0-75,33.6-75,75s33.7,75,75,75s75-33.7,75-75S416.3,325,375,325z"/>
<path fill="#FFFFFF" d="M100,500C44.8,500,0,455.1,0,400s44.8-100,100-100s100,44.9,100,100S155.1,500,100,500z M100,325
	c-41.4,0-75,33.6-75,75s33.6,75,75,75s75-33.6,75-75S141.3,325,100,325z"/>
</svg>
