<?xml version="1.0" encoding="utf-8"?>
<!-- Generator: Adobe Illustrator 18.0.0, SVG Export Plug-In . SVG Version: 6.00 Build 0)  -->
<!DOCTYPE svg PUBLIC "-//W3C//DTD SVG 1.1//EN" "http://www.w3.org/Graphics/SVG/1.1/DTD/svg11.dtd">
<svg version="1.1" id="图层_1" xmlns="http://www.w3.org/2000/svg" xmlns:xlink="http://www.w3.org/1999/xlink" x="0px" y="0px"
	 viewBox="0 0 500 500" enable-background="new 0 0 500 500" xml:space="preserve">
<path fill="#FFFFFF" d="M438,127.2h-6c-3.7,0-7.3,0.7-10.6,1.9v-5.3c0-22.2-18-40.2-40.2-40.2h-1c-22.2,0-40.2,18-40.2,40.2v102.9
	H160V123.8c0-22.2-18-40.2-40.2-40.2h-1c-22.2,0-40.2,18-40.2,40.2v5.3c-3.3-1.2-6.8-1.9-10.5-1.9l-6,0c-16.7,0-30.2,13.5-30.2,30.2
	v198c0,16.7,13.5,30.2,30.2,30.2h6c3.7,0,7.3-0.7,10.5-1.9v7.5c0,22.2,18,40.2,40.2,40.2h1c22.2,0,40.2-18,40.2-40.2V289.1H340
	v102.1c0,22.2,18,40.2,40.2,40.2h1c22.2,0,40.2-18,40.2-40.2v-7.5c3.3,1.2,6.8,1.9,10.6,1.9h6c16.7,0,30.2-13.5,30.2-30.2v-198
	C468.1,140.7,454.6,127.2,438,127.2z M78.1,355.4c0,5.6-4.5,10.1-10.1,10.1l-6,0c-5.6,0-10.1-4.5-10.1-10.1v-198
	c0-5.6,4.5-10.1,10.1-10.1h6c5.6,0,10.1,4.5,10.1,10.1V355.4z M119.8,411.3h-1c-11.1,0-20.1-9-20.1-20.1l0-267.4
	c0-11.1,9-20.1,20.1-20.1h1c11.1,0,20.1,9,20.1,20.1v267.4C139.9,402.3,130.9,411.3,119.8,411.3z M339.5,269H160v-22.1h179.4
	L339.5,269L339.5,269z M401.3,391.2c0,11.1-9,20.1-20.1,20.1h-1c-11.1,0-20.1-9-20.1-20.1V123.8c0-11.1,9-20.1,20.1-20.1h1
	c11.1,0,20.1,9,20.1,20.1V391.2z M448,355.4c0,5.6-4.5,10.1-10.1,10.1l-6,0c-5.6,0-10.1-4.5-10.1-10.1v-198
	c0-5.6,4.5-10.1,10.1-10.1h6c5.6,0,10.1,4.5,10.1,10.1L448,355.4z"/>
</svg>
