<?xml version="1.0" encoding="utf-8"?>
<!-- Generator: Adobe Illustrator 18.0.0, SVG Export Plug-In . SVG Version: 6.00 Build 0)  -->
<!DOCTYPE svg PUBLIC "-//W3C//DTD SVG 1.1//EN" "http://www.w3.org/Graphics/SVG/1.1/DTD/svg11.dtd">
<svg version="1.1" id="图层_1" xmlns="http://www.w3.org/2000/svg" xmlns:xlink="http://www.w3.org/1999/xlink" x="0px" y="0px"
	 viewBox="0 0 500 500" enable-background="new 0 0 500 500" xml:space="preserve">
<path fill="#FFFFFF" d="M306.6,54c-9.2-1.7-18.1,4.1-20.3,13.2c-3.5,14.3-18.8,24.6-36.3,24.6c-17.5,0-32.7-10.3-36.3-24.6
	c-2.2-9.1-11.1-14.8-20.3-13.2C98.1,71.4,36.5,132.5,32.7,213.5c-0.2,4.8,1.5,9.5,4.9,13c3.3,3.5,8,5.5,12.8,5.5h64.3v167.2
	c0,26,21.1,47.1,47.1,47.1h62.1c9.8,0,17.7-7.9,17.7-17.7v-31.2h16.9v31.2c0,9.8,7.9,17.7,17.7,17.7h62.1c26,0,47.1-21.1,47.1-47.1
	V232h64.3c4.8,0,9.5-2,12.8-5.5c3.3-3.5,5.1-8.2,4.9-13C463.5,132.5,401.9,71.4,306.6,54z M338.2,411h-44.4v-22.4
	c0-14.6-11.9-26.4-26.4-26.4h-34.7c-14.6,0-26.4,11.9-26.4,26.4V411h-44.4c-6.5,0-11.7-5.3-11.7-11.7v-88.8H350v88.8
	C350,405.7,344.7,411,338.2,411z M385.2,196.7v-4.6c0-9.8-7.9-17.7-17.7-17.7s-17.7,7.9-17.7,17.7v46.3c0,0.2,0,0.3,0,0.5v36.3
	l-199.9,0V239c0-0.2,0.1-0.4,0.1-0.6V192c0-9.8-7.9-17.7-17.7-17.7s-17.7,7.9-17.7,17.7v4.6H70.2c10.1-51.5,51.8-89.5,115.6-105
	c12.2,21.4,36.5,35.4,64.1,35.4c27.7,0,52-13.9,64.2-35.4c63.8,15.4,105.5,53.5,115.6,105H385.2z"/>
</svg>
