<?xml version="1.0" encoding="utf-8"?>
<!-- Generator: Adobe Illustrator 18.0.0, SVG Export Plug-In . SVG Version: 6.00 Build 0)  -->
<!DOCTYPE svg PUBLIC "-//W3C//DTD SVG 1.1//EN" "http://www.w3.org/Graphics/SVG/1.1/DTD/svg11.dtd">
<svg version="1.1" id="图层_1" xmlns="http://www.w3.org/2000/svg" xmlns:xlink="http://www.w3.org/1999/xlink" x="0px" y="0px"
	 viewBox="0 0 500 500" enable-background="new 0 0 500 500" xml:space="preserve">
<path fill="#FFFFFF" d="M394.6,110.4c-38.7-38.7-90.2-60.1-145-60.1c-54.8,0-106.3,21.3-145,60.1c-38.7,38.7-60.1,90.2-60.1,145
	c0,54.8,21.3,106.3,60.1,145c38.7,38.7,90.2,60.1,145,60.1c54.8,0,106.3-21.3,145-60.1c38.7-38.7,60.1-90.2,60.1-145
	C454.7,200.6,433.4,149.1,394.6,110.4z M428,255.4c0-1.2-0.1-2.3-0.2-3.5c-43.6,0.9-84.7,16.9-117.4,45.3l-42.3-42.3l116.2-116.2
	C412.4,171.1,428,212,428,255.4L428,255.4z M310.4,335l55.4,55.4c-26.4,22.8-58.4,37-92.7,41.5C274.3,397.3,286.7,363,310.4,335
	L310.4,335z M249.2,235.9l-41.3-41.3c29.2-33.7,44.1-75.4,45.1-117.4c41.7,0.7,81,15.7,112.4,42.6L249.2,235.9L249.2,235.9z
	 M236.1,77.7c-3.3,0.3-6.6,0.6-9.9,1.1C229.5,78.3,232.8,78,236.1,77.7z M226.3,78.8c-1.2,34.6-13.6,68.9-37.3,97l-55.4-55.4
	c-3.4,2.9-6.7,5.8-9.9,9C151.7,101.2,187.5,83.8,226.3,78.8L226.3,78.8z M114.6,139.2l55.5,55.5c-27.3,23.1-61.1,36.1-97,37.4
	C77.5,197.7,91.8,165.6,114.6,139.2L114.6,139.2z M71.4,255.4c0,1.2,0.1,2.3,0.2,3.5c43.6-0.9,84.7-16.9,117.4-45.3l41.3,41.3
	L114.1,371c3,3.6,6.1,7.1,9.5,10.5C89.9,347.8,71.4,303,71.4,255.4z M73.1,232c-0.4,3.2-0.7,6.5-1,9.8
	C72.3,238.6,72.6,235.3,73.1,232z M133,389.9l116.2-116.2l42.3,42.3c-29.2,33.7-44.1,75.4-45,117.4c1.1,0,2.2,0.2,3.2,0.2
	C206.3,433.7,165.4,418.1,133,389.9L133,389.9z M273.1,432c-3.3,0.4-6.6,0.8-9.9,1C266.5,432.7,269.8,432.4,273.1,432z M384.7,371.5
	l-55.5-55.5c27.3-23.1,61.1-36.1,97-37.4C421.8,313.1,407.5,345.1,384.7,371.5L384.7,371.5z M427.3,268.9c-0.2,3.3-0.6,6.5-1,9.8
	C426.7,275.4,427,272.2,427.3,268.9z"/>
</svg>
