<?xml version="1.0" encoding="utf-8"?>
<!-- Generator: Adobe Illustrator 19.0.0, SVG Export Plug-In . SVG Version: 6.00 Build 0)  -->
<svg version="1.1" id="图层_1" xmlns="http://www.w3.org/2000/svg" xmlns:xlink="http://www.w3.org/1999/xlink" x="0px" y="0px"
	 viewBox="0 0 1024 1024" style="enable-background:new 0 0 1024 1024;" xml:space="preserve">
<style type="text/css">
	.st0{fill:#8C909B;}
</style>
<g id="XMLID_15_">
	<g id="XMLID_77_">
		<path id="XMLID_83_" class="st0" d="M82.1,377.9v265.5c0,24,19.6,44.1,43.9,44.1h44.6V333.8h-44.6
			C102.2,333.8,82.1,353.5,82.1,377.9z M922.4,333.8h-44.6v353.7h44.6c23.7,0,43.9-19.7,43.9-44.1V377.9
			C966.3,353.8,946.7,333.8,922.4,333.8z M789.4,201.2H258.9c-24.4,0-44.2,19.8-44.2,44.2v530.5c0,24.4,19.8,44.2,44.2,44.2h530.5
			c24.4,0,44.2-19.8,44.2-44.2V245.4C833.6,221,813.9,201.2,789.4,201.2z M369.4,333.8c36.6,0,66.3,29.7,66.3,66.3
			c0,36.7-29.7,66.3-66.3,66.3c-36.6,0-66.3-29.7-66.3-66.3C303.1,363.5,332.8,333.8,369.4,333.8z M258.9,731.7
			c0,0,36.2-181.3,108.4-181.3c72.2,0,63.6,61.5,117.8,61.5c54.3,0,76.7-189.6,149.6-189.6c72.9,0,154.6,309.5,154.6,309.5H258.9z"
			/>
	</g>
</g>
</svg>
