<?xml version="1.0" encoding="utf-8"?>
<!-- Generator: Adobe Illustrator 19.0.0, SVG Export Plug-In . SVG Version: 6.00 Build 0)  -->
<svg version="1.1" id="图层_1" xmlns="http://www.w3.org/2000/svg" xmlns:xlink="http://www.w3.org/1999/xlink" x="0px" y="0px"
	 viewBox="0 0 1024 1024" style="enable-background:new 0 0 1024 1024;" xml:space="preserve">
<style type="text/css">
	.st0{fill:#8C909B;}
</style>
<g id="XMLID_13_">
	<g id="XMLID_76_">
		<path id="XMLID_78_" class="st0" d="M138.2,250.1c145,0.3,289.9,0.1,434.9,0.1c75,0,252.6,0.2,327.6-0.1
			c30.9-0.1,52.5-13.2,61.8-36.1c15.6-38.6-13.5-75.6-61-75.8c-110.4-0.5-323.4-0.1-433.8-0.1c-109.6,0-219.1-0.1-328.7,0.1
			c-33.8,0.1-55.6,13.9-64.1,39.5C62,215.8,91.3,250,138.2,250.1z M901.5,578.3c-110.4-0.5-323.4-0.1-433.8-0.1
			c-109.6,0-219.1-0.1-328.7,0.1c-33.8,0.1-55.6,13.9-64.1,39.5c-12.8,38.2,16.5,72.4,63.3,72.5c145,0.3,289.9,0.1,434.9,0.1
			c75,0,252.6,0.2,327.6-0.1c30.9-0.1,52.5-13.2,61.8-36.1C978.1,615.5,949,578.5,901.5,578.3z M901.5,800.7
			c-110.4-0.5-323.4-0.1-433.8-0.1c-109.6,0-219.1-0.1-328.7,0.1c-33.8,0.1-55.6,13.9-64.1,39.5c-12.8,38.2,16.5,72.4,63.3,72.5
			c145,0.3,289.9,0.1,434.9,0.1c75,0,252.6,0.2,327.6-0.1c30.9-0.1,52.5-13.2,61.8-36.1C978.1,837.9,949,800.9,901.5,800.7z
			 M901.5,356c-110.4-0.5-74.3-0.1-184.7-0.1c-109.6,0-9.1-0.1-118.7,0.1c-33.8,0.1-55.6,13.9-64.1,39.5
			c-12.8,38.2,16.5,72.4,63.3,72.5c145,0.3,16.4,0.1,161.4,0.1c75,0,67,0.2,142-0.1c30.9-0.1,52.5-13.2,61.8-36.1
			C978.1,393.2,949,356.2,901.5,356z M82.1,529.8h417.6V287.7H82.1V529.8z"/>
	</g>
</g>
</svg>
