<?xml version="1.0" encoding="utf-8"?>
<!-- Generator: Adobe Illustrator 19.0.0, SVG Export Plug-In . SVG Version: 6.00 Build 0)  -->
<svg version="1.1" id="图层_1" xmlns="http://www.w3.org/2000/svg" xmlns:xlink="http://www.w3.org/1999/xlink" x="0px" y="0px"
	 viewBox="0 0 1024 1024" style="enable-background:new 0 0 1024 1024;" xml:space="preserve">
<style type="text/css">
	.st0{fill:#040000;}
</style>
<path class="st0" d="M187.8,804.9c7.9-32.2,27.9-77.4,39.8-109.7c8-29,4.1-32.2,27.9-48.4l394.7-319.4
	c71.8-54.9,127.6-125.9,207.3-64.6c79.7,61.3,0,103.3-79.7,167.8L423,711.4c-51.9,41.9-43.9,45.1-103.6,58
	C279.5,782.4,227.6,798.5,187.8,804.9L187.8,804.9z M965.1,330.5V295c-7.9-12.9-11.9-29.1-19.9-42c-43.9-54.8-91.7-61.3-119.6-74.2
	h-51.9c-23.8,9.7-43.9,12.9-67.7,25.8C678.1,220.8,323.3,508,267.5,553.1c-19.9,16.2-87.7,64.6-95.6,80.7
	c-12,29.1-47.9,135.5-67.8,180.7c-7.9,19.4-23.8,48.4,0,61.3c19.9,16.2,115.6-16.1,143.6-25.8c35.8-6.4,123.5-25.8,147.5-38.7
	l342.8-267.8c15.9-13,31.9-29.1,47.8-42c27.9-19.4,127.6-96.8,147.5-116.2C949.2,362.7,953.3,349.8,965.1,330.5L965.1,330.5z"/>
</svg>
