<?xml version="1.0" encoding="utf-8"?>
<!-- Generator: Adobe Illustrator 19.0.0, SVG Export Plug-In . SVG Version: 6.00 Build 0)  -->
<svg version="1.1" id="图层_1" xmlns="http://www.w3.org/2000/svg" xmlns:xlink="http://www.w3.org/1999/xlink" x="0px" y="0px"
	 viewBox="0 0 1024 1024" style="enable-background:new 0 0 1024 1024;" xml:space="preserve">
<style type="text/css">
	.st0{fill-rule:evenodd;clip-rule:evenodd;fill:#5184C4;}
</style>
<g id="XMLID_7_">
	<g id="XMLID_55_">
		<path id="XMLID_56_" class="st0" d="M526.7,101.6c-226.7,0-410.4,183.8-410.4,410.4s183.8,410.4,410.4,410.4
			S937.2,738.7,937.2,512S753.4,101.6,526.7,101.6z M526.7,871.1c-198.3,0-359.1-160.8-359.1-359.1c0-198.3,160.8-359.1,359.1-359.1
			c198.3,0,359.1,160.8,359.1,359.1C885.9,710.3,725.1,871.1,526.7,871.1z M511.2,738.7h60.5v-66h-60.5V738.7z M641.8,296.2
			c-22.9-22-54.5-33-94.8-33c-36.7,0-67.8,12.4-93.4,37.1c-25.7,24.7-39.4,62.8-41.2,114.1h63.2c0-34.8,6.9-60,20.6-75.6
			c13.7-15.5,30.7-23.4,50.8-23.4c20.1,0,35.7,6,46.7,17.9c11,11.9,16.5,29.8,16.5,53.6c0,12.8-2.7,26.1-8.2,39.9
			c-5.5,13.7-15.6,27.1-30.2,39.9c-20.2,18.3-34.4,35.3-42.6,50.8c-8.2,15.6-12.4,31.6-12.4,48.1V593h49.5v-19.2
			c0-5.5,3.7-15.5,11-30.2c7.3-14.6,20.1-29.3,38.5-44c18.3-14.6,33-32,44-52.2c11-20.1,16.5-42.1,16.5-66
			C676.2,346.6,664.7,318.2,641.8,296.2z"/>
	</g>
</g>
</svg>
