<?xml version="1.0" encoding="utf-8"?>
<!-- Generator: Adobe Illustrator 19.0.0, SVG Export Plug-In . SVG Version: 6.00 Build 0)  -->
<svg version="1.1" id="图层_1" xmlns="http://www.w3.org/2000/svg" xmlns:xlink="http://www.w3.org/1999/xlink" x="0px" y="0px"
	 viewBox="0 0 1024 1024" style="enable-background:new 0 0 1024 1024;" xml:space="preserve">
<style type="text/css">
	.st0{fill:#8C909B;}
</style>
<g id="XMLID_19_">
	<g id="XMLID_123_">
		<path id="XMLID_124_" class="st0" d="M413.6,70.9H137.3c-33.2,0-55.3,22.1-55.3,55.3v276.3c0,33.2,22.1,55.3,55.3,55.3h276.3
			c33.2,0,55.3-22.1,55.3-55.3V126.2C468.9,93,446.8,70.9,413.6,70.9z M358.4,336.2c0,5.5-5.5,11.1-11.1,11.1H203.7
			c-5.5,0-11-5.5-11-11.1V192.5c0-5.5,5.5-11.1,11-11.1h143.7c5.5,0,11.1,5.5,11.1,11.1V336.2z M911,70.9H634.7
			c-33.2,0-55.3,22.1-55.3,55.3v276.3c0,33.2,22.1,55.3,55.3,55.3H911c33.2,0,55.3-22.1,55.3-55.3V126.2
			C966.3,93,944.2,70.9,911,70.9z M855.7,336.2c0,5.5-5.5,11.1-11.1,11.1H701c-5.5,0-11-5.5-11-11.1V192.5c0-5.5,5.5-11.1,11-11.1
			h143.7c5.5,0,11.1,5.5,11.1,11.1V336.2z M413.6,568.3H137.3c-33.2,0-55.3,22.1-55.3,55.3v276.3c0,33.2,22.1,55.3,55.3,55.3h276.3
			c33.2,0,55.3-22.1,55.3-55.3V623.5C468.9,590.4,446.8,568.3,413.6,568.3z M358.4,833.5c0,5.5-5.5,11-11.1,11H203.7
			c-5.5,0-11-5.5-11-11V689.8c0-5.5,5.5-11.1,11-11.1h143.7c5.5,0,11.1,5.5,11.1,11.1V833.5z M911,623.5H634.7
			c-33.2,0-55.3,22.1-55.3,55.3c0,33.2,22.1,55.3,55.3,55.3H911c33.2,0,55.3-22.1,55.3-55.3C966.3,645.6,944.2,623.5,911,623.5z
			 M911,789.3H634.7c-33.2,0-55.3,22.1-55.3,55.3c0,33.2,22.1,55.3,55.3,55.3H911c33.2,0,55.3-22.1,55.3-55.3
			C966.3,811.4,944.2,789.3,911,789.3z"/>
	</g>
</g>
</svg>
