<?xml version="1.0" encoding="utf-8"?>
<!-- Generator: Adobe Illustrator 19.0.0, SVG Export Plug-In . SVG Version: 6.00 Build 0)  -->
<svg version="1.1" id="图层_1" xmlns="http://www.w3.org/2000/svg" xmlns:xlink="http://www.w3.org/1999/xlink" x="0px" y="0px"
	 viewBox="0 0 1024 1024" style="enable-background:new 0 0 1024 1024;" xml:space="preserve">
<style type="text/css">
	.st0{fill:#8C909B;}
</style>
<g id="XMLID_14_">
	<g id="XMLID_65_">
		<path id="XMLID_66_" class="st0" d="M966.7,762V650.6c0-20.4-16.7-37.1-37.3-37.1H213.6v185.6h715.8
			C950,799.1,966.7,782.5,966.7,762z M519.3,539.3V427.9c0-20.4-16.8-37.1-37.3-37.1H213.6v185.7h268.3
			C502.5,576.5,519.3,559.8,519.3,539.3z M295.4,316.5V205.1c0-20.5-16.5-37.1-37.2-37.1h-44.6v185.7h44.6
			C278.9,353.7,295.4,337.1,295.4,316.5z M310,826.6c-173.8,0-179.2,12-179.2-121.5c0-190.3,0-537.1,0-537.1h-59v538
			c0,185-0.9,178.8,239.1,179.3c92.5,0,655.8,0,655.8,0h1.8v-58.8C968.6,826.6,556.1,826.6,310,826.6z"/>
	</g>
</g>
</svg>
