<?xml version="1.0" encoding="utf-8"?>
<!-- Generator: Adobe Illustrator 19.0.0, SVG Export Plug-In . SVG Version: 6.00 Build 0)  -->
<svg version="1.1" id="图层_1" xmlns="http://www.w3.org/2000/svg" xmlns:xlink="http://www.w3.org/1999/xlink" x="0px" y="0px"
	 viewBox="0 0 1024 1024" style="enable-background:new 0 0 1024 1024;" xml:space="preserve">
<style type="text/css">
	.st0{fill:#8C909B;}
</style>
<g id="XMLID_2_">
	<g id="XMLID_27_">
		<path id="XMLID_30_" class="st0" d="M747.8,792.1H315.7c-88.1,0-83.1,13.7-83.1,83.1v1.7c0,67-9.7,83.1,83.1,83.1h432.1
			c83.4,0,83.1-20.8,83.1-83.1v-1.7C830.9,805.8,821.8,792.1,747.8,792.1z M854.9,217.6L743,329.4l60.6,98.9l-66.5,128.3
			l-68.6-271.4l85.7-108.5L642.4,64.9L530.5,176.8l75.9,105.4l-87.2,244.2l-88.4-244.7l74-104.8L393,64.9L281.2,176.8l93,110
			l-46,268.7l-84.3-132l51.8-94.1L183.7,217.6L71.8,329.4l111.9,111.9c0,0,12.6-0.9,18.7-1.9l42.8,252c9.7,36.7,43,62.2,80.9,62.2
			h388.7c36.3,0,68.4-23.4,79.6-57.9l42.3-256.2c5.9,1,18.2,1.8,18.2,1.8l111.9-111.9L854.9,217.6z"/>
	</g>
</g>
</svg>
