<?xml version="1.0" encoding="utf-8"?>
<!-- Generator: Adobe Illustrator 19.0.0, SVG Export Plug-In . SVG Version: 6.00 Build 0)  -->
<svg version="1.1" id="图层_1" xmlns="http://www.w3.org/2000/svg" xmlns:xlink="http://www.w3.org/1999/xlink" x="0px" y="0px"
	 viewBox="0 0 1024 1024" style="enable-background:new 0 0 1024 1024;" xml:space="preserve">
<style type="text/css">
	.st0{fill-rule:evenodd;clip-rule:evenodd;fill:#040000;}
</style>
<g id="XMLID_7_">
	<g id="XMLID_22_">
		<path id="XMLID_24_" class="st0" d="M630.4,522L953,199.4c16.2-16.2,16.2-42.5,0-58.7L894.3,82c-16.2-16.2-42.5-16.2-58.7,0
			L513.1,404.6L190.5,82c-16.2-16.2-42.5-16.2-58.7,0l-58.7,58.7c-16.2,16.2-16.2,42.5,0,58.7L395.7,522L73.1,844.6
			C57,860.7,57,887,73.1,903.2l58.7,58.6c16.2,16.2,42.5,16.2,58.7,0l322.6-322.6l322.6,322.6c16.2,16.2,42.5,16.2,58.7,0l58.7-58.6
			c16.2-16.2,16.2-42.5,0-58.7L630.4,522z"/>
	</g>
</g>
</svg>
