<?xml version="1.0" encoding="utf-8"?>
<!-- Generator: Adobe Illustrator 19.0.0, SVG Export Plug-In . SVG Version: 6.00 Build 0)  -->
<svg version="1.1" id="图层_1" xmlns="http://www.w3.org/2000/svg" xmlns:xlink="http://www.w3.org/1999/xlink" x="0px" y="0px"
	 viewBox="0 0 1024 1024" style="enable-background:new 0 0 1024 1024;" xml:space="preserve">
<style type="text/css">
	.st0{fill:#8C909B;}
</style>
<path id="XMLID_5_" class="st0" d="M945,827.7l-209.3-211c-2.4-2.4-5.1-4.3-7.7-6.3c35.3-54.7,56-119.8,56-190
	c0-192.8-155-349.1-346.3-349.1c-191.2,0-346.2,156.3-346.2,349.1c0,192.8,155.1,349.1,346.2,349.1c69.6,0,134.3-20.9,188.6-56.5
	c2,2.6,3.8,5.3,6.2,7.7l209.3,211.1c14.3,14.4,32.9,21.5,51.5,21.5c18.6,0,37.3-7.2,51.6-21.5C973.4,902.9,973.4,856.4,945,827.7
	 M437.7,659.1c-130.6,0-236.9-107.2-236.9-238.8c0-131.6,106.3-238.8,236.9-238.8c130.6,0,236.9,107.2,236.9,238.8
	C674.6,551.9,568.3,659.1,437.7,659.1"/>
</svg>
