<?xml version="1.0" encoding="utf-8"?>
<!-- Generator: Adobe Illustrator 19.0.0, SVG Export Plug-In . SVG Version: 6.00 Build 0)  -->
<svg version="1.1" id="图层_1" xmlns="http://www.w3.org/2000/svg" xmlns:xlink="http://www.w3.org/1999/xlink" x="0px" y="0px"
	 viewBox="0 0 1024 1024" style="enable-background:new 0 0 1024 1024;" xml:space="preserve">
<style type="text/css">
	.st0{fill:#8C909B;}
</style>
<path id="XMLID_10_" class="st0" d="M911.6,880.1H146.2c-30.2,0-54.7-24.9-54.7-55.5V158c0-30.7,24.5-55.5,54.7-55.5h765.4
	c30.2,0,54.7,24.9,54.7,55.5v666.5C966.3,855.2,941.8,880.1,911.6,880.1z M869.1,224c0-13.4-10.9-24.3-24.3-24.3H213
	c-13.4,0-24.3,10.9-24.3,24.3v534.6c0,13.4,10.9,24.3,24.3,24.3h631.8c13.4,0,24.3-10.9,24.3-24.3V224z M771.9,556.1h-486
	c-12.7,0-32.4-21.3-32.4-34.2v-234c0-12.9,10.3-23.4,23-23.4h504.9c12.7,0,23,10.5,23,23.4v234C804.3,534.8,784.5,556.1,771.9,556.1
	z M707.1,361.7H350.7v97.2h356.4V361.7z M278.5,653.3h500.7c13.8,0,25,14.5,25,32.4c0,17.9-11.2,32.4-25,32.4H278.5
	c-13.8,0-25-14.5-25-32.4C253.5,667.8,264.7,653.3,278.5,653.3z"/>
</svg>
