<?xml version="1.0" encoding="utf-8"?>
<!-- Generator: Adobe Illustrator 18.0.0, SVG Export Plug-In . SVG Version: 6.00 Build 0)  -->
<!DOCTYPE svg PUBLIC "-//W3C//DTD SVG 1.1//EN" "http://www.w3.org/Graphics/SVG/1.1/DTD/svg11.dtd">
<svg version="1.1" id="图形" xmlns="http://www.w3.org/2000/svg" xmlns:xlink="http://www.w3.org/1999/xlink" x="0px" y="0px"
	 viewBox="0 0 500 500" enable-background="new 0 0 500 500" xml:space="preserve">
<g>
	<path fill="#FFFFFF" d="M426.2,150.2h-44v-35.5c0-16.2-8.2-32.9-24.4-32.9h-176c-16.2,0-34,16.7-34,32.9v35.5h-34.4
		c-16.2,0-34,16.8-34,33v107.5c0,16.2,17.8,25.5,34,25.5h34.4v109.6c0,16.2,17.8,25.4,34,25.4h176c16.2,0,24.4-9.2,24.4-25.4V316.3
		h44c16.2,0,24.8-9.4,24.8-25.5V183.2C451,167,442.4,150.2,426.2,150.2L426.2,150.2 M167.3,114.7c0-5.4,9.1-13.8,14.5-13.8h176
		c5.4,0,4.9,8.4,4.9,13.8v35.5H167.3V114.7L167.3,114.7 M362.6,422.2c0,5.4-4.2,10-9.6,10H177c-5.4,0-9.7-4.6-9.7-10v-145
		c0-5.4,4.3-9.8,9.7-9.8h176c5.4,0,9.6,4.4,9.6,9.8L362.6,422.2L362.6,422.2 M431,290.7c0,5.4,0.6,6-4.8,6h-44V281
		c0-16.2-8.2-33.1-24.4-33.1h-176c-16.2,0-34,16.9-34,33.1v15.8h-34.4c-5.4,0-14.4-0.6-14.4-6V183.2c0-5.4,9-13.4,14.4-13.4h312.9
		c5.4,0,4.8,8,4.8,13.4L431,290.7L431,290.7 M334.4,310.8H197.5c-5.4,0-9.8,4.1-9.8,9.6c0,5.4,4.4,9.6,9.8,9.6h136.9
		c5.4,0,9.8-4.1,9.8-9.6C344.2,314.9,339.8,310.8,334.4,310.8L334.4,310.8 M334.4,367.2H197.5c-5.4,0-9.8,4.4-9.8,9.8
		c0,5.4,4.4,9.8,9.8,9.8h136.9c5.4,0,9.8-4.4,9.8-9.8C344.2,371.6,339.8,367.2,334.4,367.2L334.4,367.2"/>
</g>
</svg>
