<?xml version="1.0" encoding="utf-8"?>
<!-- Generator: Adobe Illustrator 18.0.0, SVG Export Plug-In . SVG Version: 6.00 Build 0)  -->
<!DOCTYPE svg PUBLIC "-//W3C//DTD SVG 1.1//EN" "http://www.w3.org/Graphics/SVG/1.1/DTD/svg11.dtd">
<svg version="1.1" id="图形" xmlns="http://www.w3.org/2000/svg" xmlns:xlink="http://www.w3.org/1999/xlink" x="0px" y="0px"
	 viewBox="0 0 500 500" enable-background="new 0 0 500 500" xml:space="preserve">
<g>
	<path fill="#FFFFFF" d="M401.4,447.8h-23.8c-26.3,0-47.6-21.3-47.6-47.6V257.3c0-17.6,9.6-32.8,23.8-41v-18.5
		c0-19.7,16-35.7,35.7-35.7c19.7,0,35.7,16,35.7,35.7v18.5c14.2,8.2,23.8,23.4,23.8,41v142.9C449,426.4,427.7,447.8,401.4,447.8
		L401.4,447.8z M401.4,197.7c0-6.6-5.3-11.9-11.9-11.9c-6.6,0-11.9,5.3-11.9,11.9v11.9h23.8L401.4,197.7L401.4,197.7z M425.2,257.3
		c0-13.1-10.7-23.8-23.8-23.8h-23.8c-13.2,0-23.8,10.7-23.8,23.8v142.9c0,13.2,10.7,23.8,23.8,23.8h23.8c13.2,0,23.8-10.7,23.8-23.8
		L425.2,257.3L425.2,257.3z M389.5,400.1c-6.6,0-11.9-5.3-11.9-11.9v-23.8c0-6.6,5.3-11.9,11.9-11.9c6.6,0,11.9,5.3,11.9,11.9v23.8
		C401.4,394.8,396.1,400.1,389.5,400.1L389.5,400.1z M258.6,447.8h-47.6h-23.8h-47.6c-26.3,0-47.6-21.3-47.6-47.6v-47.6v-23.8v-71.4
		c0-45.4,31.9-83.4,74.4-92.9c-1.9-4.4-3-9.2-3-14.3c0-15.5,10-28.6,23.8-33.5v-1.8c-20,0.9-38,8.8-51.9,21.4l-0.2-0.2
		c-1.9,1.4-4.2,2.3-6.7,2.3c-6.6,0-11.9-5.3-11.9-11.9c0-4.6,2.7-8.5,6.6-10.5c12.9-10.8,28.2-18.8,45.1-22.6c2-1.6,4.4-2.6,7.2-2.6
		h47.6c6.6,0,11.9,5.3,11.9,11.9c0,5.3-3.5,9.6-8.2,11.2v0.8h-3.7h-11.9v2.2c13.8,4.9,23.8,18,23.8,33.5c0,5.1-1.1,9.9-3,14.3
		c42.6,9.5,74.4,47.4,74.4,92.9v71.4v23.8v47.6C306.2,426.4,284.9,447.8,258.6,447.8L258.6,447.8z M199,138.2
		c-6.6,0-11.9,5.3-11.9,11.9S192.5,162,199,162c6.6,0,11.9-5.3,11.9-11.9S205.6,138.2,199,138.2L199,138.2z M282.4,352.5v-23.8
		v-71.4c0-39.5-32-71.4-71.4-71.4h-23.8c-39.5,0-71.4,32-71.4,71.4v71.4v23.8v47.6c0,13.2,10.7,23.8,23.8,23.8h47.6h23.8h47.6
		c13.2,0,23.8-10.7,23.8-23.8V352.5L282.4,352.5z M234.7,400.1h-71.4c-13.2,0-23.8-10.7-23.8-23.8v-71.4c0-13.2,10.7-23.8,23.8-23.8
		h71.4c13.2,0,23.8,10.7,23.8,23.8v71.4C258.6,389.5,247.9,400.1,234.7,400.1L234.7,400.1z M222.8,304.9h-47.6
		c-6.6,0-11.9,5.3-11.9,11.9c0,6.6,5.3,11.9,11.9,11.9h47.6c6.6,0,11.9-5.3,11.9-11.9C234.7,310.2,229.4,304.9,222.8,304.9
		L222.8,304.9z M222.8,352.5h-47.6c-6.6,0-11.9,5.3-11.9,11.9c0,6.6,5.3,11.9,11.9,11.9h47.6c6.6,0,11.9-5.3,11.9-11.9
		C234.7,357.8,229.4,352.5,222.8,352.5L222.8,352.5z"/>
</g>
</svg>
