<?xml version="1.0" encoding="utf-8"?>
<!-- Generator: Adobe Illustrator 18.0.0, SVG Export Plug-In . SVG Version: 6.00 Build 0)  -->
<!DOCTYPE svg PUBLIC "-//W3C//DTD SVG 1.1//EN" "http://www.w3.org/Graphics/SVG/1.1/DTD/svg11.dtd">
<svg version="1.1" id="图形" xmlns="http://www.w3.org/2000/svg" xmlns:xlink="http://www.w3.org/1999/xlink" x="0px" y="0px"
	 viewBox="0 0 500 500" enable-background="new 0 0 500 500" xml:space="preserve">
<g>
	<path fill="#FFFFFF" d="M419.1,103.6H202.4h-1.2c-55.4,2.4-98.7,48.2-98.7,103.5c0,39.7,22.9,75.8,57.8,92.7V366
		c0,14.4,12,25.3,25.3,25.3h4.8c0,4.8-1.2,10.8-6,15.7c-8.4,12-28.9,18.1-56.6,18.1h-1.2c-6,0-12,4.8-12,12c0,7.2,4.8,12,12,12h1.2
		c36.1,0,62.6-9.6,75.8-27.7c8.4-10.8,10.8-21.7,10.8-30.1h1.2c14.4,0,25.3-12,25.3-25.3v-61.4c25.3-9.6,45.7-27.7,57.8-51.8h119.2
		c16.9,0,31.3-14.4,31.3-31.3v-87.9C449.2,116.8,436,103.6,419.1,103.6L419.1,103.6z M425.1,224c0,3.6-3.6,7.2-7.2,7.2h-124
		c0,0,0,0-1.2,0c-4.8,0-9.6,2.4-12,7.2c-9.6,24.1-30.1,40.9-54.2,48.2c-6,1.2-9.6,7.2-8.4,13.2v1.2v67.4c0,1.2-1.2,1.2-1.2,1.2
		h-31.3c-1.2,0-1.2-1.2-1.2-1.2V301c0-1.2,0-2.4-1.2-3.6c1.2-6-1.2-12-7.2-14.4c-30.1-12-50.6-42.1-50.6-74.6
		c0-44.5,36.1-80.7,80.7-80.7h211.9c3.6,0,7.2,3.6,7.2,7.2V224L425.1,224z"/>
	<path fill="#FFFFFF" d="M206,161.4c-25.3,0-47,20.5-47,47s20.5,47,47,47c25.3,0,47-20.5,47-47S232.5,161.4,206,161.4L206,161.4z
		 M206,230c-12,0-22.9-9.6-22.9-22.9c0-13.2,9.6-22.9,22.9-22.9c12,0,22.9,9.6,22.9,22.9C228.9,220.4,219.3,230,206,230L206,230z"/>
</g>
</svg>
