<?xml version="1.0" encoding="utf-8"?>
<!-- Generator: Adobe Illustrator 18.0.0, SVG Export Plug-In . SVG Version: 6.00 Build 0)  -->
<!DOCTYPE svg PUBLIC "-//W3C//DTD SVG 1.1//EN" "http://www.w3.org/Graphics/SVG/1.1/DTD/svg11.dtd">
<svg version="1.1" id="图形" xmlns="http://www.w3.org/2000/svg" xmlns:xlink="http://www.w3.org/1999/xlink" x="0px" y="0px"
	 viewBox="0 0 500 500" enable-background="new 0 0 500 500" xml:space="preserve">
<g>
	<path fill="#FFFFFF" d="M436.2,130h-342c-23.6,0-42.7,19.1-42.7,42.7v235.1c0,23.6,19.1,42.7,42.7,42.7h342
		c23.6,0,42.7-19.1,42.7-42.7V172.7C478.9,149.1,459.8,130,436.2,130L436.2,130z M457.5,397.1c0,17.7-14.4,32.1-32.1,32.1H104.9
		c-17.7,0-32.1-14.4-32.1-32.1V183.4c0-17.7,14.4-32.1,32.1-32.1h320.6c17.7,0,32.1,14.4,32.1,32.1L457.5,397.1L457.5,397.1
		L457.5,397.1z"/>
	<polygon fill="#FFFFFF" points="420.9,56.2 260.6,130 313.4,130 430,75.6 	"/>
	<polygon fill="#FFFFFF" points="103.5,55.2 94.3,75 210.6,130 260.9,130 	"/>
	<path fill="#FFFFFF" d="M286.5,172.7H136.9c-23.6,0-42.7,19.1-42.7,42.7v149.6c0,23.6,19.1,42.7,42.7,42.7h149.6
		c23.6,0,42.7-19.1,42.7-42.7V215.5C329.3,191.9,310.1,172.7,286.5,172.7L286.5,172.7z M307.9,354.4c0,17.7-14.4,32.1-32.1,32.1
		H147.6c-17.7,0-32.1-14.4-32.1-32.1V226.2c0-17.7,14.4-32.1,32.1-32.1h128.2c17.7,0,32.1,14.4,32.1,32.1L307.9,354.4L307.9,354.4
		L307.9,354.4z"/>
	<path fill="#FFFFFF" d="M393.4,172.7c-23.6,0-42.7,19.1-42.7,42.7c0,23.6,19.1,42.7,42.7,42.7c23.6,0,42.7-19.1,42.7-42.7
		C436.2,191.9,417,172.7,393.4,172.7L393.4,172.7z M393.4,236.9c-11.8,0-21.4-9.6-21.4-21.4c0-11.8,9.6-21.4,21.4-21.4
		s21.4,9.6,21.4,21.4C414.8,227.3,405.2,236.9,393.4,236.9L393.4,236.9z"/>
	<polygon fill="#FFFFFF" points="350.7,375.8 436.2,375.8 436.2,397.1 350.7,397.1 	"/>
	<polygon fill="#FFFFFF" points="350.7,333 436.2,333 436.2,354.4 350.7,354.4 	"/>
</g>
</svg>
