<?xml version="1.0" encoding="utf-8"?>
<!-- Generator: Adobe Illustrator 18.0.0, SVG Export Plug-In . SVG Version: 6.00 Build 0)  -->
<!DOCTYPE svg PUBLIC "-//W3C//DTD SVG 1.1//EN" "http://www.w3.org/Graphics/SVG/1.1/DTD/svg11.dtd">
<svg version="1.1" id="图形" xmlns="http://www.w3.org/2000/svg" xmlns:xlink="http://www.w3.org/1999/xlink" x="0px" y="0px"
	 viewBox="0 0 500 500" enable-background="new 0 0 500 500" xml:space="preserve">
<g>
	<path fill="#FFFFFF" d="M373.7,448H159.9c-29.2,0-52.3-23.1-52.3-52.3v-52.3c-4.6,0-9.2,1.5-10.8,3.1c-7.7,7.7-16.9,10.8-26.2,10.8
		c-6.2,0-10.8-3.1-15.4-6.2c-6.2-7.7-4.6-38.5-4.6-38.5c1.5-18.5,13.8-20,27.7-20h375.3c12.3,0,26.2,3.1,26.2,21.5
		c0,30.8-3.1,35.4-4.6,36.9c-3.1,4.6-9.2,6.2-15.4,6.2c-9.2,0-18.5-3.1-26.2-10.8c-1.5-1.5-6.2-3.1-10.8-3.1v52.3
		C426,424.9,401.4,448,373.7,448L373.7,448z M113.7,324.9c1.5,0,1.5,0,3.1,0h9.2v70.8c0,18.5,15.4,33.8,33.8,33.8h213.8
		c18.5,0,33.8-15.4,33.8-33.8v-70.8h9.2c10.8,0,23.1,1.5,32.3,9.2c4.6,4.6,9.2,6.2,12.3,6.2h1.5c0-3.1,1.5-13.8,1.5-24.6
		c0-1.5,0-3.1,0-3.1s-1.5,0-7.7,0H78.4c-6.2,0-9.2,0-9.2,1.5c0,0,0,1.5,0,3.1c0,6.2,0,20,1.5,24.6h1.5c3.1,0,7.7-1.5,12.3-6.2
		C92.2,326.4,104.5,324.9,113.7,324.9L113.7,324.9z"/>
	<path fill="#FFFFFF" d="M329.1,146.4c-3.1,0-6.2-1.5-7.7-4.6c-3.1-4.6-1.5-9.2,3.1-12.3c27.7-18.5,21.5-32.3,12.3-53.8
		c-4.6-9.2-9.2-21.5-1.5-32.3c1.5-4.6,7.7-6.2,12.3-3.1c4.6,3.1,4.6,7.7,3.1,12.3c-1.5,3.1,0,9.2,3.1,16.9
		c9.2,21.5,21.5,49.2-18.5,75.4C332.2,146.4,330.6,146.4,329.1,146.4L329.1,146.4z"/>
	<path fill="#FFFFFF" d="M258.3,146.4c-3.1,0-6.2-1.5-7.7-4.6c-3.1-4.6-1.5-9.2,3.1-12.3c27.7-16.9,21.5-32.3,12.3-53.8
		c-4.6-9.2-9.2-23.1-1.5-33.8c1.5-3.1,7.7-4.6,10.8-1.5c4.6,3.1,4.6,7.7,3.1,12.3c-1.5,3.1,0,9.2,3.1,16.9
		c9.2,21.5,21.5,49.2-18.5,75.4C261.4,146.4,259.9,146.4,258.3,146.4L258.3,146.4z"/>
	<path fill="#FFFFFF" d="M183,146.4c-3.1,0-4.6-1.5-7.7-4.6c-1.5-3.1-1.5-9.2,3.1-10.8c27.7-18.5,21.5-32.3,12.3-53.8
		c-4.6-10.8-9.2-23.1-1.5-35.4c1.5-3.1,7.7-4.6,10.8-1.5c4.6,3.1,4.6,7.7,3.1,12.3c-1.5,3.1,0,9.2,3.1,16.9
		c9.2,21.5,21.5,49.2-18.5,75.4C186,146.4,184.5,146.4,183,146.4L183,146.4z"/>
	<path fill="#FFFFFF" d="M170.6,331V388c0,6.2,4.6,9.2,9.2,9.2c6.2,0,9.2-4.6,9.2-9.2V331c0-6.2-4.6-9.2-9.2-9.2
		C175.3,321.8,170.6,326.4,170.6,331L170.6,331L170.6,331L170.6,331z"/>
	<path fill="#FFFFFF" d="M426,266.4H107.6v-9.2c3.1-44.6,29.2-60,52.3-60h80l-4.6-13.8c-1.5-4.6,0-10.8,3.1-15.4
		c4.6-4.6,10.8-7.7,16.9-7.7h16.9c6.2,0,13.8,3.1,16.9,9.2c3.1,4.6,4.6,9.2,3.1,15.4l-3.1,12.3h84.6c23.1,0,47.7,15.4,52.3,60
		L426,266.4L426,266.4z M127.6,248H406c-4.6-21.5-15.4-33.8-32.3-33.8H267.6l9.2-35.4c0,0-1.5,0-3.1,0h-16.9c-1.5,0-3.1,1.5-3.1,1.5
		l9.2,33.8H159.9C143,214.1,130.7,226.4,127.6,248L127.6,248z"/>
	<path fill="#FFFFFF" d="M159.9,204.9"/>
</g>
</svg>
