<?xml version="1.0" encoding="utf-8"?>
<!-- Generator: Adobe Illustrator 18.0.0, SVG Export Plug-In . SVG Version: 6.00 Build 0)  -->
<!DOCTYPE svg PUBLIC "-//W3C//DTD SVG 1.1//EN" "http://www.w3.org/Graphics/SVG/1.1/DTD/svg11.dtd">
<svg version="1.1" id="图形" xmlns="http://www.w3.org/2000/svg" xmlns:xlink="http://www.w3.org/1999/xlink" x="0px" y="0px"
	 viewBox="0 0 500 500" enable-background="new 0 0 500 500" xml:space="preserve">
<g>
	<path fill="#FFFFFF" d="M442.3,406.7c-1.6-11-3-22.1-4.5-33.2c-1.3-9.4-2.6-18.9-3.9-28.3c-1.5-11.1-3-22.1-4.5-33.2
		c-1.3-9.4-2.6-18.9-3.9-28.3c-1.5-11.1-3-22.1-4.5-33.2c-1.3-9.4-2.6-18.9-3.9-28.3c-1.5-11.1-3-22.1-4.5-33.2
		c-1.3-9.4-2.6-18.9-3.9-28.3c-1.5-11.1-3-22.1-4.5-33.2c-1.3-9.9-2.8-19.8-4-29.7c-0.6-4.7-2.3-8.8-6.2-11.8
		c-2.1-1.6-4.5-1.3-6.8-1.9c-96,0-191.9,0-287.9,0c-1.9,0.5-3.9,0.4-5.8,1.5c-4.6,2.6-6.9,6.4-7.3,11.6c0,110.6,0,221.1,0,331.7
		c0.4,3.6,1.7,6.7,4.7,9c2.8,2.1,5.9,3.4,9.4,3.6c7.7,0.5,224.9,0.5,227.2,0.5c0.3-0.3,0.7-0.2,1.1-0.2c4.1,0,7-2,9.1-5.4
		c2-3.3,2.9-7,2.9-10.9c0-48.6,0-97.2,0-145.8c0-7.3,0.3-14.6-0.1-21.4c0,0,0,0,0,0c2.1,15,4.9,29.8,7.3,44.7
		c2.8,17.2,5.7,34.4,8.6,51.6c2.7,16.3,5.5,32.6,8.1,48.8c1.4,8.4,3,16.8,4.1,25.2c1,7.8,4.9,11.8,12.5,13.3c16.9,0,33.9,0,50.8,0
		c3.1-0.3,6.1-0.9,8.4-3.3c2.3-2.5,3.3-5.5,3.7-8.8c0-1.7,0-3.4,0-5.1C443.3,418.7,443.2,412.6,442.3,406.7L442.3,406.7z
		 M101.1,100.9c0-1.5,0.4-1.9,1.9-1.9c33.5,0,67.1,0,100.6,0c1.5,0,1.9,0.4,1.9,1.9c-0.1,8.6-0.1,17.2,0,25.8c0,1.8-0.4,2.2-2.2,2.1
		c-16.7-0.1-33.4,0-50.1,0s-33.4,0-50.1,0c-1.7,0-2.2-0.4-2.2-2.1C101.2,118.1,101.2,109.5,101.1,100.9L101.1,100.9z M203.4,427
		c-16.7-0.1-33.4,0-50.1,0s-33.4,0-50.1,0c-1.7,0-2.2-0.3-2.2-2.1c0.1-8.6,0.1-17.2,0-25.8c0-1.5,0.4-1.9,1.9-1.9
		c33.5,0,67.1,0.1,100.6,0c1.8,0,1.9,0.6,1.9,2.1c-0.1,8.5-0.1,17.1,0,25.6C205.6,426.6,205.2,427,203.4,427L203.4,427z
		 M205.6,379.9c0,1.9-0.4,2.4-2.4,2.4c-33.2-0.1-66.5-0.1-99.7,0c-1.9,0-2.4-0.5-2.4-2.4c0.1-39,0-77.9,0-116.9
		c0-38.9,0-77.8,0-116.7c0-2.1,0.5-2.6,2.6-2.6c33.1,0.1,66.3,0.1,99.4,0c1.9,0,2.4,0.5,2.4,2.4C205.5,224,205.5,302,205.6,379.9
		L205.6,379.9z M220.4,100.9c0-1.5,0.4-1.9,1.9-1.9c33.5,0,67.1,0,100.6,0c1.5,0,1.9,0.4,1.9,1.9c-0.1,8.6-0.1,17.2,0,25.8
		c0,1.8-0.4,2.2-2.2,2.1c-16.7-0.1-33.4,0-50.1,0c-16.7,0-33.4,0-50.1,0c-1.7,0-2.2-0.4-2.2-2.1
		C220.5,118.1,220.5,109.5,220.4,100.9L220.4,100.9z M324.8,425.1c0,1.5-0.4,1.9-1.9,1.9c-33.5,0-67.1,0-100.6,0
		c-1.5,0-1.9-0.4-1.9-1.9c0.1-8.6,0.1-17.2,0-25.8c0-1.8,0.4-2.2,2.2-2.1c16.7,0.1,33.4,0,50.1,0c16.7,0,33.4,0,50.1,0
		c1.7,0,2.2,0.4,2.2,2.1C324.7,407.9,324.8,416.5,324.8,425.1L324.8,425.1z M322.2,382.3c-33.2-0.1-66.3-0.1-99.4,0
		c-2,0-2.4-0.5-2.4-2.4c0.1-77.9,0.1-155.9,0-233.8c0-1.9,0.5-2.4,2.4-2.4c33.2,0.1,66.5,0.1,99.7,0c2,0,2.4,0.5,2.4,2.4
		c-0.1,39.1,0,78.1,0,117.2c0,38.8,0,77.6,0.1,116.5C324.9,381.8,324.3,382.3,322.2,382.3L322.2,382.3z M398,427c-2.1,0-4.2,0-6.3,0
		c-1.8,0-3.6-0.1-5.4,0c-1.6,0.2-2.1-0.6-2.3-2c-2-15.3-4.1-30.6-6.2-45.9c-2.2-16.5-4.5-33-6.8-49.6c-2.3-16.5-4.5-33-6.8-49.6
		c-2.2-16.4-4.5-32.9-6.7-49.3c-2.3-16.6-4.5-33.2-6.8-49.8c-2.3-16.5-4.5-33-6.8-49.6c-1.4-10.4-2.8-20.7-4.3-31.1
		c-0.2-1.4,0.6-1.3,1.4-1.3c3.8,0,7.6,0.1,11.4,0c1.6-0.1,2.1,0.6,2.3,2c1.1,8.5,2.3,16.9,3.4,25.4c2.2,16.5,4.5,33,6.8,49.6
		c2.3,16.5,4.5,33,6.8,49.6c2.2,16.4,4.5,32.9,6.7,49.3c2.3,16.6,4.5,33.2,6.8,49.8c2.3,16.5,4.5,33,6.8,49.6
		c2.4,17.2,4.7,34.4,7.1,51.6C399.4,426.9,399,427,398,427L398,427z M427.9,427c-4.1,0-8.2-0.1-12.3,0c-1.7,0.1-1.4-1.1-1.6-1.9
		c-1-7.4-2-14.8-3-22.1c-2.3-16.5-4.5-33-6.8-49.6c-2.2-16.4-4.5-32.9-6.7-49.3c-2.3-16.6-4.5-33.2-6.8-49.8
		c-2.2-16.4-4.5-32.9-6.7-49.3c-2.2-16.5-4.5-33-6.8-49.6c-2.3-16.5-4.5-33-6.8-49.6c-0.3-1.8-0.5-3.7-0.8-5.5c-0.2-1,0-1.4,1.1-1.3
		c2.1,0.1,4.2,0,6.3,0c1.8,0,3.6,0.1,5.4,0c1.6-0.2,2.1,0.4,2.3,1.9c0.9,7.4,2,14.8,3,22.1c2.3,16.5,4.5,33,6.8,49.6
		c2.2,16.4,4.5,32.9,6.7,49.3c2.3,16.6,4.5,33.2,6.8,49.8c2.2,16.4,4.5,32.9,6.7,49.3c2.3,16.5,4.5,33,6.8,49.6
		c2.3,16.5,4.5,33,6.8,49.6c0.3,1.8,0.5,3.7,0.8,5.5C429.2,426.7,429,427,427.9,427L427.9,427z"/>
	<path fill="#FFFFFF" d="M153.1,188.5c-11.6,0-23.3,0-34.9,0c-1.7,0-2.2-0.4-2.2-2.1c0.2-3.7,0.1-7.4,0-11.2c0-1.3,0.4-1.7,1.7-1.7
		c23.7,0,47.5,0,71.2,0c1.3,0,1.7,0.3,1.7,1.7c-0.1,3.8-0.1,7.6,0,11.4c0,1.5-0.4,1.9-1.9,1.9C176.9,188.4,165,188.5,153.1,188.5
		L153.1,188.5z"/>
	<path fill="#FFFFFF" d="M153.4,203.4c11.7,0,23.4,0,35.2,0c1.7,0,2.2,0.4,2.2,2.1c-0.2,3.7-0.1,7.4,0,11.2c0,1.3-0.4,1.7-1.7,1.7
		c-23.7,0-47.5,0-71.2,0c-1.3,0-1.7-0.3-1.7-1.7c0.1-3.8,0.1-7.6,0-11.4c0-1.5,0.4-1.9,1.9-1.9C129.8,203.4,141.6,203.4,153.4,203.4
		L153.4,203.4z"/>
	<path fill="#FFFFFF" d="M153.1,248.1c-11.6,0-23.3,0-34.9,0c-1.7,0-2.2-0.4-2.2-2.2c0.1-3.7,0.1-7.4,0-11.2c0-1.3,0.4-1.7,1.7-1.7
		c23.7,0,47.5,0,71.2,0c1.3,0,1.7,0.4,1.7,1.7c-0.1,3.8-0.1,7.6,0,11.4c0,1.6-0.4,1.9-1.9,1.9C176.9,248.1,165,248.1,153.1,248.1
		L153.1,248.1z"/>
	<path fill="#FFFFFF" d="M272.9,173.5c11.6,0,23.3,0,34.9,0c1.8,0,2.2,0.4,2.1,2.2c-0.1,3.7-0.1,7.4,0,11.2c0,1.4-0.4,1.6-1.7,1.6
		c-23.7,0-47.5,0-71.2,0c-1.3,0-1.7-0.4-1.7-1.7c0.1-3.8,0.1-7.6,0-11.4c-0.1-1.6,0.5-1.9,1.9-1.9
		C249.1,173.6,261,173.5,272.9,173.5L272.9,173.5z"/>
	<path fill="#FFFFFF" d="M272.9,203.4c11.6,0,23.3,0,34.9,0c1.7,0,2.2,0.4,2.2,2.1c-0.2,3.7-0.1,7.4,0,11.2c0,1.3-0.4,1.7-1.7,1.7
		c-23.7,0-47.5,0-71.2,0c-1.3,0-1.7-0.3-1.7-1.7c0.1-3.8,0.1-7.6,0-11.4c0-1.5,0.4-1.9,1.9-1.9C249.1,203.4,261,203.4,272.9,203.4
		L272.9,203.4z"/>
	<path fill="#FFFFFF" d="M272.4,248.1c-11.6,0-23.3,0-34.9,0c-1.8,0-2.2-0.4-2.1-2.2c0.1-3.7,0.1-7.4,0-11.2c0-1.4,0.4-1.6,1.7-1.6
		c23.7,0,47.5,0,71.2,0c1.3,0,1.7,0.4,1.7,1.7c-0.1,3.8-0.1,7.6,0,11.4c0.1,1.6-0.5,1.9-1.9,1.9
		C296.1,248.1,284.2,248.1,272.4,248.1L272.4,248.1z"/>
</g>
</svg>
