<?xml version="1.0" encoding="utf-8"?>
<!-- Generator: Adobe Illustrator 18.0.0, SVG Export Plug-In . SVG Version: 6.00 Build 0)  -->
<!DOCTYPE svg PUBLIC "-//W3C//DTD SVG 1.1//EN" "http://www.w3.org/Graphics/SVG/1.1/DTD/svg11.dtd">
<svg version="1.1" id="图形" xmlns="http://www.w3.org/2000/svg" xmlns:xlink="http://www.w3.org/1999/xlink" x="0px" y="0px"
	 viewBox="15.167 -16.333 1000.636 1000.678" enable-background="new 15.167 -16.333 1000.636 1000.678" xml:space="preserve">
<g>
	<path fill-rule="evenodd" clip-rule="evenodd" fill="#459FFB" d="M862.115,200.406h-674.54
		c-62.088,0-112.423,50.335-112.423,112.423v449.694c0,62.088,50.335,112.423,112.423,112.423h674.539
		c62.088,0,112.423-50.335,112.423-112.423V312.83C974.538,250.743,924.203,200.406,862.115,200.406L862.115,200.406z
		 M899.589,725.049c0,41.394-33.555,74.949-74.948,74.949H225.05c-41.394,0-74.949-33.555-74.949-74.949V462.727h749.113v-74.949
		H150.101v-37.475c0-41.394,33.555-74.948,74.949-74.948h599.591c41.394,0,74.948,33.555,74.948,74.948V725.049L899.589,725.049z
		 M225.05,725.049h187.372V650.1H225.05V725.049L225.05,725.049z"/>
</g>
</svg>
