<?xml version="1.0" encoding="utf-8"?>
<!-- Generator: Adobe Illustrator 18.0.0, SVG Export Plug-In . SVG Version: 6.00 Build 0)  -->
<!DOCTYPE svg PUBLIC "-//W3C//DTD SVG 1.1//EN" "http://www.w3.org/Graphics/SVG/1.1/DTD/svg11.dtd">
<svg version="1.1" id="图层_1" xmlns="http://www.w3.org/2000/svg" xmlns:xlink="http://www.w3.org/1999/xlink" x="0px" y="0px"
	 viewBox="0 0 500 500" enable-background="new 0 0 500 500" xml:space="preserve">
<g>
	<path fill="#DCDCDC" d="M389.61,385.064l-7.64,7.64c-6.899,6.899-18.085,6.899-24.984,0L122.202,157.921
		c-6.899-6.899-6.899-18.085,0-24.984l7.64-7.64c6.899-6.899,18.085-6.899,24.984,0L389.61,360.079
		C396.51,366.979,396.51,378.164,389.61,385.064z"/>
	<path fill="#DCDCDC" d="M381.97,125.296l7.64,7.64c6.899,6.899,6.899,18.085,0,24.984L154.827,392.704
		c-6.899,6.899-18.085,6.899-24.984,0l-7.64-7.64c-6.899-6.899-6.899-18.085,0-24.984l234.784-234.784
		C363.885,118.397,375.071,118.397,381.97,125.296z"/>
</g>
</svg>
