<?xml version="1.0" encoding="utf-8"?>
<!-- Generator: Adobe Illustrator 18.0.0, SVG Export Plug-In . SVG Version: 6.00 Build 0)  -->
<!DOCTYPE svg PUBLIC "-//W3C//DTD SVG 1.1//EN" "http://www.w3.org/Graphics/SVG/1.1/DTD/svg11.dtd">
<svg version="1.1" id="图形" xmlns="http://www.w3.org/2000/svg" xmlns:xlink="http://www.w3.org/1999/xlink" x="0px" y="0px"
	 viewBox="15.167 -16.333 1000.636 1000.678" enable-background="new 15.167 -16.333 1000.636 1000.678" xml:space="preserve">
<g>
	<path fill-rule="evenodd" clip-rule="evenodd" fill="#FFFFFF" d="M906.802,863.708l-19.134,19.135
		c-14.351,14.351-38.27,14.351-52.621,0L701.105,744.117c-62.187,43.053-138.726,71.755-220.048,71.755
		c-200.913,0-368.341-167.428-368.341-373.125c0-200.913,167.428-368.341,373.125-368.341s373.125,167.428,373.125,373.125
		c0,86.105-28.702,167.427-81.322,234.399l133.942,133.942C921.153,825.439,921.153,849.357,906.802,863.708L906.802,863.708z
		 M485.841,170.079c-153.077,0-277.452,124.375-277.452,272.668s124.375,272.668,277.452,272.668S763.293,591.04,763.293,442.747
		S634.134,170.079,485.841,170.079L485.841,170.079z"/>
</g>
</svg>
