<?xml version="1.0" encoding="utf-8"?>
<!-- Generator: Adobe Illustrator 18.0.0, SVG Export Plug-In . SVG Version: 6.00 Build 0)  -->
<!DOCTYPE svg PUBLIC "-//W3C//DTD SVG 1.1//EN" "http://www.w3.org/Graphics/SVG/1.1/DTD/svg11.dtd">
<svg version="1.1" id="图形" xmlns="http://www.w3.org/2000/svg" xmlns:xlink="http://www.w3.org/1999/xlink" x="0px" y="0px"
	 viewBox="0 0 500 500" enable-background="new 0 0 500 500" xml:space="preserve">
<g>
	<path fill="#43BBFF" d="M454.968,137.185c-2.769-3.612-7.066-5.725-11.606-5.725H136.77l-12.877-61.473
		c-1.413-6.766-7.381-11.621-14.304-11.621H71.814c-8.08,0-14.619,6.538-14.619,14.619s6.538,14.619,14.619,14.619h25.897
		l55.734,266.135c1.414,6.767,7.381,11.62,14.304,11.62h220.194c8.081,0,14.619-6.538,14.619-14.619
		c0-8.081-6.538-14.619-14.619-14.619H179.626l-9.18-43.856h237.596c6.61,0,12.407-4.439,14.119-10.835l35.319-131.568
		C458.666,145.479,457.723,140.782,454.968,137.185L454.968,137.185z M396.836,263.028H164.322l-21.428-102.331h281.409
		L396.836,263.028L396.836,263.028z"/>
	<path fill="#43BBFF" d="M196.072,379.977c-20.158,0-36.547,16.389-36.547,36.547c0,20.158,16.389,36.547,36.547,36.547
		c20.158,0,36.547-16.389,36.547-36.547C232.619,396.366,216.23,379.977,196.072,379.977L196.072,379.977z M196.072,431.143
		c-8.066,0-14.619-6.553-14.619-14.619c0-8.066,6.553-14.619,14.619-14.619c8.066,0,14.619,6.553,14.619,14.619
		C210.69,424.59,204.137,431.143,196.072,431.143L196.072,431.143z"/>
	<path fill="#43BBFF" d="M356.877,379.977c-20.157,0-36.546,16.389-36.546,36.547c0,20.158,16.389,36.547,36.546,36.547
		c20.158,0,36.547-16.389,36.547-36.547C393.424,396.366,377.035,379.977,356.877,379.977L356.877,379.977z M356.877,431.143
		c-8.066,0-14.619-6.553-14.619-14.619c0-8.066,6.553-14.619,14.619-14.619c8.066,0,14.619,6.553,14.619,14.619
		C371.496,424.59,364.943,431.143,356.877,431.143L356.877,431.143z"/>
</g>
</svg>
