<?xml version="1.0" encoding="utf-8"?>
<!-- Generator: Adobe Illustrator 18.0.0, SVG Export Plug-In . SVG Version: 6.00 Build 0)  -->
<!DOCTYPE svg PUBLIC "-//W3C//DTD SVG 1.1//EN" "http://www.w3.org/Graphics/SVG/1.1/DTD/svg11.dtd">
<svg version="1.1" id="图形" xmlns="http://www.w3.org/2000/svg" xmlns:xlink="http://www.w3.org/1999/xlink" x="0px" y="0px"
	 viewBox="15.167 -16.333 1000.636 1000.678" enable-background="new 15.167 -16.333 1000.636 1000.678" xml:space="preserve">
<g>
	<path fill-rule="evenodd" clip-rule="evenodd" fill="#272536" d="M708.558,201.52h-93.193v-52.819
		c0-17.15-13.951-31.101-31.101-31.101h-137.56c-17.15,0-31.101,13.951-31.101,31.101v52.819h-93.193
		c-28.915,0-52.574,23.658-52.574,52.574v476.383c0,28.916,23.658,52.574,52.574,52.574h44.929
		c-2.765,6.03-4.317,12.731-4.317,19.798c0,26.267,21.294,47.561,47.561,47.561c26.268,0,47.562-21.294,47.562-47.561
		c0-7.067-1.553-13.768-4.317-19.798h123.315c-2.765,6.03-4.317,12.731-4.317,19.798c0,26.267,21.294,47.561,47.561,47.561
		c26.268,0,47.562-21.294,47.562-47.561c0-7.067-1.553-13.768-4.317-19.798h44.928c28.916,0,52.575-23.658,52.575-52.574V254.095
		C761.132,225.178,737.473,201.52,708.558,201.52L708.558,201.52z M630.771,330.657L630.771,330.657
		c9.191,0,16.711,7.52,16.711,16.711v266.254c0,9.191-7.52,16.711-16.711,16.711l0,0c-9.191,0-16.711-7.52-16.711-16.711V347.368
		C614.06,338.177,621.581,330.657,630.771,330.657L630.771,330.657z M463.45,165.448h104.068v36.072H463.45V165.448L463.45,165.448z
		 M383.486,347.368c0-9.191,7.52-16.711,16.711-16.711l0,0c9.191,0,16.711,7.52,16.711,16.711v266.254
		c0,9.191-7.52,16.711-16.711,16.711l0,0c-9.191,0-16.711-7.52-16.711-16.711V347.368L383.486,347.368z M532.195,613.623
		c0,9.191-7.52,16.711-16.711,16.711l0,0c-9.191,0-16.711-7.52-16.711-16.711V347.368c0-9.191,7.52-16.711,16.711-16.711l0,0
		c9.191,0,16.711,7.52,16.711,16.711V613.623L532.195,613.623z"/>
</g>
</svg>
