<?xml version="1.0" encoding="utf-8"?>
<!-- Generator: Adobe Illustrator 18.0.0, SVG Export Plug-In . SVG Version: 6.00 Build 0)  -->
<!DOCTYPE svg PUBLIC "-//W3C//DTD SVG 1.1//EN" "http://www.w3.org/Graphics/SVG/1.1/DTD/svg11.dtd">
<svg version="1.1" id="图形" xmlns="http://www.w3.org/2000/svg" xmlns:xlink="http://www.w3.org/1999/xlink" x="0px" y="0px"
	 viewBox="15.167 -16.333 1000.636 1000.678" enable-background="new 15.167 -16.333 1000.636 1000.678" xml:space="preserve">
<path fill-rule="evenodd" clip-rule="evenodd" fill="#272536" d="M793.341,758.423H604.699v48.65l39.714,38.864v9.787H386.415
	v-9.787l39.714-38.864v-48.65H237.628c-16.452,0-29.786-13.049-29.786-29.218V339.723c0-16.168,13.333-29.218,29.786-29.218h555.713
	c16.454,0,29.786,13.049,29.786,29.218v389.482C823.127,745.374,809.795,758.423,793.341,758.423L793.341,758.423L793.341,758.423
	 M783.413,349.51H247.557v331.046h535.856V349.51L783.413,349.51 M783.413,349.51L783.413,349.51z"/>
<rect x="258.485" y="360.514" fill-rule="evenodd" clip-rule="evenodd" fill="#272536" width="514" height="313"/>
</svg>
