<?xml version="1.0" encoding="utf-8"?>
<!-- Generator: Adobe Illustrator 18.0.0, SVG Export Plug-In . SVG Version: 6.00 Build 0)  -->
<!DOCTYPE svg PUBLIC "-//W3C//DTD SVG 1.1//EN" "http://www.w3.org/Graphics/SVG/1.1/DTD/svg11.dtd">
<svg version="1.1" id="图形" xmlns="http://www.w3.org/2000/svg" xmlns:xlink="http://www.w3.org/1999/xlink" x="0px" y="0px"
	 viewBox="15.167 -16.333 1000.636 1000.678" enable-background="new 15.167 -16.333 1000.636 1000.678" xml:space="preserve">
<g>
	<path fill-rule="evenodd" clip-rule="evenodd" fill="#272536" d="M692.714,100.646c14.999,10.14,27.681,21.955,38.122,35.404
		c10.408,13.455,18.883,26.469,25.387,39.027c7.187,14.968,12.729,29.904,16.567,44.857c2.643-0.602,6.199,0,10.81,1.789
		c3.887,1.202,9.08,3.306,15.587,6.277c6.533,2.997,15.319,7.481,26.367,13.457c10.438,6.565,18.933,12.576,25.411,17.936
		c6.499,5.398,11.374,10.484,14.642,15.25c3.914,5.377,6.862,10.475,8.801,15.273H126.176c1.962-4.207,4.588-8.685,7.812-13.472
		c3.282-4.202,7.492-8.827,12.731-13.907c5.196-5.083,12.022-10.605,20.495-16.596c8.472-5.383,16.423-9.72,23.91-13.008
		c7.495-3.273,13.858-6.132,19.054-8.53c6.504-2.368,12.371-4.175,17.592-5.368c3.888-13.76,9.452-27.518,16.616-41.278
		c5.847-11.956,13.521-24.638,22.956-38.108c9.423-13.46,21.313-25.575,35.661-36.341c16.921-12.544,36.615-21.955,59.087-28.249
		c22.483-6.282,44.101-10.916,64.91-13.93c24.149-2.963,48.571-4.458,73.311-4.458c14.316,0,29.621,0.461,45.908,1.34
		c16.305,0.91,32.869,2.853,49.813,5.844c16.936,2.979,33.526,7.463,49.813,13.46C662.11,83.278,677.789,91.067,692.714,100.646
		L692.714,100.646L692.714,100.646L692.714,100.646 M500.311,97.934c-20.832,1.193-40.37,2.974-58.617,5.38
		c-15.61,2.377-31.402,5.677-47.344,9.876c-15.973,4.178-28.497,9.872-37.626,17.022c-10.432,8.391-18.717,17.045-24.915,26.01
		c-6.176,8.985-11.236,17.06-15.141,24.241c-4.565,8.959-8.144,17.348-10.737,25.12c18.878-1.801,39.076-3.594,60.556-5.403
		c18.207-1.185,38.892-2.51,62.035-4.023c23.134-1.493,47.049-2.248,71.791-2.248c26.037,0,50.935,0.755,74.729,2.248
		c23.745,1.513,44.439,2.838,61.985,4.023c20.875,1.804,40.102,3.602,57.658,5.403c-2.617-10.167-6.502-20.054-11.723-29.598
		c-4.536-8.363-10.225-16.899-17.083-25.572c-6.827-8.686-15.812-16.291-26.883-22.893c-20.164-11.953-42.629-19.722-67.395-23.298
		C546.891,100.646,523.093,98.53,500.311,97.934L500.311,97.934L500.311,97.934L500.311,97.934 M857.801,353.59
		c22.16,0,33.246,10.763,33.246,32.281c0,8.988-2.804,16.452-8.308,22.428c-5.541,5.991-12.567,8.977-21.008,8.977h-28.309v273.598
		c0,13.74-2.323,27.206-6.882,40.344c-4.539,13.163-15.308,27.506-32.22,43.072c-9.124,7.789-17.884,13.754-26.397,17.959
		c-8.414,4.17-16.264,7.464-23.422,9.844c-7.81,2.403-15.628,4.216-23.426,5.38v37.687c0,8.369-3.599,14.953-10.711,19.74
		c-7.21,4.761-15.328,7.464-24.46,8.06c-9.12,0-17.241-2.686-24.431-8.06c-7.181-5.38-10.757-11.971-10.757-19.74v-34.981H354.784
		v34.987c0,8.369-3.933,14.656-11.737,18.832c-7.821,4.193-15.639,6.276-23.457,6.276c-9.123,0-17.1-2.392-23.912-7.181
		c-6.833-4.789-10.274-11.357-10.274-19.717c0-2.994-0.161-6.412-0.478-10.322c-0.337-3.89-0.481-7.936-0.481-12.1v-14.385
		c-5.216,0-10.438-0.873-15.625-2.668c-4.587-1.205-9.78-2.988-15.636-5.374c-5.864-2.398-11.74-5.397-17.587-8.977
		c-20.832-13.164-36.301-28.249-46.381-45.309c-10.112-17.054-15.166-37.811-15.166-62.346v-17.036
		c0-9.573-0.141-20.769-0.493-33.647c-0.3-12.85-0.487-27.045-0.487-42.589v-47.548V417.285h-26.348
		c-10.435,0-19.238-2.709-26.391-8.081c-7.164-5.391-10.743-13.163-10.743-23.321c0-9.565,2.781-17.34,8.305-23.325
		c5.524-5.971,13.803-8.965,24.898-8.965h360.441h354.568V353.59L857.801,353.59L857.801,353.59 M545.208,658.59h-70.311v61h70.311
		V658.59L545.208,658.59L545.208,658.59L545.208,658.59 M545.208,658.59L545.208,658.59z"/>
</g>
</svg>
