<?xml version="1.0" encoding="utf-8"?>
<!-- Generator: Adobe Illustrator 18.0.0, SVG Export Plug-In . SVG Version: 6.00 Build 0)  -->
<!DOCTYPE svg PUBLIC "-//W3C//DTD SVG 1.1//EN" "http://www.w3.org/Graphics/SVG/1.1/DTD/svg11.dtd">
<svg version="1.1" id="图形" xmlns="http://www.w3.org/2000/svg" xmlns:xlink="http://www.w3.org/1999/xlink" x="0px" y="0px"
	 viewBox="15.167 -16.333 1000.636 1000.678" enable-background="new 15.167 -16.333 1000.636 1000.678" xml:space="preserve">
<g>
	<path fill-rule="evenodd" clip-rule="evenodd" fill="#272536" d="M854.713,893.369h-218.95c-19.486,0-35.35-15.95-35.35-35.479
		V439.949c0-19.572,15.864-35.436,35.35-35.436h17.114V220.05c1.25-20.262,14.269-58.672,55.266-84.623
		c13.751-8.794,26.727-19.184,38.324-28.495c23.408-18.71,40.35-32.289,59.188-32.289c14.399,0,38.41,7.242,38.41,55.74v274.13
		h10.648c19.485,0,35.35,15.864,35.35,35.436V857.89C890.063,877.505,874.198,893.369,854.713,893.369L854.713,893.369z
		 M808.155,528.538c0-14.097-11.38-25.564-25.563-25.564c-14.14,0-25.607,11.381-25.607,25.564V759.99
		c0,14.096,11.467,25.563,25.607,25.563c14.097,0,25.563-11.424,25.563-25.563V528.538L808.155,528.538z M425.563,451.028
		c-0.388,0.603-1.164,0.819-1.681,1.336c10.131,86.994,42.376,366.987,42.376,390.222c0,34.918-32.892,50.782-63.413,50.782H288.089
		c-29.013,0-49.662-7.458-61.474-22.33c-9.656-12.114-10.906-26.253-8.708-35.436l42.376-381.342
		c-1.164-0.949-2.543-1.509-3.578-2.716L77.286,240.397c-7.329-8.665-8.148-21.123-1.94-30.607
		c3.621-5.475,90.098-135.147,259.516-135.147c168.987,0,259.042,127.775,262.879,133.164c6.38,9.311,5.905,21.77-1.208,30.607
		L425.563,451.028L425.563,451.028z M383.187,546.643l-5.906-51.17h-70.267l-5.648,51.17H383.187L383.187,546.643z M312.747,301.095
		c-3.319-13.752-17.2-22.115-30.866-18.839c-13.752,3.362-22.158,17.157-18.882,30.952l22.676,93.547l52.722,0.474L312.747,301.095
		L312.747,301.095z M390.128,281.954c-13.925-2.629-27.202,6.682-29.832,20.563l-19.097,104.712h52.033l17.502-95.486
		C413.234,297.818,404.052,284.498,390.128,281.954L390.128,281.954z"/>
</g>
</svg>
