<?xml version="1.0" encoding="utf-8"?>
<!-- Generator: Adobe Illustrator 18.0.0, SVG Export Plug-In . SVG Version: 6.00 Build 0)  -->
<!DOCTYPE svg PUBLIC "-//W3C//DTD SVG 1.1//EN" "http://www.w3.org/Graphics/SVG/1.1/DTD/svg11.dtd">
<svg version="1.1" id="图形" xmlns="http://www.w3.org/2000/svg" xmlns:xlink="http://www.w3.org/1999/xlink" x="0px" y="0px"
	 viewBox="15.167 -16.333 1000.636 1000.678" enable-background="new 15.167 -16.333 1000.636 1000.678" xml:space="preserve">
<g>
	<path fill-rule="evenodd" clip-rule="evenodd" fill="#FFFFFF" d="M666.143,914.284c-18.008,0-38.13-2.065-59.452-4.322
		c-50.855-5.234-108.481-5.234-159.289,0c-21.322,2.257-41.443,4.322-59.452,4.322c-19.161,0-46.917-2.065-66.799-20.121
		c-17.624-15.991-26.171-41.395-26.171-77.652V476.418c0-136.094,112.18-136.094,230.986-136.094
		c121.064,0,233.292,0,233.292,136.094v340.093C759.211,904.152,706.146,914.284,666.143,914.284L666.143,914.284z M527.071,868.567
		c29.821,0,58.251,2.977,83.415,5.571c20.458,2.161,39.186,4.13,55.706,4.13c38.657,0,57.05-9.22,57.05-61.757V476.418
		c0-95.611-66.895-100.078-195.018-100.078c-130.332,0-197.178,4.467-197.178,100.078v340.093c0,25.548,4.706,42.211,14.358,51
		c14.503,13.11,52.008,11.573,98.302,6.675C468.773,871.497,497.25,868.567,527.071,868.567L527.071,868.567z"/>
	<path fill-rule="evenodd" clip-rule="evenodd" fill="#FFFFFF" d="M688.137,371.922h-36.016v-56.186
		c0-73.041-56.09-132.493-125.05-132.493s-125.05,59.452-125.05,132.493v56.186h-36.016v-56.186
		c0-92.874,72.225-168.509,161.066-168.509s161.066,75.586,161.066,168.509V371.922L688.137,371.922z"/>
	<path fill-rule="evenodd" clip-rule="evenodd" fill="#FFFFFF" d="M599.152,185.26h-36.016c0-47.254-4.226-95.515-35.536-95.515
		c-31.311,0-35.537,48.261-35.537,95.515h-36.016c0-39.378,0-131.533,71.553-131.533C599.152,53.727,599.152,145.882,599.152,185.26
		L599.152,185.26z"/>
	<polygon fill-rule="evenodd" clip-rule="evenodd" fill="#FFFFFF" points="567.842,532.892 732.174,532.892 732.174,568.91 
		567.842,568.91 567.842,532.892 	"/>
	<polygon fill-rule="evenodd" clip-rule="evenodd" fill="#FFFFFF" points="564.096,613.906 728.38,613.906 728.38,649.923 
		564.096,649.923 564.096,613.906 	"/>
	<polygon fill-rule="evenodd" clip-rule="evenodd" fill="#FFFFFF" points="567.842,694.967 732.174,694.967 732.174,730.984 
		567.842,730.984 567.842,694.967 	"/>
</g>
</svg>
