<?xml version="1.0" encoding="utf-8"?>
<!-- Generator: Adobe Illustrator 18.0.0, SVG Export Plug-In . SVG Version: 6.00 Build 0)  -->
<!DOCTYPE svg PUBLIC "-//W3C//DTD SVG 1.1//EN" "http://www.w3.org/Graphics/SVG/1.1/DTD/svg11.dtd">
<svg version="1.1" id="图形" xmlns="http://www.w3.org/2000/svg" xmlns:xlink="http://www.w3.org/1999/xlink" x="0px" y="0px"
	 viewBox="15.167 -16.333 1000.636 1000.678" enable-background="new 15.167 -16.333 1000.636 1000.678" xml:space="preserve">
<g>
	<path fill-rule="evenodd" clip-rule="evenodd" fill="#FFFFFF" d="M823.459,406.308h10.266c5.133-30.798-5.133-61.596-30.798-87.259
		L587.346,103.467c-41.063-41.063-107.792-41.063-143.722,0L222.91,319.049c-20.532,25.664-30.798,56.462-25.665,87.259h10.266
		c-25.664,0-51.329,25.664-51.329,51.329v102.658c0,25.665,25.665,51.329,51.329,51.329v256.645
		c0,25.664,25.665,51.329,51.329,51.329H772.13c25.664,0,51.329-25.664,51.329-51.329V611.624c25.664,0,51.329-25.664,51.329-51.329
		V457.637C874.788,431.972,849.123,406.308,823.459,406.308L823.459,406.308z M263.973,360.112L479.554,144.53
		c20.532-20.531,51.329-20.531,71.861,0l215.581,215.582c15.399,15.398,15.399,30.797,10.267,46.196H248.574
		C243.441,390.909,248.574,370.378,263.973,360.112L263.973,360.112z M772.13,868.269H258.839V611.624H772.13V868.269
		L772.13,868.269z M823.459,560.295H772.13H258.839H207.51V457.637h615.949V560.295L823.459,560.295z"/>
	<path fill-rule="evenodd" clip-rule="evenodd" fill="#FFFFFF" d="M561.681,206.124c-10.266-5.133-30.798-5.133-41.063,0
		c-5.133,10.267-5.133,30.798,0,41.063l35.931,35.931c10.266,10.265,25.664,10.265,35.931,0c10.266-10.266,10.266-25.664,0-35.931
		L561.681,206.124L561.681,206.124z"/>
	<path fill-rule="evenodd" clip-rule="evenodd" fill="#FFFFFF" d="M643.807,329.315 M618.143,329.315"/>
</g>
</svg>
