<?xml version="1.0" encoding="utf-8"?>
<!-- Generator: Adobe Illustrator 18.0.0, SVG Export Plug-In . SVG Version: 6.00 Build 0)  -->
<!DOCTYPE svg PUBLIC "-//W3C//DTD SVG 1.1//EN" "http://www.w3.org/Graphics/SVG/1.1/DTD/svg11.dtd">
<svg version="1.1" id="图形" xmlns="http://www.w3.org/2000/svg" xmlns:xlink="http://www.w3.org/1999/xlink" x="0px" y="0px"
	 viewBox="15.167 -16.333 1000.636 1000.678" enable-background="new 15.167 -16.333 1000.636 1000.678" xml:space="preserve">
<g>
	<path fill-rule="evenodd" clip-rule="evenodd" fill="#FFFFFF" d="M895.506,559.958c-20.752,24.113-46.38,38.6-76.886,43.477v16.476
		v168.417c0,18.305-5.806,34.466-17.39,48.511c-11.599,14.031-26.244,22.883-43.935,26.544v16.475c0,4.878-1.988,9.296-5.949,13.273
		c-3.976,3.962-8.553,5.949-13.729,5.949c-5.192,0-9.611-1.989-13.272-5.949c-3.661-3.976-5.492-8.396-5.492-13.273v-15.56H316.118
		v15.56c0,4.878-1.83,9.296-5.491,13.273c-3.662,3.962-8.238,5.949-13.73,5.949c-5.491,0-10.068-1.989-13.729-5.949
		c-3.661-3.976-5.492-8.396-5.492-13.273v-16.475c-17.705-3.661-32.35-12.514-43.934-26.544
		c-11.6-14.045-17.392-30.205-17.392-48.511V619.911v-16.476c-30.519-4.876-56.148-19.364-76.886-43.477
		c-20.752-24.098-31.121-52.315-31.121-84.665c0-32.337,10.669-60.711,32.036-85.124c21.352-24.398,47.896-38.743,79.631-43.019
		c9.153-73.225,40.574-135.151,94.277-185.808C372.252,107.039,440.6,79.88,519.316,79.88c76.271,0,142.931,25.628,199.995,76.886
		c57.049,51.257,90.157,115.028,99.31,191.299c30.506,4.892,56.134,19.379,76.886,43.477c20.737,24.113,31.12,52.029,31.12,83.751
		C926.627,507.643,916.244,535.86,895.506,559.958L895.506,559.958z M862.555,540.279c17.691-17.69,26.544-39.2,26.544-64.529
		c0-25.313-8.852-46.824-26.544-64.528c-17.706-17.692-38.757-26.545-63.156-26.545c-25.028,0-46.223,8.853-63.614,26.545
		c-17.391,17.705-26.401,39.057-27.002,64.071l1.831,16.475v0.915v218.758c0,5.492-1.831,10.068-5.492,13.729
		c-3.661,3.662-8.237,5.492-13.729,5.492H343.577c-5.492,0-10.068-1.83-13.729-5.492c-3.662-3.661-5.492-8.236-5.492-13.729V492.684
		v-0.915l1.83-16.476c-0.614-25.013-9.611-46.366-27.001-64.071c-17.392-17.691-38.6-26.544-63.614-26.544
		c-24.414,0-45.465,8.853-63.157,26.544c-17.705,17.706-26.543,39.215-26.543,64.529c0,25.328,8.839,46.838,26.543,64.529
		c17.692,17.705,38.743,26.544,63.156,26.544c5.492,0,10.069,1.831,13.73,5.492c3.661,3.661,5.492,8.238,5.492,13.73l-0.916,33.866
		v168.416c0,10.369,3.661,19.221,10.984,26.545c7.322,7.322,16.475,10.984,27.459,10.984H742.65
		c10.983,0,20.136-3.661,27.459-10.984c7.323-7.323,10.984-16.176,10.984-26.545V619.911l-0.915-33.866
		c0-5.492,1.83-10.069,5.491-13.73c3.661-3.661,8.239-5.492,13.73-5.492C823.798,566.823,844.85,557.985,862.555,540.279
		L862.555,540.279z M258.453,348.98c29.891,4.891,54.918,19.379,75.055,43.477c20.136,24.113,30.204,51.715,30.204,82.836v1.83
		l-0.915,16.475v113.498h309.374V493.599l-0.915-16.475v-1.831c0-31.721,10.368-59.637,31.12-83.75
		c20.738-24.099,46.681-38.586,77.802-43.477c-8.553-65.288-37.685-120.048-87.412-164.298
		c-49.742-44.235-107.549-66.36-173.45-66.36c-65.902,0-123.724,22.125-173.451,66.36
		C296.124,228.017,266.992,283.078,258.453,348.98L258.453,348.98z M362.798,693.136h309.374v-47.597H362.798V693.136
		L362.798,693.136z"/>
</g>
</svg>
