<?xml version="1.0" encoding="utf-8"?>
<!-- Generator: Adobe Illustrator 18.0.0, SVG Export Plug-In . SVG Version: 6.00 Build 0)  -->
<!DOCTYPE svg PUBLIC "-//W3C//DTD SVG 1.1//EN" "http://www.w3.org/Graphics/SVG/1.1/DTD/svg11.dtd">
<svg version="1.1" id="图形" xmlns="http://www.w3.org/2000/svg" xmlns:xlink="http://www.w3.org/1999/xlink" x="0px" y="0px"
	 viewBox="15.167 -16.333 1000.636 1000.678" enable-background="new 15.167 -16.333 1000.636 1000.678" xml:space="preserve">
<g>
	<path fill-rule="evenodd" clip-rule="evenodd" fill="#FFFFFF" d="M104.552,436.212v140.906
		c0,157.599,140.536,213.844,191.164,228.994v56.536h426.443h0.002v-56.405c50.898-14.933,191.165-71.197,191.165-237.683V436.211
		L104.552,436.212L104.552,436.212L104.552,436.212z M869.208,568.559c0,165.124-165.983,197.562-173.005,198.854l-18.157,3.245
		v47.876l-338.215,0l-0.044-47.574l-17.805-3.489c-7.081-1.391-173.317-35.785-173.317-190.353v-23.264h720.542L869.208,568.559
		L869.208,568.559L869.208,568.559z M869.208,524.439H148.667v-44.115h720.542L869.208,524.439L869.208,524.439L869.208,524.439z
		 M442.766,171.533h455.852v44.114H442.766V171.533L442.766,171.533z M119.257,171.533h44.116v44.114h-44.116V171.533
		L119.257,171.533z M119.257,259.759h44.116v44.115h-44.116V259.759L119.257,259.759z M442.766,259.759h455.852v44.115H442.766
		V259.759L442.766,259.759z M171.629,417.351c46.297-9.849,62.712-46.598,65.108-66.76l0.151-165.729
		c0-27.58,30.387-35.334,34.479-35.385l-0.006-44.112c-26.544,0-78.585,24.002-78.585,79.497v161.403
		c-0.861,4.272-5.981,22.759-30.324,27.936L171.629,417.351L171.629,417.351z M259.859,417.351
		c46.298-9.849,62.711-46.598,65.109-66.76l0.151-165.729c0-27.58,30.388-35.334,34.479-35.385l-0.007-44.112
		c-26.545,0-78.587,24.002-78.587,79.497v161.403c-0.862,4.272-5.979,22.759-30.323,27.936L259.859,417.351L259.859,417.351z
		 M348.087,417.351c46.3-9.849,62.712-46.598,65.11-66.76l0.15-165.729c0-27.58,30.386-35.334,34.48-35.385l-0.007-44.112
		c-26.545,0-78.586,24.002-78.586,79.497v161.403c-0.863,4.272-5.981,22.759-30.323,27.936L348.087,417.351L348.087,417.351z"/>
</g>
</svg>
