<?xml version="1.0" encoding="utf-8"?>
<!-- Generator: Adobe Illustrator 18.0.0, SVG Export Plug-In . SVG Version: 6.00 Build 0)  -->
<!DOCTYPE svg PUBLIC "-//W3C//DTD SVG 1.1//EN" "http://www.w3.org/Graphics/SVG/1.1/DTD/svg11.dtd">
<svg version="1.1" id="图形" xmlns="http://www.w3.org/2000/svg" xmlns:xlink="http://www.w3.org/1999/xlink" x="0px" y="0px"
	 viewBox="15.167 -16.333 1000.636 1000.678" enable-background="new 15.167 -16.333 1000.636 1000.678" xml:space="preserve">
<g>
	<path fill-rule="evenodd" clip-rule="evenodd" fill="#FFFFFF" d="M899.261,258.403c-23.904-47.807-57.751-74.136-95.306-74.136
		H237.336c-37.555,0-71.402,26.329-95.305,74.136c-21.083,42.167-32.695,97.662-32.695,156.264v409.6
		c0,9.395,5.146,18.035,13.407,22.509c8.261,4.475,18.309,4.067,26.178-1.067l64.207-41.873l60.988,41.582
		c8.618,5.876,19.942,5.933,28.621,0.149l62.712-41.808l63.87,41.911c8.484,5.568,19.456,5.599,27.969,0.078l64.864-42.045
		l62.799,41.865c4.291,2.861,9.241,4.299,14.202,4.299c4.55,0,9.108-1.212,13.169-3.647l102.408-61.44
		c7.71-4.627,12.428-12.961,12.428-21.953V601.105c21.583,28.575,48.107,43.963,76.8,43.963c37.555,0,71.402-26.329,95.305-74.136
		c21.085-42.168,32.695-97.662,32.695-156.264C931.957,356.066,920.346,300.57,899.261,258.403L899.261,258.403z M675.956,748.332
		l-76.085,45.648l-63.321-42.214c-8.499-5.665-19.554-5.736-28.125-0.181l-64.977,42.118l-64.068-42.04
		c-8.583-5.633-19.702-5.593-28.245,0.102l-62.439,41.627l-60.833-41.478c-8.541-5.823-19.747-5.938-28.406-0.291l-38.921,25.384
		l0-234.34c14.138,0,25.6-11.462,25.6-25.6s-11.462-25.6-25.6-25.6v-76.8c0-102.563,40.547-179.2,76.8-179.2h484.652
		c-4.721,6.985-9.182,14.629-13.336,22.936c-21.084,42.167-32.695,97.662-32.695,156.264L675.956,748.332L675.956,748.332
		L675.956,748.332z M803.956,593.867c-36.253,0-76.8-76.637-76.8-179.2s40.547-179.2,76.8-179.2s76.8,76.637,76.8,179.2
		S840.209,593.867,803.956,593.867L803.956,593.867z"/>
	<path fill-rule="evenodd" clip-rule="evenodd" fill="#FFFFFF" d="M773.448,415.007"/>
	<path fill-rule="evenodd" clip-rule="evenodd" fill="#FFFFFF" d="M623.043,491.467h-25.6c-14.138,0-25.6,11.462-25.6,25.6
		s11.462,25.6,25.6,25.6h25.6c14.138,0,25.6-11.462,25.6-25.6S637.181,491.467,623.043,491.467L623.043,491.467z"/>
	<path fill-rule="evenodd" clip-rule="evenodd" fill="#FFFFFF" d="M324.376,491.467h-54.613c-14.138,0-25.6,11.462-25.6,25.6
		s11.462,25.6,25.6,25.6h54.613c14.138,0,25.6-11.462,25.6-25.6S338.514,491.467,324.376,491.467L324.376,491.467z"/>
	<path fill-rule="evenodd" clip-rule="evenodd" fill="#FFFFFF" d="M488.216,491.467h-54.613c-14.138,0-25.6,11.462-25.6,25.6
		s11.462,25.6,25.6,25.6h54.613c14.138,0,25.6-11.462,25.6-25.6S502.354,491.467,488.216,491.467L488.216,491.467z"/>
</g>
</svg>
