<?xml version="1.0" encoding="utf-8"?>
<!-- Generator: Adobe Illustrator 18.0.0, SVG Export Plug-In . SVG Version: 6.00 Build 0)  -->
<!DOCTYPE svg PUBLIC "-//W3C//DTD SVG 1.1//EN" "http://www.w3.org/Graphics/SVG/1.1/DTD/svg11.dtd">
<svg version="1.1" id="图形" xmlns="http://www.w3.org/2000/svg" xmlns:xlink="http://www.w3.org/1999/xlink" x="0px" y="0px"
	 viewBox="15.167 -16.333 1000.636 1000.678" enable-background="new 15.167 -16.333 1000.636 1000.678" xml:space="preserve">
<g>
	<path fill-rule="evenodd" clip-rule="evenodd" fill="#FFFFFF" d="M360.161,116.894c7.125-5.7,12.825-14.25,12.825-24.225
		c0-15.675-12.825-28.5-28.5-28.5h-28.5h-14.25h-14.25h-28.5c-15.675,0-28.5,12.825-28.5,28.5c0,9.975,5.7,18.525,12.825,24.225
		l-27.075,218.024c0,72.675-71.25,115.424-71.25,170.999v42.75v233.699v79.8c0,31.35,25.65,57,57,57h99.749h99.749
		c31.35,0,57-25.65,57-57v-79.8V548.667v-42.75c0-55.575-71.25-98.325-71.25-170.999L360.161,116.894L360.161,116.894z
		 M287.486,106.919h14.25h14.25l1.425,14.25l24.225,195.224l-27.075,19.95l-51.3-34.2l22.8-180.974L287.486,106.919L287.486,106.919
		z M187.736,591.416h227.999v159.599l-113.999,37.05l-113.999-37.05V591.416L187.736,591.416z M415.735,862.165
		c0,8.55-5.7,14.25-14.25,14.25h-99.749h-99.749c-8.55,0-14.25-5.7-14.25-14.25v-65.55l113.999,37.05l113.999-37.05V862.165
		L415.735,862.165z M415.735,505.917v42.75H187.736v-42.75c0-12.825,11.4-31.35,24.225-49.875
		c18.525-28.5,41.325-61.275,45.6-105.449l58.425,38.475l31.35-22.8c7.125,35.625,27.075,65.55,42.75,89.774
		C404.335,474.567,415.735,493.092,415.735,505.917L415.735,505.917z"/>
	<polygon fill-rule="evenodd" clip-rule="evenodd" fill="#FFFFFF" points="586.734,634.166 615.234,634.166 615.234,819.415 
		586.734,819.415 586.734,634.166 	"/>
	<polygon fill-rule="evenodd" clip-rule="evenodd" fill="#FFFFFF" points="643.734,634.166 672.234,634.166 672.234,819.415 
		643.734,819.415 643.734,634.166 	"/>
	<polygon fill-rule="evenodd" clip-rule="evenodd" fill="#FFFFFF" points="700.734,634.166 729.234,634.166 729.234,819.415 
		700.734,819.415 700.734,634.166 	"/>
	<path fill-rule="evenodd" clip-rule="evenodd" fill="#FFFFFF" d="M814.733,634.166h-14.25v-42.75
		c0-24.225-18.525-42.75-42.75-42.75H558.235c-24.225,0-42.75,18.525-42.75,42.75v270.749c0,24.225,18.525,42.75,42.75,42.75
		h199.499c24.225,0,42.75-18.525,42.75-42.75v-42.75h14.25c39.9,0,71.25-31.35,71.25-71.25v-42.75
		C885.983,665.516,854.633,634.166,814.733,634.166L814.733,634.166z M757.734,862.165H558.235V591.416h199.499v42.75v185.249
		V862.165L757.734,862.165z M843.233,748.166c0,15.675-12.825,28.5-28.5,28.5h-14.25v-99.75h14.25c15.675,0,28.5,12.825,28.5,28.5
		V748.166L843.233,748.166z"/>
</g>
</svg>
